{"glyphs":{"0":{"ha":833,"x_min":35,"x_max":798,"o":"m 402 783 q 581 737 495 783 q 755 555 698 676 q 798 368 798 467 q 659 70 798 186 q 416 -18 553 -18 q 160 80 266 -18 q 35 390 35 196 q 149 687 35 579 q 402 783 250 783 m 387 581 q 323 473 323 581 q 377 221 323 333 q 433 178 398 178 q 495 287 495 178 q 482 417 495 348 q 448 530 469 487 q 387 581 426 578 z "},"1":{"ha":833,"x_min":54,"x_max":769,"o":"m 113 132 q 158 127 123 132 q 184 125 174 125 q 250 216 241 125 q 255 509 255 267 q 240 559 255 545 q 186 574 225 574 q 159 572 176 574 q 135 570 145 570 q 98 583 112 570 q 83 616 83 595 q 105 659 83 637 q 165 696 127 680 q 574 778 357 778 q 660 764 633 778 q 686 720 686 750 q 677 692 686 702 q 642 671 669 682 q 594 626 600 652 q 585 420 588 600 q 591 225 590 238 q 596 189 591 212 q 627 140 604 153 q 705 123 649 126 q 769 71 769 121 q 679 3 769 20 q 421 -19 553 -19 q 257 -9 334 -19 q 106 24 160 5 q 54 81 54 43 q 71 117 54 102 q 113 132 88 132 z "},"2":{"ha":833,"x_min":12,"x_max":802,"o":"m 535 0 l 73 0 q 12 35 12 0 q 25 67 12 52 q 109 149 38 83 q 302 379 239 273 q 335 473 335 433 q 315 527 335 507 q 262 547 296 547 q 215 538 231 547 q 143 483 199 530 q 104 471 128 471 q 45 495 72 471 q 18 549 18 520 q 43 609 18 576 q 107 673 67 643 q 432 778 254 778 q 656 726 568 778 q 721 659 696 702 q 745 570 745 616 q 581 312 745 451 q 523 239 523 263 q 541 207 523 220 q 583 193 558 193 q 690 239 643 193 q 721 267 713 262 q 743 272 729 272 q 802 170 802 272 q 783 67 802 119 q 730 -23 764 15 q 653 -64 695 -64 q 626 -57 636 -64 q 603 -30 616 -50 q 579 -5 591 -11 q 535 0 567 0 z "},"3":{"ha":833,"x_min":-3,"x_max":800,"o":"m 357 778 q 589 730 488 778 q 653 675 629 710 q 676 600 676 640 q 600 466 676 527 q 578 438 578 448 q 616 411 578 418 q 800 208 800 377 q 725 13 800 101 q 517 -112 654 -72 q 299 -140 418 -140 q 60 -102 160 -140 q -3 -31 -3 -77 q 19 19 -3 -1 q 71 39 40 39 q 162 22 87 39 q 232 16 186 16 q 361 53 313 16 q 412 144 412 93 q 373 223 412 193 q 272 254 334 254 q 203 245 233 254 q 176 240 185 240 q 140 276 159 240 q 121 346 121 312 q 130 368 121 362 q 186 390 139 374 q 269 444 229 404 q 298 510 298 475 q 268 577 298 549 q 195 605 237 605 q 151 599 169 605 q 85 567 133 593 q 62 559 71 559 q 30 583 45 559 q 15 633 15 607 q 96 720 15 680 q 219 762 147 746 q 357 778 290 778 z "},"4":{"ha":833,"x_min":16,"x_max":798,"o":"m 709 757 l 709 288 q 715 259 709 267 q 736 252 721 252 l 765 252 q 798 213 797 252 l 798 75 q 762 35 798 39 q 732 26 738 32 q 726 -3 726 20 l 726 -83 q 686 -128 728 -126 l 454 -128 q 422 -120 430 -128 q 415 -83 415 -111 l 415 -14 q 404 26 415 15 q 366 37 393 37 l 102 37 q 35 57 54 37 q 16 126 16 77 q 31 228 16 191 q 140 381 50 273 l 313 588 q 504 786 442 743 q 571 817 532 805 q 646 829 611 829 q 694 812 680 829 q 709 757 709 795 m 425 405 l 425 438 q 391 499 425 499 q 342 471 365 499 l 238 343 q 193 262 193 287 q 212 240 193 245 q 306 233 231 235 l 359 232 q 406 240 394 232 q 420 271 418 248 q 425 405 425 308 z "},"5":{"ha":833,"x_min":44,"x_max":790,"o":"m 254 768 l 736 768 q 772 757 763 768 q 782 712 782 745 q 766 622 782 666 q 723 551 749 577 q 669 531 702 531 l 362 531 q 311 490 311 531 q 322 467 311 473 q 374 456 334 460 q 631 391 523 441 q 756 285 709 355 q 790 176 790 235 q 709 -3 790 81 q 540 -107 644 -71 q 311 -144 436 -144 q 130 -118 211 -144 q 54 -40 54 -95 q 65 15 54 -8 q 91 38 76 38 q 111 34 99 38 q 178 19 138 26 q 241 12 218 12 q 334 37 299 12 q 370 102 370 62 q 314 186 370 153 q 178 233 260 219 q 94 247 108 244 q 68 258 80 250 q 44 300 44 273 q 75 444 44 337 q 146 650 106 551 q 195 750 178 731 q 254 768 212 768 z "},"6":{"ha":833,"x_min":24,"x_max":819,"o":"m 337 882 q 433 861 366 882 q 493 833 469 850 q 517 804 517 817 q 510 784 517 794 q 460 726 502 773 q 411 655 433 696 q 390 593 390 614 q 396 575 390 583 q 411 568 402 568 q 460 583 418 568 q 566 604 516 604 q 721 549 651 604 q 819 346 819 473 q 760 152 819 245 q 435 -18 650 -18 q 146 85 256 -18 q 52 230 85 142 q 24 376 24 302 q 161 727 24 547 q 266 847 227 812 q 337 882 306 882 m 411 412 q 364 390 381 412 q 347 332 347 369 q 387 221 347 276 q 468 165 427 165 q 513 182 496 165 q 530 226 530 199 q 509 320 530 271 q 460 393 489 370 q 411 412 438 411 z "},"7":{"ha":833,"x_min":26,"x_max":799,"o":"m 793 688 l 518 -146 q 497 -170 512 -163 q 447 -176 482 -176 q 305 -153 369 -176 q 241 -102 241 -130 q 246 -85 241 -95 l 499 399 q 527 473 527 452 q 495 509 527 499 q 377 518 463 518 q 230 505 274 518 q 197 479 211 499 q 162 445 178 454 q 123 435 147 435 q 51 474 76 435 q 26 587 26 513 q 58 738 26 676 q 99 786 74 767 q 146 806 123 806 q 214 782 161 806 q 298 768 248 768 l 734 768 q 799 720 799 768 q 793 688 799 704 z "},"8":{"ha":833,"x_min":15,"x_max":819,"o":"m 406 859 q 668 812 548 859 q 774 733 734 787 q 804 644 804 694 q 716 507 804 564 q 690 480 690 490 q 722 449 690 471 q 792 369 766 418 q 819 268 819 320 q 762 115 819 189 q 441 -18 661 -18 q 173 35 290 -18 q 49 136 94 72 q 15 249 15 184 q 96 393 15 336 q 125 426 125 415 q 100 459 125 435 q 35 607 35 521 q 155 798 35 726 q 406 859 258 859 m 436 734 q 386 719 406 734 q 366 681 366 703 q 416 610 366 646 q 505 569 471 569 q 537 593 523 569 q 551 646 551 616 q 522 707 551 686 q 436 734 485 734 m 275 330 q 250 316 259 330 q 241 278 241 301 q 254 220 241 252 q 288 169 268 189 q 408 119 337 119 q 474 138 449 119 q 498 186 498 156 q 475 240 498 219 q 376 296 452 261 q 275 330 304 330 z "},"9":{"ha":833,"x_min":17,"x_max":807,"o":"m 412 778 q 659 716 547 778 q 807 450 807 634 q 711 138 807 302 q 459 -150 604 -43 q 401 -174 425 -174 q 294 -139 359 -174 q 229 -83 229 -104 q 269 -42 229 -68 q 355 47 319 -9 q 388 132 388 100 q 361 157 388 157 q 315 153 351 157 q 296 153 309 153 q 121 215 187 153 q 44 328 72 261 q 17 468 17 395 q 127 692 17 613 q 412 778 245 778 m 403 584 q 354 559 374 584 q 334 499 334 535 q 368 379 334 429 q 449 328 402 328 q 494 349 477 328 q 511 401 511 369 q 496 485 511 438 q 460 555 480 531 q 403 584 436 583 z "}," ":{"ha":347,"x_min":0,"x_max":0,"o":""},"!":{"ha":428,"x_min":56,"x_max":373,"o":"m 218 275 q 319 231 277 275 q 361 130 361 188 q 317 25 361 69 q 214 -18 274 -18 q 113 22 155 -18 q 67 129 67 65 q 107 229 67 188 q 218 275 152 275 m 214 916 q 317 873 275 916 q 373 711 373 816 q 349 563 373 642 q 285 420 325 483 q 212 350 239 350 q 135 440 184 350 q 77 583 98 507 q 56 722 56 659 q 90 851 56 799 q 214 916 133 916 z "},"\"":{"ha":600,"x_min":46,"x_max":554,"o":"m 158 939 q 239 897 208 939 q 271 786 271 854 q 254 674 271 734 q 208 568 237 615 q 157 515 176 515 q 102 583 138 515 q 46 794 46 690 q 77 899 46 859 q 158 939 108 939 m 441 939 q 523 897 492 939 q 554 786 554 854 q 537 674 554 734 q 492 568 520 615 q 440 515 460 515 q 386 583 420 515 q 330 794 330 691 q 360 899 330 859 q 441 939 391 939 z "},"#":{"ha":833,"x_min":59,"x_max":774,"o":"m 179 162 l 184 192 q 186 218 186 218 q 153 240 186 240 q 102 237 144 240 q 87 236 94 236 q 59 257 59 236 q 79 306 59 266 q 113 363 100 345 q 163 391 134 391 q 182 389 172 391 q 195 389 189 389 q 215 414 211 389 l 220 453 q 220 463 220 458 q 199 481 220 481 q 136 477 189 481 q 121 477 125 477 q 92 498 92 477 q 112 546 92 507 q 146 604 132 584 q 197 631 168 631 q 216 630 205 631 q 229 629 224 629 q 248 655 245 629 l 252 681 q 257 774 256 713 q 276 818 258 805 q 341 847 296 831 q 404 863 386 863 q 427 843 427 863 q 423 819 427 836 q 412 755 420 808 l 399 656 q 397 642 397 643 q 427 624 395 624 l 462 624 q 489 630 482 624 q 498 656 496 635 l 502 681 q 507 773 507 718 q 526 818 507 804 q 591 847 546 831 q 655 863 636 863 q 671 857 664 863 q 677 843 677 851 q 673 819 677 836 q 663 755 670 808 l 649 656 q 647 640 647 644 q 671 624 647 624 q 733 625 720 624 q 752 627 747 627 q 774 605 774 627 q 740 526 774 591 q 682 473 712 473 q 652 476 671 473 q 639 477 643 477 q 620 452 623 477 l 616 420 q 614 403 614 407 q 652 382 614 382 q 700 385 678 382 q 718 387 712 387 q 741 367 741 387 q 724 318 741 355 q 691 260 707 281 q 649 232 671 232 q 618 235 635 232 q 606 237 610 237 q 587 212 590 237 q 575 86 576 149 q 555 33 574 47 q 490 1 539 20 q 425 -18 441 -18 q 404 6 404 -18 q 407 28 404 12 q 429 162 418 85 l 435 201 q 436 216 436 210 q 408 240 436 240 l 368 240 q 336 212 339 240 l 334 197 q 325 86 326 140 q 304 33 323 47 q 240 1 289 20 q 175 -18 191 -18 q 153 7 153 -18 q 157 28 153 12 q 179 162 168 86 m 388 383 l 433 383 q 456 388 450 383 q 465 411 462 393 l 469 449 q 471 465 471 461 q 446 481 471 481 l 401 481 q 378 476 384 481 q 370 453 372 471 l 365 415 q 363 400 363 407 q 388 383 363 383 z "},"$":{"ha":833,"x_min":46,"x_max":787,"o":"m 330 823 l 330 855 q 338 891 330 882 q 374 900 347 900 l 431 900 q 467 891 458 900 q 475 855 475 882 l 475 823 q 481 797 475 801 q 526 785 488 792 q 564 774 536 783 q 583 771 576 771 q 602 775 590 771 q 642 785 630 785 q 723 725 678 785 q 770 601 770 661 q 751 544 770 566 q 700 522 731 522 q 662 532 677 522 q 585 599 648 542 q 453 655 524 655 q 403 638 422 655 q 384 595 384 622 q 425 537 384 559 q 549 496 440 528 q 715 412 659 463 q 787 243 787 347 q 710 64 787 136 q 610 -3 667 24 q 503 -35 553 -31 q 480 -41 485 -36 q 475 -66 475 -47 l 475 -98 q 467 -134 475 -125 q 431 -142 458 -142 l 374 -142 q 338 -134 347 -142 q 330 -98 330 -125 l 330 -66 q 326 -42 330 -48 q 310 -35 322 -37 q 193 -10 251 -28 q 115 25 135 8 q 67 109 89 46 q 46 227 46 172 q 59 272 46 255 q 94 288 73 288 q 147 257 120 288 q 193 189 155 248 q 266 126 219 149 q 367 103 312 103 q 439 119 411 103 q 467 161 467 136 q 429 214 467 193 q 313 258 416 221 q 66 531 66 346 q 151 713 66 635 q 300 790 217 774 q 326 799 321 794 q 330 823 330 804 z "},"%":{"ha":1126,"x_min":18,"x_max":1107,"o":"m 309 940 q 463 886 394 940 q 553 714 553 815 q 529 616 553 664 q 460 534 504 569 q 266 469 378 469 q 82 536 153 469 q 18 690 18 596 q 96 866 18 799 q 192 920 135 900 q 309 940 250 940 m 262 835 q 233 821 244 835 q 221 785 221 807 q 250 646 221 718 q 274 600 262 612 q 305 587 286 587 q 343 640 343 587 q 313 788 343 718 q 262 835 294 833 m 862 465 q 1017 410 947 465 q 1107 239 1107 340 q 1082 141 1107 189 q 1014 59 1057 94 q 819 -6 931 -6 q 635 60 706 -6 q 572 214 572 121 q 650 391 572 323 q 746 445 688 425 q 862 465 804 465 m 815 359 q 786 346 797 359 q 774 309 774 332 q 803 170 774 241 q 828 124 816 137 q 859 112 840 112 q 897 164 897 112 q 867 313 897 242 q 815 359 847 358 m 427 338 l 633 685 q 744 886 715 828 q 777 933 761 921 q 823 945 793 945 q 887 913 887 945 q 834 812 887 890 q 722 633 795 755 l 513 279 q 391 58 448 159 q 359 7 373 20 q 321 -6 345 -6 q 265 4 287 -6 q 243 30 243 14 q 257 64 243 43 q 370 239 277 93 l 427 338 z "},"&":{"ha":1207,"x_min":18,"x_max":1206,"o":"m 448 962 q 610 925 542 962 q 677 835 677 887 q 654 781 677 805 q 602 758 631 758 q 580 762 589 758 q 535 791 572 766 q 469 812 503 812 q 411 787 434 812 q 389 722 389 761 q 429 648 389 669 q 491 635 440 642 q 532 579 532 631 q 487 497 532 524 q 412 478 467 486 q 380 416 380 473 q 422 277 380 349 q 524 177 462 213 q 642 144 581 144 q 786 193 724 144 q 842 304 842 237 q 817 360 842 336 q 755 383 791 383 q 659 314 700 383 q 623 284 642 284 q 581 313 598 284 q 563 380 563 342 q 622 528 563 463 q 791 634 680 593 q 901 686 881 667 q 925 732 925 708 q 916 756 925 746 q 893 766 906 766 q 869 759 888 766 q 859 758 865 758 q 839 766 848 758 q 831 787 831 774 q 859 842 831 816 q 924 880 884 865 q 1006 894 965 894 q 1138 855 1082 894 q 1188 797 1170 833 q 1206 721 1206 761 q 1167 607 1206 662 q 1059 515 1128 552 q 1009 469 1009 488 q 1042 434 1009 454 q 1091 382 1073 415 q 1109 311 1109 349 q 1060 181 1109 248 q 840 27 987 81 q 563 -18 717 -18 q 216 57 360 -18 q 56 214 113 111 q 18 357 18 281 q 72 497 18 439 q 139 550 104 532 q 164 575 164 563 q 157 593 164 581 q 116 713 116 664 q 145 813 116 764 q 222 895 174 862 q 329 944 268 926 q 448 962 390 962 z "},"'":{"ha":317,"x_min":46,"x_max":271,"o":"m 158 939 q 239 897 208 939 q 271 786 271 854 q 254 674 271 734 q 208 568 237 615 q 157 515 176 515 q 102 583 138 515 q 46 794 46 690 q 77 899 46 859 q 158 939 108 939 z "},"(":{"ha":692,"x_min":93,"x_max":679,"o":"m 524 941 q 658 914 615 941 q 678 871 678 901 q 666 821 678 839 q 634 802 654 802 q 607 804 623 802 q 551 811 563 811 q 427 686 466 811 q 380 350 380 538 q 401 103 380 215 q 460 -73 422 -8 q 564 -137 498 -137 q 602 -135 582 -137 q 630 -133 625 -133 q 679 -197 679 -133 q 652 -243 679 -229 q 543 -264 612 -264 q 238 -109 361 -264 q 93 353 93 73 q 165 703 93 555 q 524 941 280 940 z "},")":{"ha":692,"x_min":14,"x_max":600,"o":"m 58 -127 q 85 -129 68 -126 q 141 -135 126 -135 q 266 -10 227 -135 q 313 326 313 138 q 291 573 313 461 q 232 749 270 684 q 128 813 195 813 q 90 811 111 813 q 62 809 67 809 q 14 873 14 809 q 41 920 14 905 q 149 940 81 940 q 454 785 331 940 q 600 323 600 603 q 454 -139 600 32 q 169 -264 347 -264 q 35 -238 77 -264 q 14 -195 14 -226 q 58 -127 14 -129 z "},"*":{"ha":833,"x_min":130,"x_max":705,"o":"m 232 789 l 319 756 q 335 752 331 752 q 346 771 344 752 l 347 775 l 342 869 l 342 876 q 355 929 342 918 q 416 939 368 939 q 472 933 458 939 q 489 906 486 926 q 491 869 492 888 l 488 775 q 499 752 488 752 q 514 756 503 752 l 602 789 q 646 800 631 800 q 669 791 661 800 q 686 757 677 782 q 704 688 703 713 q 648 648 705 663 l 557 622 q 538 606 538 616 q 547 591 538 602 l 606 517 q 631 467 631 484 q 587 416 631 448 q 532 389 547 389 q 485 430 513 389 l 433 508 q 416 522 424 522 q 400 508 410 522 l 349 430 q 301 389 321 389 q 247 416 286 389 q 202 467 202 448 q 229 517 202 484 l 286 591 q 295 607 295 602 q 276 622 295 616 l 186 648 q 130 687 130 663 q 151 765 130 713 q 188 799 164 799 q 232 789 203 799 z "},"+":{"ha":833,"x_min":83,"x_max":750,"o":"m 298 318 l 264 318 q 130 314 183 318 q 115 313 121 313 q 93 321 102 313 q 83 340 83 329 q 98 393 83 351 q 123 453 113 435 q 168 484 140 484 q 188 483 176 484 q 281 477 260 476 l 298 477 l 299 477 q 335 513 336 477 l 335 557 q 327 651 334 600 q 326 665 326 658 q 368 709 326 690 q 427 729 393 720 q 475 739 461 739 q 503 713 503 739 q 501 696 503 709 q 500 631 500 686 l 500 513 q 537 477 500 477 l 642 477 q 706 478 696 477 q 724 480 720 480 q 750 453 750 480 q 739 400 750 438 q 715 340 727 363 q 676 309 699 309 l 568 318 l 537 318 q 500 281 497 321 l 500 270 q 507 159 500 224 q 508 138 508 146 q 467 89 508 109 q 406 66 444 79 q 358 54 368 54 q 338 63 346 54 q 330 86 330 73 q 331 100 330 92 q 335 235 335 154 l 335 281 q 298 318 337 320 z "},",":{"ha":416,"x_min":38,"x_max":369,"o":"m 197 311 q 263 295 231 311 q 317 252 296 279 q 369 89 369 187 q 349 -33 369 35 q 296 -155 329 -100 q 184 -245 243 -245 q 138 -229 159 -245 q 117 -193 117 -214 q 143 -141 117 -182 q 171 -86 159 -117 q 182 -40 182 -56 q 159 -7 182 -16 q 95 26 114 10 q 38 152 38 75 q 78 256 38 213 q 197 311 127 311 z "},"-":{"ha":395,"x_min":0,"x_max":395,"o":"m 118 484 q 154 482 135 484 q 279 473 236 473 q 343 477 323 473 q 374 480 366 480 q 395 449 395 480 q 382 374 395 420 q 349 288 369 329 q 321 244 332 256 q 295 233 310 233 q 262 236 282 233 q 123 246 201 246 q 62 243 90 246 q 28 241 39 241 q 0 274 0 241 q 16 347 0 296 q 47 427 32 399 q 80 471 65 459 q 118 484 94 484 z "},".":{"ha":416,"x_min":49,"x_max":369,"o":"m 209 302 q 321 257 273 302 q 369 140 369 212 q 321 26 369 73 q 209 -18 273 -18 q 97 26 144 -18 q 49 142 49 73 q 97 257 49 212 q 209 302 144 301 z "},"/":{"ha":655,"x_min":-57,"x_max":601,"o":"m 77 85 l 322 643 q 340 690 332 667 q 353 722 347 705 q 385 798 359 737 q 416 878 406 848 q 444 927 429 915 q 488 940 458 940 q 601 886 601 940 q 584 831 601 863 q 467 589 505 679 l 222 33 q 155 -127 172 -82 q 107 -237 121 -218 q 50 -264 87 -264 q -26 -247 5 -264 q -57 -206 -57 -230 q -51 -177 -57 -191 q -9 -94 -45 -163 q 77 85 49 19 z "},":":{"ha":416,"x_min":49,"x_max":369,"o":"m 211 694 q 322 647 276 694 q 369 536 369 601 q 321 418 369 465 q 209 374 273 374 q 97 418 144 374 q 49 536 49 465 q 90 641 49 598 q 211 694 138 694 m 211 302 q 322 255 276 302 q 369 144 369 209 q 321 26 369 73 q 209 -18 273 -18 q 97 26 144 -18 q 49 144 49 73 q 90 249 49 206 q 211 302 138 302 z "},";":{"ha":416,"x_min":38,"x_max":369,"o":"m 197 311 q 263 295 231 311 q 317 252 296 279 q 369 89 369 187 q 349 -33 369 35 q 296 -155 329 -100 q 184 -245 243 -245 q 138 -229 159 -245 q 117 -193 117 -214 q 143 -141 117 -182 q 171 -86 159 -117 q 182 -40 182 -56 q 159 -7 182 -16 q 95 26 114 10 q 38 152 38 75 q 78 256 38 213 q 197 311 127 311 m 208 694 q 320 647 273 694 q 366 536 366 601 q 318 418 366 465 q 206 374 271 374 q 94 418 141 374 q 46 536 46 465 q 87 641 46 598 q 208 694 136 694 z "},"<":{"ha":694,"x_min":46,"x_max":648,"o":"m 648 943 l 648 642 l 366 470 l 646 298 l 648 -1 l 46 345 l 46 597 l 648 943 z "},"=":{"ha":833,"x_min":83,"x_max":750,"o":"m 299 597 l 642 597 q 707 598 694 597 q 724 600 720 600 q 750 574 750 600 q 739 520 750 558 q 715 460 727 483 q 676 429 699 429 l 568 438 l 264 438 q 130 434 180 438 q 115 433 121 433 q 93 441 102 433 q 83 460 83 449 q 98 513 83 471 q 123 573 113 555 q 168 604 140 604 q 188 603 176 604 q 299 597 255 597 m 299 356 l 642 356 q 707 357 695 356 q 724 359 720 359 q 750 332 750 359 q 739 280 750 317 q 715 220 727 242 q 676 188 699 188 l 568 197 l 264 197 q 130 193 180 197 q 115 193 121 193 q 93 200 102 193 q 83 219 83 208 q 98 272 83 231 q 123 332 113 314 q 168 363 140 363 q 188 362 176 363 q 299 356 255 356 z "},">":{"ha":694,"x_min":46,"x_max":648,"o":"m 46 -1 l 46 300 l 328 472 l 48 644 l 46 943 l 648 597 l 648 345 l 46 -1 z "},"?":{"ha":669,"x_min":9,"x_max":656,"o":"m 315 275 q 416 231 374 275 q 458 130 458 188 q 415 25 458 69 q 311 -18 372 -18 q 210 22 252 -18 q 165 129 165 65 q 205 229 165 188 q 315 275 250 275 m 330 925 q 484 892 406 925 q 611 798 565 859 q 656 671 656 739 q 591 539 656 593 q 492 484 574 525 q 447 455 462 469 q 422 418 433 441 q 381 355 399 368 q 321 342 363 342 q 256 366 280 342 q 233 431 233 389 q 251 510 233 468 q 303 591 256 520 q 347 716 347 658 q 334 764 347 745 q 300 783 321 783 q 271 769 279 783 q 258 720 262 756 q 212 614 251 650 q 111 578 174 578 q 41 602 68 578 q 9 673 9 630 q 55 801 9 739 q 170 893 100 863 q 330 925 245 925 z "},"@":{"ha":1109,"x_min":37,"x_max":1077,"o":"m 663 944 q 962 841 850 944 q 1048 716 1017 791 q 1077 574 1077 646 q 1017 371 1077 466 q 824 223 951 268 q 702 200 759 200 q 628 218 652 200 q 592 279 603 235 q 580 292 589 292 q 553 275 570 292 q 412 205 483 205 q 312 248 350 205 q 275 361 275 291 q 353 593 275 486 q 451 686 396 652 q 560 720 506 720 q 650 690 600 720 q 675 680 667 680 q 695 686 682 680 q 802 719 762 719 q 850 679 850 719 q 840 616 850 656 q 791 376 791 431 q 815 351 791 351 q 888 392 848 351 q 942 477 922 426 q 962 581 962 528 q 892 759 962 689 q 654 840 810 840 q 308 704 447 840 q 182 498 224 621 q 154 341 154 419 q 267 128 154 191 q 458 85 346 85 q 722 143 598 85 q 775 158 754 158 q 806 147 793 158 q 819 119 819 136 q 776 59 819 88 q 466 -18 661 -18 q 176 56 283 -18 q 64 199 99 110 q 37 342 37 265 q 122 644 37 497 q 419 901 227 825 q 663 944 528 944 m 617 602 q 562 555 595 602 q 522 476 538 522 q 505 396 505 430 q 523 365 505 365 q 569 406 542 365 q 614 496 595 447 q 632 576 632 545 q 617 602 632 602 z "},"A":{"ha":1148,"x_min":0,"x_max":1148,"o":"m 903 469 l 1031 194 q 1062 144 1050 156 q 1099 128 1074 132 q 1148 79 1148 121 q 1088 7 1148 29 q 893 -14 1029 -14 q 666 -1 740 -14 q 612 23 632 5 q 592 68 592 42 q 603 100 592 89 q 642 121 613 111 q 673 157 673 132 q 618 211 673 203 q 452 219 559 219 q 345 208 362 219 q 326 184 334 201 q 317 150 317 166 q 323 131 317 135 q 361 116 329 126 q 402 67 402 104 q 209 -14 402 -14 q 47 1 99 -14 q 0 64 0 16 q 11 96 0 85 q 48 117 21 108 q 115 161 92 133 q 180 281 138 189 l 275 491 q 346 664 328 606 q 365 776 364 721 q 372 857 366 834 q 401 901 378 880 q 520 949 448 949 q 651 895 589 949 q 903 469 738 822 m 431 383 l 564 383 q 601 399 601 383 q 550 509 601 422 q 515 563 527 549 q 489 576 503 576 q 448 531 465 576 q 429 483 446 525 q 400 400 400 414 q 431 383 400 383 z "},"B":{"ha":996,"x_min":18,"x_max":978,"o":"m 395 1 l 304 0 q 164 -4 208 -1 q 108 -7 125 -7 q 42 14 66 -7 q 18 64 18 35 q 27 94 18 83 q 70 127 36 104 q 97 170 90 141 q 113 294 104 199 q 126 658 126 441 q 116 763 126 737 q 66 806 105 789 q 22 862 22 825 q 48 911 22 892 q 117 930 75 930 q 176 928 140 930 q 305 925 236 925 q 505 929 356 925 q 590 930 552 930 q 735 916 680 930 q 831 867 791 901 q 898 716 898 810 q 878 625 898 669 q 825 554 859 581 q 802 519 802 535 q 830 491 802 503 q 931 416 886 469 q 978 278 978 361 q 907 100 978 180 q 628 -7 812 -7 q 505 -3 603 -7 q 395 1 415 0 m 441 736 l 441 597 q 450 550 441 564 q 479 536 458 536 q 553 567 530 536 q 577 664 577 598 q 553 763 577 728 q 484 798 528 798 q 451 784 460 798 q 441 736 441 771 m 441 346 l 441 281 q 454 163 441 193 q 507 134 467 134 q 610 255 610 134 q 494 406 610 406 q 453 393 465 406 q 441 346 441 380 z "},"C":{"ha":1000,"x_min":33,"x_max":981,"o":"m 544 945 q 735 901 643 945 q 795 881 779 881 q 835 887 808 881 q 854 889 844 889 q 916 857 890 889 q 981 661 981 778 q 925 541 981 579 q 857 521 895 521 q 800 536 822 521 q 758 589 779 551 q 711 666 729 642 q 666 708 692 689 q 528 754 600 754 q 417 704 458 754 q 376 568 376 653 q 435 355 376 452 q 665 225 515 225 q 773 243 720 225 q 857 291 827 262 q 899 315 883 315 q 940 293 923 315 q 957 240 957 271 q 933 152 957 201 q 876 75 909 103 q 817 55 862 64 q 749 30 791 50 q 540 -18 648 -18 q 314 33 427 -18 q 107 214 183 92 q 33 462 33 332 q 126 736 33 612 q 338 901 208 844 q 544 945 438 945 z "},"D":{"ha":1114,"x_min":18,"x_max":1082,"o":"m 311 0 l 262 0 q 167 -4 220 0 q 121 -7 134 -7 q 47 14 75 -7 q 18 69 18 35 q 31 106 18 93 q 72 127 43 119 q 109 150 99 134 q 123 209 118 165 q 133 407 129 260 q 138 699 138 554 q 129 775 138 756 q 87 806 120 794 q 41 866 41 823 q 73 918 41 899 q 163 937 105 937 q 208 936 182 937 q 290 934 264 934 q 509 940 387 934 q 574 941 535 941 q 819 906 729 941 q 1021 728 954 853 q 1082 467 1082 618 q 1059 313 1082 390 q 999 180 1037 236 q 782 20 920 66 q 608 -7 701 -7 l 526 -5 l 456 -3 q 311 0 374 0 m 454 735 l 454 210 q 472 150 454 168 q 533 132 490 132 q 731 433 731 132 q 685 690 731 599 q 513 791 634 791 q 467 779 480 791 q 454 735 454 766 z "},"E":{"ha":960,"x_min":18,"x_max":950,"o":"m 168 926 l 516 926 q 670 930 622 926 q 765 948 719 935 q 787 952 779 952 q 850 914 823 952 q 895 765 895 852 q 876 695 895 721 q 825 670 857 670 q 790 679 802 670 q 756 720 777 688 q 681 781 726 766 q 530 796 635 796 q 435 768 452 796 q 425 728 427 753 q 423 600 423 703 q 437 550 423 559 q 508 540 450 540 q 549 552 536 540 q 566 594 562 564 q 575 648 570 633 q 594 673 581 663 q 627 686 608 686 q 675 659 655 686 q 699 590 689 640 q 709 486 709 540 q 675 310 709 378 q 620 273 657 273 q 588 284 597 273 q 574 334 579 296 q 485 410 564 410 q 443 391 454 410 q 432 319 432 372 q 436 237 432 288 q 446 170 441 186 q 479 142 451 150 q 573 134 507 134 q 726 160 675 134 q 810 255 778 186 q 845 308 829 294 q 884 321 860 321 q 931 297 913 321 q 950 235 950 272 q 929 133 950 194 q 878 24 908 72 q 852 -6 862 1 q 826 -14 842 -14 q 789 -10 813 -14 q 673 0 745 -2 l 98 0 q 44 15 63 0 q 25 58 25 31 q 33 87 25 78 q 71 109 41 96 q 101 131 91 118 q 116 169 111 144 q 138 445 138 271 q 106 775 138 707 q 91 794 99 789 q 57 807 83 800 q 18 859 18 819 q 31 897 18 880 q 65 920 44 914 q 168 926 92 926 z "},"F":{"ha":918,"x_min":18,"x_max":928,"o":"m 524 786 q 467 762 477 786 q 451 693 458 745 q 444 600 444 642 q 460 565 444 574 q 522 555 477 555 q 566 566 551 555 q 585 603 580 577 q 649 677 601 677 q 732 479 732 677 q 696 294 732 353 q 636 258 674 258 q 590 312 596 258 q 582 361 587 347 q 562 388 576 375 q 497 409 540 409 q 456 398 467 409 q 446 357 445 387 q 446 294 446 351 q 470 151 446 176 q 487 137 478 140 q 531 129 495 134 q 561 111 549 126 q 573 75 573 95 q 512 7 573 22 q 264 -14 424 -14 q 72 3 125 -14 q 33 30 48 10 q 18 73 18 50 q 40 121 18 103 q 77 138 45 125 q 123 208 115 153 q 135 588 135 291 q 126 754 135 716 q 83 807 117 792 q 39 833 50 822 q 28 865 28 844 q 58 915 28 895 q 130 935 87 935 q 209 931 157 935 q 473 922 319 922 q 805 936 720 922 q 823 937 817 937 q 868 910 846 937 q 928 742 928 834 q 908 675 928 700 q 857 650 888 650 q 821 659 833 650 q 758 726 808 669 q 685 772 728 761 q 524 786 642 783 z "},"G":{"ha":1103,"x_min":33,"x_max":1089,"o":"m 549 945 q 716 920 637 945 q 764 908 751 908 q 821 924 778 908 q 850 928 836 928 q 923 884 888 928 q 979 726 979 812 q 949 632 979 668 q 871 596 920 596 q 794 625 832 596 q 738 688 783 633 q 566 780 663 780 q 426 715 478 780 q 374 542 374 651 q 457 266 374 380 q 532 200 488 224 q 618 175 575 175 q 676 198 653 175 q 699 258 699 222 q 680 304 699 291 q 666 311 672 310 q 627 312 659 312 q 578 331 597 312 q 559 378 559 349 q 633 458 559 434 q 823 484 715 484 q 1015 460 937 484 q 1089 376 1089 437 q 1072 334 1089 352 q 1028 313 1055 316 q 997 302 1004 309 q 983 267 990 295 q 869 87 954 159 q 728 9 810 37 q 555 -18 646 -18 q 282 50 406 -18 q 88 245 155 120 q 33 471 33 350 q 99 705 33 594 q 296 888 170 823 q 549 945 407 945 z "},"H":{"ha":1114,"x_min":18,"x_max":1095,"o":"m 319 941 q 530 853 530 941 q 519 814 530 829 q 478 781 509 800 q 445 739 452 765 q 437 631 437 712 q 455 573 437 584 q 486 565 465 566 q 583 564 507 564 q 670 571 653 564 q 687 608 687 578 q 679 733 687 698 q 647 781 671 768 q 608 810 617 798 q 598 842 598 822 q 619 892 598 869 q 674 923 640 915 q 851 940 745 940 q 1035 917 976 940 q 1095 846 1095 895 q 1053 785 1095 806 q 1018 762 1026 773 q 1005 720 1010 751 q 998 570 1002 703 q 994 357 994 436 q 1004 182 994 220 q 1017 155 1010 162 q 1059 128 1023 149 q 1085 85 1085 114 q 1024 10 1085 33 q 825 -14 962 -14 q 646 10 704 -14 q 594 77 594 32 q 634 138 594 116 q 661 159 654 149 q 675 199 668 170 q 687 339 687 256 q 674 392 687 382 q 609 402 662 402 q 454 389 488 402 q 437 357 441 383 q 433 277 433 324 q 455 165 433 199 q 490 138 463 155 q 519 84 519 121 q 453 12 519 37 q 265 -14 387 -14 q 83 9 154 -14 q 36 38 53 20 q 18 79 18 57 q 29 114 18 102 q 77 145 40 126 q 103 170 96 155 q 115 220 111 184 q 125 427 125 299 q 125 484 125 451 q 122 669 122 646 q 112 746 123 728 q 57 787 102 765 q 27 830 27 802 q 160 925 27 899 q 319 941 237 941 z "},"I":{"ha":574,"x_min":18,"x_max":555,"o":"m 317 940 q 463 926 395 940 q 555 848 555 908 q 546 819 555 829 q 500 790 537 809 q 459 722 469 774 q 449 515 449 669 q 462 195 449 256 q 476 164 467 175 q 511 142 486 154 q 555 83 555 121 q 473 8 555 28 q 254 -14 383 -14 q 33 71 33 -14 q 76 127 33 101 q 115 183 109 148 q 128 511 128 260 q 111 734 128 685 q 65 784 101 762 q 28 814 37 802 q 18 846 18 827 q 46 892 18 875 q 146 923 75 909 q 317 940 231 940 z "},"J":{"ha":871,"x_min":-9,"x_max":861,"o":"m 587 940 q 741 926 663 940 q 833 897 806 916 q 861 844 861 878 q 851 811 861 823 q 807 783 841 800 q 762 735 768 762 q 751 522 756 707 q 748 306 749 342 q 739 236 746 270 q 660 81 720 137 q 534 8 611 35 q 373 -18 458 -18 q 222 1 298 -18 q 91 56 146 21 q 18 133 45 84 q -9 236 -9 181 q 33 348 -9 304 q 140 393 76 393 q 248 355 203 393 q 292 262 292 317 q 283 214 292 248 q 282 199 282 208 q 298 164 282 178 q 339 151 313 151 q 412 191 385 151 q 440 298 440 232 l 439 360 l 438 526 q 429 704 432 677 q 414 748 426 731 q 396 766 404 762 q 353 779 388 770 q 326 798 337 782 q 314 831 314 813 q 343 889 314 867 q 437 925 372 911 q 587 940 509 940 z "},"K":{"ha":1149,"x_min":18,"x_max":1148,"o":"m 811 741 l 739 671 q 699 602 699 633 q 708 568 699 585 q 742 522 717 551 l 996 228 q 1042 178 1029 189 q 1081 156 1055 168 q 1133 121 1118 140 q 1148 72 1148 102 q 1046 0 1148 0 l 789 0 q 747 12 762 0 q 699 68 732 23 q 559 235 646 141 q 506 289 521 276 q 477 301 490 301 q 438 227 438 301 q 464 144 438 167 q 486 129 469 140 q 522 70 522 105 q 463 6 522 25 q 262 -14 403 -14 q 79 1 136 -14 q 39 26 54 8 q 24 66 24 44 q 64 128 24 102 q 91 155 83 140 q 105 204 98 170 q 119 440 119 281 q 104 709 119 630 q 90 756 99 742 q 56 784 80 770 q 18 844 18 806 q 42 897 18 877 q 118 926 66 916 q 292 940 187 940 q 450 920 398 940 q 496 852 496 901 q 489 820 496 831 q 452 785 481 809 q 432 740 441 776 q 422 669 422 704 q 448 612 422 612 q 478 626 464 612 q 537 694 493 640 q 588 780 588 757 q 575 817 588 792 q 566 848 566 833 q 621 919 566 898 q 806 939 675 939 q 960 926 910 939 q 1022 854 1022 909 q 1009 813 1022 832 q 977 789 996 795 q 911 784 963 785 q 858 775 876 783 q 811 741 840 768 z "},"L":{"ha":879,"x_min":18,"x_max":888,"o":"m 463 629 l 463 318 q 481 182 463 213 q 576 146 504 146 q 698 180 653 146 q 760 286 743 214 q 806 330 770 330 q 865 298 842 330 q 888 214 888 266 q 825 35 888 130 q 791 -7 806 4 q 755 -18 776 -18 l 604 0 l 130 0 q 64 11 83 0 q 37 58 37 26 q 46 86 37 77 q 90 112 55 95 q 140 163 129 130 q 149 326 149 191 q 145 505 149 388 q 141 675 142 618 q 133 749 141 729 q 97 778 124 769 q 40 803 52 793 q 18 842 18 820 q 100 917 18 891 q 288 939 170 939 q 484 926 419 939 q 568 852 568 907 q 557 819 568 830 q 503 790 546 808 q 470 751 477 779 q 463 629 463 723 z "},"M":{"ha":1227,"x_min":18,"x_max":1209,"o":"m 699 281 l 617 98 q 583 36 596 52 q 555 20 570 20 q 528 33 540 20 q 494 93 521 41 q 450 184 467 144 l 360 386 q 321 428 342 428 q 298 392 300 428 q 293 244 293 312 q 300 149 293 174 q 312 127 304 134 q 355 102 320 120 q 377 62 377 91 q 182 -14 377 -14 q 18 60 18 -14 q 27 88 18 79 q 71 113 35 96 q 101 141 93 123 q 114 210 109 159 q 125 388 120 264 q 131 600 131 511 q 114 749 131 710 q 100 770 108 763 q 71 787 92 777 q 22 847 22 810 q 40 890 22 871 q 88 918 58 910 q 168 933 118 927 q 252 940 218 940 q 375 926 339 940 q 403 907 393 919 q 432 860 413 896 l 573 600 q 605 548 596 557 q 629 538 614 538 q 653 549 643 538 q 678 587 664 559 l 774 773 q 797 820 791 809 q 863 910 830 888 q 1013 939 904 939 q 1205 852 1205 939 q 1198 820 1205 832 q 1167 791 1190 808 q 1128 723 1136 768 q 1112 495 1112 629 q 1128 192 1112 322 q 1141 149 1133 160 q 1185 114 1149 137 q 1209 71 1209 98 q 1146 3 1209 23 q 1078 -11 1114 -7 q 967 -14 1042 -14 q 796 2 852 -14 q 734 64 734 20 q 742 91 734 81 q 784 130 750 102 q 808 184 802 144 q 814 323 814 225 q 809 394 814 377 q 788 411 804 411 q 751 385 769 411 q 699 281 734 359 z "},"N":{"ha":1153,"x_min":18,"x_max":1134,"o":"m 400 893 l 738 597 q 806 556 785 556 q 842 631 842 556 q 831 748 842 717 q 789 795 821 779 q 751 822 762 808 q 741 860 741 837 q 819 933 741 917 q 930 940 850 940 q 1072 928 1032 940 q 1134 856 1134 909 q 1083 789 1134 812 q 1055 774 1063 781 q 1042 753 1048 767 q 1023 584 1024 709 l 1023 363 q 1024 224 1023 312 q 1010 52 1025 104 q 943 -14 991 -14 q 907 -5 922 -14 q 857 35 892 3 l 454 395 q 385 433 412 433 q 343 319 343 433 q 354 190 343 224 q 397 139 364 155 q 442 81 442 117 q 239 -14 442 -14 q 97 11 148 -14 q 47 79 47 35 q 56 113 47 102 q 99 144 66 125 q 138 212 131 163 q 149 463 149 299 q 129 718 149 638 q 110 762 121 747 q 72 789 98 776 q 30 818 41 804 q 18 852 18 832 q 130 935 18 918 q 262 940 168 940 q 341 931 317 940 q 400 893 366 923 z "},"O":{"ha":1081,"x_min":33,"x_max":1049,"o":"m 548 945 q 852 845 722 945 q 996 667 941 777 q 1049 450 1049 559 q 943 164 1049 290 q 709 10 854 57 q 531 -18 621 -18 q 307 31 414 -18 q 104 209 177 90 q 33 463 33 324 q 124 748 33 625 q 343 909 205 858 q 548 945 435 945 m 484 750 q 393 699 427 750 q 368 609 368 661 q 399 432 368 532 q 477 253 430 331 q 529 200 498 220 q 592 180 560 180 q 675 219 644 180 q 707 321 707 258 q 680 498 707 403 q 612 660 654 593 q 552 725 586 701 q 484 750 518 749 z "},"P":{"ha":950,"x_min":18,"x_max":931,"o":"m 140 319 l 140 676 q 131 764 140 745 q 79 794 121 783 q 18 855 18 812 q 44 902 18 886 q 119 918 70 918 q 199 916 135 918 l 240 916 q 372 918 353 917 q 510 930 391 919 q 582 934 549 934 q 780 888 693 934 q 931 639 931 810 q 825 417 931 500 q 584 339 726 339 q 496 344 548 339 q 461 346 468 346 q 441 323 441 346 l 441 319 l 446 208 q 458 160 448 176 q 501 127 469 144 q 545 75 545 103 q 480 9 545 33 q 296 -14 415 -14 q 45 73 45 -14 q 56 104 45 93 q 106 135 66 115 q 135 171 131 148 q 140 319 139 194 m 446 762 l 446 532 q 458 500 446 505 q 507 490 477 490 q 583 515 552 490 q 627 636 627 551 q 575 764 627 724 q 496 789 543 789 q 446 762 446 789 z "},"Q":{"ha":1085,"x_min":33,"x_max":1053,"o":"m 547 945 q 753 901 646 945 q 973 709 893 844 q 1047 448 1047 583 q 958 175 1047 297 q 857 75 918 118 q 734 14 797 32 q 718 1 718 9 q 778 -42 718 -24 q 915 -60 838 -60 q 1005 -41 962 -60 q 1021 -37 1014 -37 q 1042 -54 1031 -37 q 1053 -88 1053 -71 q 1010 -161 1053 -123 q 896 -224 966 -201 q 751 -247 825 -247 q 561 -214 663 -247 q 263 -88 459 -180 q 185 -60 229 -71 q 113 -49 142 -49 q 90 -51 104 -49 q 77 -52 83 -52 q 56 -40 64 -52 q 47 -12 47 -29 q 68 40 47 19 q 148 73 100 73 l 184 72 q 199 85 199 72 q 172 128 199 96 q 79 264 109 201 q 33 470 33 362 q 108 725 33 612 q 320 895 181 834 q 547 945 434 945 m 480 748 q 396 712 427 748 q 366 612 366 675 q 390 448 366 536 q 456 280 414 359 q 594 174 511 174 q 683 212 648 174 q 718 307 718 249 q 690 479 718 382 q 621 650 663 576 q 480 748 567 745 z "},"R":{"ha":1078,"x_min":18,"x_max":1069,"o":"m 471 389 q 438 374 445 389 q 431 301 431 358 q 441 167 431 215 q 452 146 445 153 q 477 127 458 138 q 518 68 518 105 q 461 5 518 24 q 270 -14 405 -14 q 19 81 19 -14 q 26 107 19 98 q 60 135 34 117 q 101 181 90 155 q 115 274 111 208 q 119 619 119 322 q 109 747 119 713 q 68 797 100 781 q 28 823 39 811 q 18 854 18 835 q 38 898 18 879 q 92 925 57 916 q 172 932 121 932 q 283 926 194 932 q 337 924 300 924 q 500 932 398 924 q 590 937 564 937 q 830 867 735 937 q 916 692 916 804 q 886 579 916 630 q 804 502 856 528 q 782 476 782 491 q 815 444 782 456 q 920 366 886 418 q 967 206 953 314 q 985 148 973 161 q 1038 123 996 135 q 1060 105 1051 119 q 1069 76 1069 92 q 1053 34 1069 55 q 1010 0 1036 12 q 854 -26 954 -26 q 665 43 722 -26 q 622 122 640 75 q 579 270 604 170 q 539 361 564 334 q 471 389 515 387 m 431 735 l 424 577 q 424 571 424 575 q 431 538 424 547 q 460 530 438 530 q 547 561 519 530 q 574 660 574 592 q 481 791 574 791 q 444 779 454 791 q 431 735 433 766 z "},"S":{"ha":896,"x_min":28,"x_max":868,"o":"m 437 945 q 620 910 507 945 q 642 906 633 906 q 682 918 648 906 q 705 922 693 922 q 801 850 751 922 q 852 713 852 779 q 829 649 852 675 q 774 623 806 623 q 730 634 747 623 q 655 699 713 645 q 495 774 574 774 q 434 756 457 774 q 412 708 412 738 q 515 619 412 649 q 695 559 656 578 q 868 311 868 475 q 750 75 868 167 q 435 -18 629 -18 q 252 2 348 -18 q 113 51 155 23 q 54 145 80 73 q 28 288 28 218 q 41 338 28 321 q 84 359 58 359 q 134 333 110 359 q 201 237 148 318 q 280 174 226 199 q 393 149 335 149 q 475 168 444 149 q 506 216 506 186 q 481 262 506 243 q 402 299 457 282 q 254 355 305 330 q 159 419 203 380 q 52 635 52 514 q 80 751 52 694 q 159 849 108 808 q 437 945 273 945 z "},"T":{"ha":973,"x_min":0,"x_max":974,"o":"m 317 926 l 674 926 q 779 941 732 928 q 815 947 800 947 q 922 865 870 947 q 974 698 974 784 q 938 612 974 639 q 873 591 911 591 q 810 611 837 591 q 758 677 784 631 q 723 732 736 720 q 692 745 710 745 q 656 724 667 745 q 645 655 645 703 l 645 275 q 657 191 645 217 q 703 150 669 164 q 753 120 740 134 q 766 82 766 106 q 700 9 766 33 q 497 -14 634 -14 q 248 14 329 -14 q 179 88 179 37 q 203 132 179 116 q 252 148 210 135 q 287 176 277 155 q 303 257 297 197 q 313 428 309 310 q 318 633 318 547 q 309 720 318 694 q 277 746 299 746 q 226 708 251 746 q 151 616 180 639 q 84 590 117 590 q 24 617 47 590 q 0 688 0 645 q 19 780 0 730 q 70 873 38 831 q 172 943 121 943 q 203 939 185 943 q 263 928 239 931 q 317 926 286 926 z "},"U":{"ha":1139,"x_min":18,"x_max":1120,"o":"m 1021 587 l 1021 421 q 999 209 1021 271 q 787 18 951 77 q 564 -18 688 -18 q 215 85 346 -18 q 127 203 151 136 q 102 397 102 271 q 106 560 102 447 q 108 666 108 640 q 99 744 108 722 q 62 785 91 766 q 18 850 18 814 q 40 897 18 876 q 100 924 63 917 q 277 939 175 939 q 463 922 389 939 q 535 848 535 906 q 514 803 535 820 q 473 782 509 799 q 444 747 452 772 q 436 665 436 722 q 431 410 436 606 q 494 232 427 293 q 633 182 548 182 q 732 202 688 182 q 799 256 776 222 q 824 315 817 283 q 831 404 831 348 l 831 553 q 821 754 827 725 q 777 801 814 784 q 729 829 742 817 q 716 861 716 842 q 765 921 716 902 q 920 939 813 939 q 1073 921 1025 939 q 1120 863 1120 903 q 1112 833 1120 843 q 1069 804 1103 824 q 1028 761 1033 784 q 1021 587 1023 737 z "},"V":{"ha":1115,"x_min":0,"x_max":1124,"o":"m 961 715 l 650 85 q 595 5 621 27 q 530 -17 570 -17 q 472 -3 498 -17 q 441 23 452 8 q 413 75 430 37 l 136 686 q 94 756 113 738 q 41 781 75 775 q 0 831 0 789 q 71 912 0 884 q 275 940 142 940 q 479 919 414 940 q 544 854 544 898 q 509 801 544 825 q 481 766 481 783 q 494 724 481 751 l 578 532 q 620 490 597 490 q 660 513 642 490 q 707 601 677 535 q 770 740 761 719 q 779 773 779 762 q 747 812 779 796 q 711 859 711 831 q 928 940 711 940 q 1080 923 1036 940 q 1124 863 1124 905 q 1066 806 1124 813 q 1013 792 1025 801 q 961 715 991 777 z "},"W":{"ha":1444,"x_min":0,"x_max":1453,"o":"m 630 685 l 610 732 q 565 787 592 774 q 516 852 516 813 q 777 939 516 939 q 975 918 907 939 q 1011 895 998 911 q 1025 859 1025 878 q 1019 833 1025 842 q 983 798 1013 824 q 966 768 966 784 q 992 690 966 745 l 1031 607 q 1068 535 1057 551 q 1094 520 1080 520 q 1121 538 1109 520 q 1149 607 1132 555 l 1182 702 q 1196 763 1196 743 q 1167 799 1196 790 q 1110 864 1110 817 q 1154 922 1110 905 q 1299 940 1198 940 q 1402 925 1365 940 q 1453 860 1453 905 q 1443 826 1453 840 q 1407 788 1434 812 q 1378 755 1388 772 q 1348 682 1369 737 l 1230 367 q 1122 104 1141 146 q 1084 29 1104 62 q 1051 -5 1069 5 q 1002 -15 1033 -15 q 937 3 962 -15 q 895 61 912 20 l 761 380 q 745 413 750 406 q 730 420 739 420 q 705 403 715 420 q 667 315 695 386 l 574 86 q 525 4 549 24 q 454 -16 502 -16 q 387 4 412 -16 q 342 76 362 24 l 92 714 q 71 761 77 753 q 35 784 65 768 q 0 844 0 802 q 237 939 0 939 q 413 922 359 939 q 465 855 465 905 q 463 832 465 840 q 443 801 460 825 q 435 769 435 788 q 480 628 435 735 l 508 563 q 531 514 526 522 q 548 505 537 505 q 602 581 574 505 l 630 658 q 633 671 633 666 q 630 685 633 676 z "},"X":{"ha":1104,"x_min":0,"x_max":1104,"o":"m 705 543 l 964 218 q 1000 179 987 189 q 1036 161 1013 169 q 1089 134 1074 149 q 1104 92 1104 118 q 1087 46 1104 68 q 1044 15 1070 25 q 942 -7 1003 -1 q 772 -14 881 -14 q 599 -1 656 -14 q 545 26 565 7 q 526 67 526 44 q 553 115 526 96 q 580 144 580 132 q 501 282 580 178 q 484 295 491 295 q 468 284 477 295 q 411 205 435 245 q 386 155 386 166 q 414 122 386 144 q 441 71 441 102 q 388 7 441 24 q 223 -14 319 -14 q 56 4 115 -14 q 16 32 33 12 q 0 75 0 52 q 20 121 0 104 q 77 140 40 138 q 153 166 122 141 q 262 290 184 192 l 367 421 q 376 438 376 432 q 367 453 376 442 l 193 675 q 140 739 153 728 q 98 760 127 751 q 45 783 58 772 q 22 833 22 804 q 119 916 22 895 q 349 939 220 939 q 532 922 484 939 q 566 896 553 914 q 578 856 578 878 q 553 804 578 822 q 535 790 538 793 q 532 779 532 787 q 557 731 532 764 q 594 699 582 699 q 633 733 605 699 q 662 781 662 768 q 658 793 662 789 q 632 814 654 798 q 612 859 612 829 q 665 921 612 902 q 837 940 718 940 q 972 926 924 940 q 1031 855 1031 908 q 1001 802 1031 820 q 937 792 989 795 q 868 762 903 789 q 785 675 832 735 l 705 574 q 696 557 696 563 q 705 543 696 553 z "},"Y":{"ha":1083,"x_min":0,"x_max":1083,"o":"m 298 940 q 500 926 431 940 q 552 902 532 920 q 571 861 571 884 q 556 825 571 843 q 534 785 534 797 q 573 707 534 760 q 621 672 598 672 q 648 683 635 672 q 684 720 662 693 q 710 773 710 753 q 707 791 710 785 q 685 821 704 798 q 671 863 671 836 q 879 939 671 939 q 1031 928 996 939 q 1068 903 1054 922 q 1083 862 1083 884 q 1066 820 1083 834 q 1007 798 1049 806 q 940 769 968 791 q 836 665 911 747 q 721 518 743 566 q 698 378 698 471 q 704 232 698 299 q 717 175 707 191 q 756 143 726 159 q 806 79 806 117 q 533 -14 806 -14 q 321 8 421 -14 q 237 81 237 26 q 289 141 237 123 q 337 176 328 155 q 359 397 359 222 q 348 481 359 451 q 300 559 337 511 q 142 739 224 659 q 75 786 107 774 q 19 811 28 803 q 0 854 0 827 q 68 920 0 900 q 298 940 137 940 z "},"Z":{"ha":953,"x_min":9,"x_max":943,"o":"m 851 819 l 551 302 q 500 196 500 214 q 593 165 500 165 q 665 173 629 165 q 719 191 702 180 q 787 289 753 214 q 814 329 801 318 q 848 340 827 340 q 920 313 896 340 q 943 233 943 286 q 886 44 943 125 q 810 -12 846 -12 q 783 -9 800 -12 q 690 0 734 0 l 100 0 q 53 1 60 0 q 37 11 45 3 q 23 49 23 25 q 42 103 23 71 l 391 695 q 407 732 407 722 q 330 770 407 770 q 234 749 263 770 q 167 650 204 727 q 101 591 138 591 q 37 625 65 591 q 9 701 9 658 q 67 867 9 770 q 133 935 108 935 q 151 931 139 935 q 330 917 191 917 q 616 930 393 917 q 810 941 806 941 q 858 924 840 941 q 876 880 876 907 q 851 819 876 861 z "},"[":{"ha":692,"x_min":171,"x_max":656,"o":"m 425 712 l 425 -50 q 439 -130 425 -113 q 511 -146 454 -146 q 561 -143 526 -146 q 593 -141 580 -141 q 639 -154 622 -141 q 656 -188 656 -167 q 645 -222 656 -205 q 615 -245 633 -239 q 404 -264 569 -264 q 219 -244 250 -264 q 171 -50 171 -214 l 171 721 q 216 918 171 886 q 395 940 246 940 q 575 931 515 940 q 654 867 654 920 q 583 818 654 818 q 538 821 574 818 q 496 822 517 822 q 436 805 447 822 q 425 712 425 787 z "},"\\":{"ha":655,"x_min":54,"x_max":712,"o":"m 433 33 l 189 589 q 71 831 151 677 q 54 886 54 863 q 167 939 54 939 q 212 927 197 939 q 239 877 226 914 q 271 798 250 847 q 334 643 298 734 l 578 85 q 641 -48 608 16 q 703 -170 694 -151 q 712 -206 712 -190 q 675 -250 712 -235 q 605 -264 642 -264 q 541 -227 564 -264 q 500 -127 532 -211 q 433 33 483 -80 z "},"]":{"ha":692,"x_min":37,"x_max":522,"o":"m 269 -37 l 269 725 q 254 806 269 789 q 182 823 239 823 q 132 819 166 823 q 100 817 113 817 q 54 829 71 817 q 37 863 37 842 q 48 898 37 882 q 78 922 60 915 q 290 940 124 940 q 474 920 444 940 q 522 725 522 890 l 522 -45 q 477 -242 522 -210 q 298 -264 447 -264 q 118 -255 178 -264 q 39 -191 39 -243 q 111 -142 39 -142 q 155 -144 121 -142 q 197 -146 178 -146 q 257 -129 246 -146 q 269 -37 269 -111 z "},"^":{"ha":694,"x_min":-1,"x_max":695,"o":"m 262 455 l -1 455 l 180 934 l 515 934 l 695 455 l 433 455 l 348 730 l 262 455 z "},"_":{"ha":694,"x_min":0,"x_max":694,"o":"m 0 -74 l 694 -74 l 694 -248 l 0 -248 l 0 -74 z "},"`":{"ha":694,"x_min":106,"x_max":460,"o":"m 268 970 q 347 959 316 970 q 378 930 378 947 q 371 911 378 924 q 368 899 368 905 q 374 883 368 890 q 412 853 381 876 q 453 818 446 827 q 460 791 460 809 q 390 741 460 741 q 163 820 266 741 q 106 896 106 864 q 152 949 106 928 q 268 970 198 970 z "},"a":{"ha":787,"x_min":18,"x_max":769,"o":"m 413 676 q 613 616 531 676 q 674 544 656 585 q 691 431 691 503 l 690 330 q 705 193 690 224 q 719 174 712 178 q 747 167 726 170 q 769 138 769 163 q 743 71 769 106 q 675 12 717 35 q 569 -18 625 -18 q 456 31 498 -18 q 430 48 442 48 q 394 31 416 48 q 240 -18 326 -18 q 96 20 151 -18 q 39 85 60 45 q 18 170 18 125 q 75 294 18 240 q 341 380 164 380 q 391 388 380 380 q 401 425 401 396 q 386 529 401 496 q 337 561 371 561 q 301 549 317 561 q 261 504 285 536 q 135 418 201 418 q 81 437 102 418 q 60 489 60 457 q 86 554 60 522 q 157 611 112 587 q 413 676 279 676 m 368 283 q 316 259 338 283 q 294 201 294 235 q 309 148 294 168 q 351 128 325 128 q 405 220 405 128 q 397 270 405 257 q 368 283 389 283 z "},"b":{"ha":878,"x_min":-5,"x_max":855,"o":"m 395 885 l 386 621 q 386 606 386 611 q 395 592 386 592 q 422 610 399 592 q 597 675 501 675 q 764 607 692 675 q 855 382 855 521 q 708 67 855 185 q 460 -18 602 -18 q 333 0 389 -18 q 209 61 276 18 q 193 67 199 67 q 151 54 185 67 q 109 47 133 47 q 67 75 67 47 q 71 95 67 83 q 89 204 84 139 q 94 410 94 269 l 94 597 q 88 685 94 667 q 58 713 83 703 q 9 742 22 728 q -5 779 -5 757 q 92 868 -5 825 q 224 908 145 891 q 359 926 303 926 q 395 885 395 926 m 453 471 q 400 446 416 471 q 387 369 387 427 q 398 154 387 210 q 456 102 408 102 q 531 144 505 102 q 557 267 557 186 q 513 439 557 385 q 453 471 488 470 z "},"c":{"ha":731,"x_min":23,"x_max":713,"o":"m 412 675 q 625 615 533 675 q 713 472 713 557 q 672 376 713 413 q 581 342 634 342 q 496 382 524 342 q 470 448 487 395 q 400 505 452 505 q 337 473 363 505 q 312 393 312 440 q 370 248 312 311 q 490 197 418 197 q 547 203 524 197 q 607 227 570 209 q 628 231 616 231 q 669 210 651 231 q 686 159 686 188 q 661 95 686 128 q 595 36 636 61 q 387 -18 507 -18 q 149 63 248 -18 q 23 326 23 166 q 140 579 23 479 q 412 675 252 675 z "},"d":{"ha":903,"x_min":22,"x_max":889,"o":"m 819 871 l 819 252 q 823 184 819 199 q 848 155 827 170 q 881 125 872 138 q 889 94 889 113 q 780 12 889 40 q 583 -14 682 -14 q 555 -7 562 -14 q 547 24 549 -1 q 522 58 543 58 q 486 38 511 58 q 332 -18 417 -18 q 143 60 227 -18 q 63 168 94 106 q 22 328 22 247 q 75 513 22 424 q 208 639 124 595 q 347 675 279 675 q 488 640 426 675 q 505 635 498 635 q 526 693 526 635 q 514 731 526 718 q 472 754 503 745 q 429 802 429 768 q 528 879 429 851 q 760 927 701 927 q 819 871 819 927 m 450 530 q 380 484 406 530 q 346 319 346 421 q 379 180 346 227 q 444 146 403 146 q 508 198 488 146 q 528 363 528 249 q 504 502 528 467 q 450 530 486 529 z "},"e":{"ha":736,"x_min":23,"x_max":718,"o":"m 652 304 l 334 304 q 313 286 313 304 q 360 202 313 241 q 463 163 408 163 q 535 176 496 163 q 601 207 575 189 q 637 223 624 223 q 672 201 655 223 q 689 157 689 180 q 628 62 689 108 q 379 -18 520 -18 q 140 64 237 -18 q 63 163 94 105 q 23 324 23 239 q 92 529 23 438 q 244 646 152 608 q 394 675 313 675 q 613 602 523 675 q 686 515 659 566 q 718 404 718 458 q 700 332 718 360 q 652 304 682 304 m 351 431 l 420 431 q 463 471 463 431 q 442 530 463 507 q 387 553 421 553 q 328 524 349 553 q 307 467 307 496 q 317 439 307 447 q 351 431 327 431 z "},"f":{"ha":589,"x_min":9,"x_max":591,"o":"m 425 549 l 509 549 q 539 543 530 549 q 547 522 549 536 l 542 441 q 534 410 541 416 q 507 404 528 404 q 485 405 503 404 q 465 406 473 406 q 426 387 436 406 q 416 316 416 368 q 431 196 416 245 q 449 165 437 175 q 487 148 460 155 q 547 82 547 130 q 477 9 547 31 q 249 -14 408 -14 q 14 80 14 -14 q 23 114 14 103 q 66 139 33 125 q 110 199 102 155 q 121 342 121 266 q 110 389 121 376 q 66 401 98 402 q 20 405 30 401 q 10 423 9 409 l 16 509 q 23 535 17 530 q 55 541 28 540 q 80 566 80 543 q 62 609 80 575 q 31 722 31 665 q 87 857 31 804 q 327 933 171 933 q 532 873 455 933 q 591 765 591 826 q 562 691 591 721 q 489 661 532 661 q 395 694 440 661 q 344 748 385 703 q 286 779 315 779 q 253 766 267 779 q 239 732 239 752 q 341 618 239 679 q 384 588 372 599 q 404 557 395 577 q 425 549 408 549 z "},"g":{"ha":803,"x_min":18,"x_max":793,"o":"m 747 712 q 777 693 764 712 q 789 648 789 673 q 772 585 789 620 q 730 528 755 549 q 715 507 715 515 q 716 490 715 505 q 718 465 718 476 q 664 329 718 384 q 538 253 615 280 q 369 226 461 226 q 325 229 347 226 q 298 231 307 231 q 262 195 262 231 q 285 158 262 172 q 349 145 309 145 q 429 153 376 145 q 593 168 540 168 q 717 142 673 168 q 773 85 752 121 q 793 6 793 48 q 743 -127 793 -62 q 568 -239 684 -203 q 357 -268 477 -268 q 113 -222 207 -268 q 44 -165 70 -200 q 18 -92 18 -130 q 33 -43 18 -65 q 70 -11 47 -20 q 90 7 90 -3 q 73 28 90 14 q 19 123 19 74 q 45 190 19 155 q 110 243 71 224 q 126 260 126 252 q 106 288 126 269 q 36 439 36 353 q 61 526 36 484 q 130 596 85 567 q 372 667 239 667 q 490 654 425 667 q 574 642 551 642 q 722 700 648 642 q 747 712 738 712 m 378 572 q 324 546 345 572 q 303 477 303 520 q 326 360 303 404 q 385 316 348 316 q 441 343 420 316 q 463 417 463 371 q 440 530 463 490 q 378 572 418 570 m 231 -45 q 214 -65 214 -45 q 257 -130 214 -105 q 370 -155 300 -155 q 474 -137 436 -155 q 511 -87 511 -119 q 497 -59 511 -71 q 462 -47 483 -47 q 431 -50 451 -47 q 346 -56 393 -56 q 279 -52 311 -56 q 241 -47 256 -50 q 231 -45 234 -45 z "},"h":{"ha":943,"x_min":14,"x_max":928,"o":"m 403 892 l 394 608 q 425 557 393 557 q 457 580 441 557 q 633 675 523 675 q 804 610 741 675 q 845 541 833 581 q 858 426 857 500 l 864 181 q 872 134 865 149 q 909 97 880 119 q 928 60 928 81 q 707 -14 928 -14 q 511 55 511 -14 q 514 73 511 66 q 538 105 517 79 q 566 292 566 142 q 549 423 566 382 q 469 479 527 479 q 408 450 428 479 q 394 368 394 428 l 394 237 q 402 139 399 151 q 433 96 406 127 q 446 63 446 82 q 247 -14 446 -14 q 14 66 14 -14 q 21 94 14 84 q 58 124 28 104 q 93 223 83 142 q 103 489 103 303 q 95 691 103 635 q 85 722 92 712 q 58 742 78 732 q 16 792 16 764 q 48 847 16 826 q 170 892 80 868 q 365 926 292 926 q 403 892 404 926 z "},"i":{"ha":495,"x_min":14,"x_max":481,"o":"m 403 629 l 403 235 q 411 166 403 188 q 446 126 420 144 q 474 101 467 111 q 481 74 481 90 q 259 -14 481 -14 q 70 5 140 -14 q 32 29 46 12 q 17 68 17 46 q 24 96 17 86 q 62 129 32 106 q 92 180 83 144 q 101 285 101 215 q 98 369 101 307 q 94 440 95 430 q 56 483 90 468 q 14 537 14 501 q 68 601 14 580 q 231 650 144 630 q 366 671 318 671 q 403 629 403 671 m 269 926 q 362 904 328 926 q 397 844 397 882 q 345 762 397 792 q 144 713 262 713 q 66 732 95 713 q 26 800 26 757 q 110 892 26 859 q 269 926 195 926 z "},"j":{"ha":513,"x_min":-5,"x_max":420,"o":"m 420 617 l 420 16 q 406 -125 420 -75 q 357 -203 392 -174 q 266 -251 322 -233 q 151 -269 209 -269 q 40 -242 84 -269 q -5 -176 -5 -216 q 8 -146 -5 -159 q 38 -133 20 -133 q 60 -135 46 -133 q 77 -137 73 -137 q 99 -125 89 -137 q 109 -100 109 -114 q 106 -81 109 -93 q 102 -34 102 -56 l 102 397 q 91 444 102 427 q 55 471 81 461 q 16 518 16 487 q 47 580 16 554 q 149 629 79 606 q 271 658 199 644 q 378 671 343 671 q 411 659 401 671 q 420 617 420 647 m 277 926 q 370 904 336 926 q 405 844 405 882 q 353 762 405 792 q 153 713 270 713 q 74 732 104 713 q 35 800 35 758 q 118 892 35 859 q 277 926 203 926 z "},"k":{"ha":1019,"x_min":14,"x_max":1019,"o":"m 418 892 l 412 680 q 412 587 412 648 q 414 506 412 518 q 442 478 418 478 q 505 504 463 478 q 547 543 547 530 q 532 570 547 551 q 521 597 521 585 q 701 671 521 671 q 849 652 795 671 q 885 626 871 644 q 899 587 899 608 q 870 544 899 556 q 831 535 864 541 q 753 498 801 530 q 706 452 706 467 q 763 363 706 443 q 870 224 821 283 q 920 170 902 186 q 970 137 938 155 q 1019 77 1019 111 q 988 20 1019 41 q 903 0 957 0 l 684 0 q 619 31 642 1 l 507 175 q 452 243 462 232 q 435 254 442 254 q 425 241 427 254 q 422 195 422 229 q 429 151 422 165 q 460 117 435 137 q 477 75 477 103 q 427 7 477 28 q 262 -14 377 -14 q 85 -3 126 -14 q 46 25 62 4 q 30 68 30 45 q 58 113 30 94 q 90 137 83 129 q 100 163 96 145 q 115 456 116 258 l 115 604 q 107 701 115 680 q 69 726 100 722 q 14 772 14 734 q 38 819 14 798 q 118 860 62 840 q 381 926 296 926 q 418 892 420 926 z "},"l":{"ha":507,"x_min":13,"x_max":493,"o":"m 413 538 l 413 320 q 417 152 413 176 q 451 115 422 128 q 485 95 476 104 q 493 68 493 85 q 477 27 493 45 q 435 1 461 9 q 270 -14 386 -14 q 86 6 139 -14 q 46 34 62 15 q 31 73 31 52 q 39 98 31 89 q 76 119 47 106 q 109 182 102 130 q 119 433 119 270 q 110 646 119 598 q 62 716 100 693 q 23 747 34 732 q 13 783 13 762 q 45 841 13 816 q 146 886 77 865 q 268 913 193 901 q 376 926 342 926 q 430 860 430 926 q 423 760 430 838 q 413 538 414 639 z "},"m":{"ha":1339,"x_min":14,"x_max":1325,"o":"m 355 671 q 393 616 393 671 q 393 604 393 615 q 393 587 393 593 q 414 550 393 550 q 450 579 426 550 q 543 646 487 621 q 656 671 598 671 q 814 588 770 671 q 842 557 831 557 q 877 585 849 557 q 1077 671 965 671 q 1220 623 1164 671 q 1278 472 1278 572 q 1277 399 1278 450 q 1276 292 1276 381 q 1275 212 1276 235 q 1274 192 1274 198 q 1301 116 1274 149 q 1321 90 1318 96 q 1325 73 1325 83 q 1121 -14 1325 -14 q 976 7 1031 -14 q 920 64 920 29 q 924 85 920 78 q 950 123 928 92 q 971 308 971 151 q 958 435 971 399 q 899 478 943 478 q 859 464 876 478 q 836 429 842 450 q 829 299 830 405 q 837 161 831 185 q 871 93 842 136 q 878 67 878 83 q 667 -14 878 -14 q 496 5 540 -14 q 460 58 460 20 q 465 82 460 75 q 495 113 469 89 q 514 140 510 127 q 521 186 519 153 q 526 336 526 260 q 458 469 526 469 q 397 412 407 469 q 389 259 389 359 q 392 161 389 184 q 409 113 395 138 q 425 66 425 84 q 363 5 425 22 q 216 -14 296 -14 q 62 3 111 -14 q 14 56 14 20 q 20 79 14 69 q 50 109 26 88 q 85 185 80 136 q 92 359 92 269 q 86 449 92 424 q 58 490 79 475 q 32 514 38 506 q 26 536 26 522 q 98 608 26 582 q 355 671 269 670 z "},"n":{"ha":932,"x_min":14,"x_max":918,"o":"m 848 425 l 858 186 q 866 146 859 159 q 908 97 873 134 q 918 66 918 86 q 865 4 918 22 q 673 -14 811 -14 q 541 3 580 -14 q 501 58 501 20 q 505 78 501 71 q 532 109 509 84 q 559 299 559 138 q 538 437 559 393 q 473 473 520 473 q 410 444 427 473 q 393 338 393 415 l 393 204 q 398 149 393 164 q 432 92 404 134 q 439 64 439 79 q 384 5 439 24 q 210 -14 328 -14 q 22 64 22 -14 q 27 89 22 80 q 55 113 33 97 q 77 142 73 125 q 86 224 82 159 q 91 386 91 301 q 84 447 91 433 q 43 483 77 462 q 14 528 14 501 q 37 572 14 555 q 135 616 61 589 q 260 655 200 639 q 343 671 321 671 q 377 656 363 671 q 391 621 391 641 q 391 604 391 618 q 390 594 390 598 q 417 562 390 562 q 452 587 433 562 q 621 671 510 671 q 768 627 707 671 q 827 552 810 595 q 848 425 844 509 z "},"o":{"ha":836,"x_min":23,"x_max":813,"o":"m 446 676 q 663 612 570 676 q 771 492 730 566 q 813 330 813 414 q 678 80 813 183 q 383 -18 549 -18 q 121 74 221 -18 q 23 307 23 163 q 142 569 23 467 q 446 676 267 676 m 391 519 q 343 497 361 519 q 326 439 326 475 q 341 328 326 398 q 377 203 356 258 q 446 148 398 148 q 506 224 506 148 q 491 354 506 281 q 454 472 475 427 q 391 519 431 518 z "},"p":{"ha":924,"x_min":14,"x_max":901,"o":"m 358 672 q 410 665 399 672 q 420 629 420 658 q 436 604 420 604 q 481 630 443 604 q 556 663 511 650 q 637 676 601 676 q 791 616 724 676 q 871 502 843 571 q 901 349 901 429 q 786 68 901 178 q 584 -18 697 -18 q 465 9 526 -18 q 446 14 453 14 q 425 -26 425 14 q 461 -104 425 -80 q 501 -134 494 -126 q 507 -160 507 -142 q 462 -223 507 -201 q 334 -245 416 -245 q 76 -186 186 -245 q 20 -112 20 -156 q 28 -81 20 -92 q 61 -59 37 -71 q 104 0 96 -43 q 116 245 112 43 q 104 433 111 412 q 96 441 101 439 q 62 449 91 444 q 27 469 41 453 q 14 507 14 485 q 33 555 14 534 q 94 595 52 576 q 358 672 260 671 m 425 416 l 415 229 q 414 207 414 218 q 433 173 414 186 q 481 160 451 160 q 575 314 575 160 q 536 454 575 414 q 477 479 511 479 q 425 416 429 479 z "},"q":{"ha":900,"x_min":23,"x_max":886,"o":"m 420 675 q 492 671 465 675 q 600 648 519 667 q 642 644 621 644 q 713 661 666 644 q 781 675 755 675 q 841 627 841 675 q 836 567 841 602 q 821 372 827 504 q 814 131 814 239 q 821 -59 814 -3 q 831 -94 825 -84 q 858 -120 837 -104 q 886 -174 886 -142 q 707 -260 886 -260 q 481 -222 572 -260 q 431 -188 450 -210 q 412 -144 412 -166 q 421 -115 412 -124 q 465 -88 430 -105 q 505 -8 505 -68 q 487 26 505 26 q 431 3 477 26 q 321 -18 387 -18 q 109 77 189 -18 q 23 333 23 180 q 133 582 23 488 q 420 675 242 675 m 440 527 q 386 495 411 527 q 353 367 353 453 q 389 202 353 262 q 458 153 418 153 q 505 186 492 153 q 517 320 517 220 q 510 452 517 413 q 485 509 503 491 q 440 527 465 526 z "},"r":{"ha":743,"x_min":14,"x_max":733,"o":"m 342 671 q 386 661 378 671 q 400 596 394 651 q 421 566 404 566 q 447 586 435 566 q 589 671 501 671 q 690 631 650 671 q 721 580 709 611 q 733 521 733 549 q 718 455 733 489 q 680 400 703 422 q 573 359 636 359 q 515 371 538 359 q 454 420 492 383 q 427 435 439 435 q 402 413 408 435 q 397 323 397 392 q 404 184 397 221 q 417 156 409 163 q 454 140 426 148 q 515 76 515 121 q 495 27 515 48 q 443 0 475 7 q 252 -14 378 -14 q 69 7 132 -14 q 14 73 14 26 q 54 136 14 109 q 81 160 74 149 q 92 189 89 170 q 102 417 102 250 q 96 461 102 448 q 68 482 89 474 q 20 537 20 501 q 54 593 20 570 q 165 640 87 616 q 342 671 269 671 z "},"s":{"ha":662,"x_min":28,"x_max":629,"o":"m 297 675 q 408 661 331 675 q 433 658 423 658 q 478 670 445 658 q 505 676 494 676 q 568 636 536 676 q 610 566 593 604 q 626 500 626 528 q 607 455 626 473 q 559 437 588 437 q 517 449 536 437 q 457 500 498 460 q 385 542 414 542 q 352 528 366 542 q 338 495 338 514 q 402 433 338 462 q 578 320 517 381 q 629 194 629 269 q 547 37 629 100 q 372 -18 475 -18 q 276 -9 346 -18 q 202 -2 210 -2 q 182 -4 193 -2 q 153 -7 162 -7 q 103 9 121 -7 q 52 89 75 35 q 28 181 28 142 q 77 243 28 243 q 112 231 96 243 q 178 164 127 218 q 224 123 206 134 q 264 112 243 112 q 300 124 286 112 q 313 155 313 136 q 261 211 313 186 q 103 321 152 264 q 55 453 55 378 q 104 592 55 534 q 297 675 175 675 z "},"t":{"ha":643,"x_min":-9,"x_max":633,"o":"m 429 498 l 429 269 q 449 202 429 228 q 500 176 469 176 q 570 201 526 176 q 590 207 580 207 q 620 187 606 207 q 633 144 633 168 q 587 64 633 102 q 354 -18 491 -18 q 180 43 245 -18 q 114 205 114 104 l 114 518 q 110 537 114 534 q 91 541 106 541 l 21 541 q -4 548 1 541 q -9 578 -9 554 l -9 608 q 6 637 -9 628 l 317 833 q 345 839 328 839 l 400 839 q 423 831 417 839 q 429 800 429 823 l 429 709 q 435 682 429 688 q 463 676 441 676 l 588 676 q 621 667 613 676 q 628 628 628 658 l 628 588 q 618 543 628 555 q 584 530 609 530 l 461 530 q 435 524 442 530 q 429 498 429 517 z "},"u":{"ha":941,"x_min":14,"x_max":928,"o":"m 397 637 l 397 269 q 475 151 397 151 q 514 162 495 151 q 541 190 533 174 q 555 335 555 222 q 548 487 555 446 q 538 512 545 504 q 513 530 532 519 q 474 581 474 550 q 541 640 474 623 q 789 671 667 671 q 858 598 858 671 q 857 568 858 591 q 855 488 856 535 l 855 189 q 895 147 855 166 q 928 100 928 131 q 783 5 928 39 q 619 -14 699 -14 q 575 -7 587 -14 q 561 22 563 1 q 535 64 557 64 q 520 61 527 64 q 479 33 513 57 q 332 -14 410 -14 q 148 62 201 -14 q 102 274 102 125 q 103 369 102 330 q 103 400 103 392 q 93 486 103 458 q 54 529 82 513 q 21 551 28 543 q 14 573 14 559 q 92 642 14 625 q 357 671 224 671 q 397 637 397 671 z "},"v":{"ha":871,"x_min":-9,"x_max":880,"o":"m 735 463 l 559 121 q 490 11 519 42 q 429 -20 462 -20 q 378 3 397 -20 q 305 108 336 50 l 113 473 q 82 516 97 503 q 42 536 68 530 q -9 592 -9 551 q 54 652 -9 633 q 256 671 118 671 q 426 655 371 671 q 480 604 480 638 q 454 557 480 579 q 433 534 438 542 q 429 515 429 527 q 458 439 429 492 q 514 387 488 387 q 542 399 531 387 q 581 466 553 412 q 602 526 602 505 q 581 564 602 542 q 557 610 557 589 q 601 656 557 642 q 742 671 644 671 q 880 611 880 671 q 831 561 880 576 q 778 534 792 549 q 735 463 764 520 z "},"w":{"ha":1373,"x_min":-9,"x_max":1382,"o":"m 806 117 l 736 229 q 704 275 711 267 q 686 282 697 282 q 635 237 661 282 l 522 42 q 449 -14 490 -14 q 403 3 424 -14 q 357 62 382 20 l 154 400 q 75 507 103 482 q 25 528 61 518 q 0 547 10 533 q -9 578 -9 561 q 71 651 -9 630 q 249 671 153 671 q 465 591 465 671 q 444 545 465 576 q 440 532 440 539 q 472 458 440 517 q 533 391 507 391 q 571 425 548 391 q 594 480 594 459 q 584 514 594 501 q 536 553 574 526 q 513 592 513 570 q 621 661 513 645 q 776 671 687 671 q 924 654 878 671 q 969 598 969 637 q 964 573 969 583 q 935 539 958 564 q 927 518 927 531 q 958 441 927 500 q 1008 389 985 389 q 1069 455 1032 389 q 1097 521 1097 505 q 1075 561 1097 534 q 1059 602 1059 580 q 1091 651 1059 637 q 1221 671 1136 671 q 1324 662 1279 671 q 1366 640 1350 656 q 1382 602 1382 623 q 1363 565 1382 580 q 1316 546 1360 562 q 1274 519 1291 536 q 1235 456 1258 501 l 1065 127 q 934 -16 991 -16 q 880 15 909 -16 q 806 117 850 45 z "},"x":{"ha":836,"x_min":0,"x_max":836,"o":"m 238 380 l 180 452 q 122 515 143 498 q 69 538 101 531 q 16 589 16 549 q 84 651 16 631 q 297 671 153 671 q 452 659 401 671 q 509 605 509 646 q 486 554 509 589 q 482 540 482 547 q 504 498 482 526 q 536 471 525 471 q 572 502 548 471 q 595 547 595 532 q 581 579 595 557 q 568 609 568 598 q 579 638 568 624 q 607 659 590 652 q 710 671 637 671 q 798 659 773 671 q 831 609 831 642 q 822 583 831 591 q 774 555 812 574 q 742 533 753 545 q 667 433 731 520 l 620 363 q 612 347 612 351 q 619 332 612 345 l 660 271 q 756 142 725 172 q 804 113 771 128 q 836 67 836 100 q 779 4 836 21 q 570 -14 722 -14 q 408 -3 454 -14 q 347 60 347 12 q 382 105 347 89 q 402 135 402 114 q 374 196 402 157 q 331 235 347 235 q 283 186 315 234 q 251 113 251 138 q 267 82 251 102 q 281 45 281 66 q 142 -14 281 -14 q 33 1 66 -14 q 0 50 0 16 q 11 82 0 72 q 50 97 21 92 q 95 121 79 102 q 191 268 111 140 l 240 349 q 247 364 247 359 q 238 380 247 368 z "},"y":{"ha":860,"x_min":0,"x_max":860,"o":"m 672 342 l 583 96 q 516 -54 549 4 q 439 -153 482 -112 q 227 -237 351 -237 q 64 -184 127 -237 q 16 -80 16 -143 q 50 8 16 -28 q 132 43 83 43 q 211 11 181 43 q 230 -16 225 -4 q 244 -66 235 -27 q 278 -96 252 -96 q 313 -78 299 -96 q 328 -33 328 -60 q 292 74 328 -1 l 129 422 q 90 490 103 476 q 33 523 77 503 q 10 544 20 528 q 0 575 0 560 q 120 657 0 635 q 302 671 200 671 q 416 656 374 671 q 471 589 471 637 q 456 549 471 572 q 441 511 441 528 q 448 477 441 494 q 478 417 455 459 q 524 370 504 370 q 567 411 545 370 q 589 492 589 453 q 572 543 589 523 q 547 595 547 573 q 593 650 547 629 q 716 671 639 671 q 860 602 860 671 q 845 561 860 576 q 792 532 831 546 q 741 492 760 520 q 672 342 711 446 z "},"z":{"ha":714,"x_min":9,"x_max":705,"o":"m 372 659 l 552 659 q 632 656 614 659 q 658 644 649 654 q 669 614 669 633 q 647 549 669 589 l 467 230 q 445 174 445 190 q 493 142 445 142 q 548 156 528 142 q 587 204 569 170 q 613 246 603 235 q 637 256 623 256 q 686 233 667 256 q 705 172 705 209 q 682 82 705 130 q 624 2 659 34 q 574 -22 597 -22 q 547 -15 564 -22 q 469 0 514 -1 l 113 0 q 23 52 23 0 q 30 77 23 64 q 77 157 37 90 l 233 407 q 276 494 276 476 q 219 522 276 522 q 173 510 190 522 q 136 469 155 499 q 101 421 113 432 q 70 411 90 411 q 26 432 43 411 q 9 484 9 452 q 51 616 9 545 q 126 683 90 683 q 148 678 134 683 q 207 663 185 665 q 372 659 229 661 z "},"{":{"ha":692,"x_min":48,"x_max":656,"o":"m 425 162 l 425 -7 q 432 -109 425 -95 q 464 -135 440 -127 q 537 -142 488 -142 q 566 -141 540 -142 q 583 -140 576 -140 q 656 -188 656 -140 q 578 -255 656 -243 q 386 -264 520 -264 q 220 -218 269 -264 q 171 -64 171 -173 l 171 149 q 156 235 171 210 q 94 273 140 260 q 48 338 48 288 q 94 402 48 389 q 156 441 140 416 q 171 527 171 466 l 171 740 q 220 894 171 848 q 386 939 269 939 q 591 928 535 939 q 639 905 622 922 q 656 864 656 888 q 583 817 656 817 q 566 817 574 817 q 536 817 541 817 q 449 804 473 817 q 425 757 428 792 q 425 682 425 746 l 425 514 q 359 351 423 391 q 353 340 353 347 q 376 312 353 331 q 412 254 400 292 q 425 162 425 216 z "},"|":{"ha":694,"x_min":194,"x_max":500,"o":"m 194 926 l 500 926 l 500 -231 l 194 -231 l 194 926 z "},"}":{"ha":692,"x_min":37,"x_max":645,"o":"m 269 514 l 269 682 q 261 785 269 770 q 229 810 253 803 q 156 817 205 817 q 127 817 153 817 q 111 817 119 817 q 37 864 37 817 q 115 930 37 919 q 307 939 174 939 q 473 894 425 939 q 522 740 522 848 l 522 527 q 537 441 522 466 q 599 402 553 416 q 645 338 645 389 q 613 279 645 296 q 580 268 608 276 q 531 222 542 253 q 522 149 522 200 l 522 -64 q 473 -218 522 -173 q 307 -264 425 -264 q 102 -253 157 -264 q 54 -230 71 -247 q 37 -188 37 -212 q 111 -140 37 -140 q 157 -142 119 -140 q 244 -128 222 -140 q 265 -101 261 -119 q 269 -7 269 -83 l 269 162 q 283 261 269 225 q 334 325 298 298 q 340 335 340 329 q 317 363 340 345 q 281 421 293 384 q 269 514 269 459 z "},"~":{"ha":926,"x_min":127,"x_max":804,"o":"m 270 298 l 127 420 q 185 541 157 498 q 351 642 252 642 q 395 636 376 642 q 504 602 414 631 q 590 577 574 577 q 625 590 612 577 q 661 646 638 603 l 804 524 q 757 420 777 454 q 709 357 737 386 q 581 300 654 300 q 538 307 559 300 q 429 342 516 313 q 340 367 357 367 q 270 298 306 367 z "},"":{"ha":1148,"x_min":0,"x_max":1148,"o":"m 903 469 l 1031 194 q 1062 144 1050 156 q 1099 128 1074 132 q 1148 79 1148 121 q 1088 7 1148 29 q 893 -14 1029 -14 q 666 -1 740 -14 q 612 23 632 5 q 592 68 592 42 q 603 100 592 89 q 642 121 613 111 q 673 157 673 132 q 618 211 673 203 q 452 219 559 219 q 345 208 362 219 q 326 184 334 201 q 317 150 317 166 q 323 131 317 135 q 361 116 329 126 q 402 67 402 104 q 209 -14 402 -14 q 47 1 99 -14 q 0 64 0 16 q 11 96 0 85 q 48 117 21 108 q 115 161 92 133 q 180 281 138 189 l 275 491 q 346 664 328 606 q 365 776 364 721 q 372 857 366 834 q 401 901 378 880 q 520 949 448 949 q 651 895 589 949 q 903 469 738 822 m 431 383 l 564 383 q 601 399 601 383 q 550 509 601 422 q 515 563 527 549 q 489 576 503 576 q 448 531 465 576 q 429 483 446 525 q 400 400 400 414 q 431 383 400 383 m 389 1238 q 470 1213 441 1238 q 499 1147 499 1189 q 450 1059 499 1090 q 298 1014 381 1014 q 223 1039 252 1014 q 195 1104 195 1063 q 237 1188 195 1156 q 310 1224 267 1211 q 389 1238 353 1238 m 779 1247 q 859 1223 829 1247 q 888 1156 888 1199 q 839 1068 888 1099 q 686 1023 769 1023 q 612 1048 640 1023 q 583 1114 583 1073 q 626 1198 583 1165 q 698 1234 655 1220 q 779 1247 741 1248 z "},"":{"ha":1148,"x_min":0,"x_max":1148,"o":"m 903 469 l 1031 194 q 1062 144 1050 156 q 1099 128 1074 132 q 1148 79 1148 121 q 1088 7 1148 29 q 893 -14 1029 -14 q 666 -1 740 -14 q 612 23 632 5 q 592 68 592 42 q 603 100 592 89 q 642 121 613 111 q 673 157 673 132 q 618 211 673 203 q 452 219 559 219 q 345 208 362 219 q 326 184 334 201 q 317 150 317 166 q 323 131 317 135 q 361 116 329 126 q 402 67 402 104 q 209 -14 402 -14 q 47 1 99 -14 q 0 64 0 16 q 11 96 0 85 q 48 117 21 108 q 115 161 92 133 q 180 281 138 189 l 275 491 q 346 664 328 606 q 365 776 364 721 q 372 857 366 834 q 401 901 378 880 q 520 949 448 949 q 651 895 589 949 q 903 469 738 822 m 431 383 l 564 383 q 601 399 601 383 q 550 509 601 422 q 515 563 527 549 q 489 576 503 576 q 448 531 465 576 q 429 483 446 525 q 400 400 400 414 q 431 383 400 383 m 541 1275 q 688 1242 632 1275 q 729 1200 713 1228 q 745 1141 745 1172 q 692 1037 745 1074 q 543 1000 640 1000 q 339 1135 339 1000 q 392 1238 339 1202 q 541 1275 445 1275 m 541 1213 q 492 1192 510 1213 q 475 1134 475 1171 q 493 1081 475 1101 q 539 1061 511 1061 q 589 1082 570 1061 q 608 1139 608 1103 q 541 1213 608 1211 z "},"":{"ha":1000,"x_min":33,"x_max":982,"o":"m 499 -105 l 469 -33 q 458 -14 464 -18 q 435 -6 452 -9 q 302 37 365 7 q 113 207 186 94 q 33 465 33 328 q 126 738 33 615 q 333 901 208 846 q 540 944 431 944 q 736 901 635 944 q 796 881 782 881 q 838 888 808 881 q 855 890 844 890 q 916 859 890 890 q 982 662 982 779 q 926 542 982 580 q 856 521 895 521 q 801 536 823 521 q 758 589 779 551 q 711 666 730 642 q 665 709 692 690 q 528 755 600 755 q 417 705 458 755 q 376 570 376 654 q 435 355 376 452 q 663 226 515 226 q 772 243 719 226 q 856 290 825 261 q 901 315 883 315 q 940 293 924 315 q 957 241 957 271 q 936 158 957 205 q 886 85 914 111 q 858 65 871 71 q 821 56 845 59 q 738 24 799 52 q 650 -5 701 7 q 603 -15 614 -14 q 584 -28 584 -15 q 602 -75 584 -39 l 649 -166 q 670 -230 670 -207 q 629 -295 670 -272 q 515 -318 589 -318 q 391 -297 436 -318 q 346 -239 346 -276 q 367 -193 346 -210 q 430 -176 389 -177 q 491 -166 474 -174 q 507 -138 507 -158 q 499 -105 507 -124 z "},"":{"ha":960,"x_min":18,"x_max":950,"o":"m 168 926 l 516 926 q 670 930 622 926 q 765 948 719 935 q 787 952 779 952 q 850 914 823 952 q 895 765 895 852 q 876 695 895 721 q 825 670 857 670 q 790 679 802 670 q 756 720 777 688 q 681 781 726 766 q 530 796 635 796 q 435 768 452 796 q 425 728 427 753 q 423 600 423 703 q 437 550 423 559 q 508 540 450 540 q 549 552 536 540 q 566 594 562 564 q 575 648 570 633 q 594 673 581 663 q 627 686 608 686 q 675 659 655 686 q 699 590 689 640 q 709 486 709 540 q 675 310 709 378 q 620 273 657 273 q 588 284 597 273 q 574 334 579 296 q 485 410 564 410 q 443 391 454 410 q 432 319 432 372 q 436 237 432 288 q 446 170 441 186 q 479 142 451 150 q 573 134 507 134 q 726 160 675 134 q 810 255 778 186 q 845 308 829 294 q 884 321 860 321 q 931 297 913 321 q 950 235 950 272 q 929 133 950 194 q 878 24 908 72 q 852 -6 862 1 q 826 -14 842 -14 q 789 -10 813 -14 q 673 0 745 -2 l 98 0 q 44 15 63 0 q 25 58 25 31 q 33 87 25 78 q 71 109 41 96 q 101 131 91 118 q 116 169 111 144 q 138 445 138 271 q 106 775 138 707 q 91 794 99 789 q 57 807 83 800 q 18 859 18 819 q 31 897 18 880 q 65 920 44 914 q 168 926 92 926 m 526 1229 q 636 1211 588 1229 q 675 1185 660 1202 q 689 1153 690 1169 q 631 1079 688 1122 q 405 1000 529 1000 q 335 1050 335 1000 q 342 1077 335 1068 q 383 1113 349 1086 q 420 1142 414 1135 q 427 1159 427 1149 q 419 1179 427 1164 q 416 1189 416 1183 q 447 1217 416 1206 q 526 1229 477 1228 z "},"":{"ha":1153,"x_min":18,"x_max":1134,"o":"m 400 893 l 738 597 q 806 556 785 556 q 842 631 842 556 q 831 748 842 717 q 789 795 821 779 q 751 822 762 808 q 741 860 741 837 q 819 933 741 917 q 930 940 850 940 q 1072 928 1032 940 q 1134 856 1134 909 q 1083 789 1134 812 q 1055 774 1063 781 q 1042 753 1048 767 q 1023 584 1024 709 l 1023 363 q 1024 224 1023 312 q 1010 52 1025 104 q 943 -14 991 -14 q 907 -5 922 -14 q 857 35 892 3 l 454 395 q 385 433 412 433 q 343 319 343 433 q 354 190 343 224 q 397 139 364 155 q 442 81 442 117 q 239 -14 442 -14 q 97 11 148 -14 q 47 79 47 35 q 56 113 47 102 q 99 144 66 125 q 138 212 131 163 q 149 463 149 299 q 129 718 149 638 q 110 762 121 747 q 72 789 98 776 q 30 818 41 804 q 18 852 18 832 q 130 935 18 918 q 262 940 168 940 q 341 931 317 940 q 400 893 366 923 m 439 1236 q 488 1230 464 1237 q 568 1199 512 1223 q 638 1170 626 1174 q 667 1160 665 1160 q 688 1154 680 1154 q 707 1171 705 1154 q 707 1194 707 1172 q 726 1224 707 1211 q 772 1238 745 1238 q 836 1212 812 1238 q 860 1143 860 1186 q 823 1047 860 1088 q 736 1006 786 1006 q 652 1024 707 1006 q 548 1069 597 1042 q 484 1093 503 1093 q 467 1088 475 1093 q 460 1079 460 1084 l 461 1044 q 441 1022 461 1032 q 398 1011 422 1011 q 346 1034 373 1011 q 319 1115 319 1057 q 351 1201 319 1169 q 439 1236 382 1233 z "},"":{"ha":1081,"x_min":33,"x_max":1049,"o":"m 548 945 q 852 845 722 945 q 996 667 941 777 q 1049 450 1049 559 q 943 164 1049 290 q 709 10 854 57 q 531 -18 621 -18 q 307 31 414 -18 q 104 209 177 90 q 33 463 33 324 q 124 748 33 625 q 343 909 205 858 q 548 945 435 945 m 484 750 q 393 699 427 750 q 368 609 368 661 q 399 432 368 532 q 477 253 430 331 q 529 200 498 220 q 592 180 560 180 q 675 219 644 180 q 707 321 707 258 q 680 498 707 403 q 612 660 654 593 q 552 725 586 701 q 484 750 518 749 m 389 1238 q 469 1213 440 1238 q 498 1147 498 1189 q 450 1059 498 1090 q 297 1014 380 1014 q 222 1039 251 1014 q 194 1104 194 1063 q 237 1188 194 1156 q 309 1224 266 1211 q 389 1238 352 1238 m 778 1247 q 858 1223 829 1247 q 887 1156 887 1199 q 838 1068 887 1099 q 686 1023 768 1023 q 611 1048 640 1023 q 583 1114 583 1073 q 625 1198 583 1165 q 697 1234 654 1220 q 778 1247 741 1248 z "},"":{"ha":1139,"x_min":18,"x_max":1120,"o":"m 1021 587 l 1021 421 q 999 209 1021 271 q 787 18 951 77 q 564 -18 688 -18 q 215 85 346 -18 q 127 203 151 136 q 102 397 102 271 q 106 560 102 447 q 108 666 108 640 q 99 744 108 722 q 62 785 91 766 q 18 850 18 814 q 40 897 18 876 q 100 924 63 917 q 277 939 175 939 q 463 922 389 939 q 535 848 535 906 q 514 803 535 820 q 473 782 509 799 q 444 747 452 772 q 436 665 436 722 q 431 410 436 606 q 494 232 427 293 q 633 182 548 182 q 732 202 688 182 q 799 256 776 222 q 824 315 817 283 q 831 404 831 348 l 831 553 q 821 754 827 725 q 777 801 814 784 q 729 829 742 817 q 716 861 716 842 q 765 921 716 902 q 920 939 813 939 q 1073 921 1025 939 q 1120 863 1120 903 q 1112 833 1120 843 q 1069 804 1103 824 q 1028 761 1033 784 q 1021 587 1023 737 m 454 1238 q 534 1213 505 1238 q 564 1147 564 1189 q 515 1059 564 1090 q 362 1014 446 1014 q 288 1039 316 1014 q 259 1104 259 1063 q 302 1188 259 1156 q 374 1224 331 1211 q 454 1238 417 1238 m 843 1247 q 923 1223 894 1247 q 952 1156 952 1199 q 903 1068 952 1099 q 751 1023 833 1023 q 676 1048 705 1023 q 648 1114 648 1073 q 690 1198 648 1165 q 763 1234 720 1220 q 843 1247 806 1248 z "},"":{"ha":787,"x_min":18,"x_max":769,"o":"m 413 676 q 613 616 531 676 q 674 544 656 585 q 691 431 691 503 l 690 330 q 705 193 690 224 q 719 174 712 178 q 747 167 726 170 q 769 138 769 163 q 743 71 769 106 q 675 12 717 35 q 569 -18 625 -18 q 456 31 498 -18 q 430 48 442 48 q 394 31 416 48 q 240 -18 326 -18 q 96 20 151 -18 q 39 85 60 45 q 18 170 18 125 q 75 294 18 240 q 341 380 164 380 q 391 388 380 380 q 401 425 401 396 q 386 529 401 496 q 337 561 371 561 q 301 549 317 561 q 261 504 285 536 q 135 418 201 418 q 81 437 102 418 q 60 489 60 457 q 86 554 60 522 q 157 611 112 587 q 413 676 279 676 m 368 283 q 316 259 338 283 q 294 201 294 235 q 309 148 294 168 q 351 128 325 128 q 405 220 405 128 q 397 270 405 257 q 368 283 389 283 m 454 970 q 564 951 515 970 q 602 926 587 943 q 616 894 617 910 q 559 820 615 863 q 332 741 456 741 q 262 791 262 741 q 270 818 262 809 q 311 853 277 827 q 348 883 341 876 q 355 899 355 890 q 347 920 355 905 q 344 930 344 924 q 374 958 344 947 q 454 970 405 969 z "},"":{"ha":787,"x_min":18,"x_max":769,"o":"m 413 676 q 613 616 531 676 q 674 544 656 585 q 691 431 691 503 l 690 330 q 705 193 690 224 q 719 174 712 178 q 747 167 726 170 q 769 138 769 163 q 743 71 769 106 q 675 12 717 35 q 569 -18 625 -18 q 456 31 498 -18 q 430 48 442 48 q 394 31 416 48 q 240 -18 326 -18 q 96 20 151 -18 q 39 85 60 45 q 18 170 18 125 q 75 294 18 240 q 341 380 164 380 q 391 388 380 380 q 401 425 401 396 q 386 529 401 496 q 337 561 371 561 q 301 549 317 561 q 261 504 285 536 q 135 418 201 418 q 81 437 102 418 q 60 489 60 457 q 86 554 60 522 q 157 611 112 587 q 413 676 279 676 m 368 283 q 316 259 338 283 q 294 201 294 235 q 309 148 294 168 q 351 128 325 128 q 405 220 405 128 q 397 270 405 257 q 368 283 389 283 m 323 970 q 402 959 371 970 q 433 930 433 947 q 426 911 433 924 q 422 899 422 905 q 429 883 422 890 q 467 853 436 876 q 508 818 500 827 q 515 791 515 809 q 445 741 515 741 q 218 820 321 741 q 161 896 161 864 q 207 949 161 928 q 323 970 253 970 z "},"":{"ha":787,"x_min":18,"x_max":769,"o":"m 413 676 q 613 616 531 676 q 674 544 656 585 q 691 431 691 503 l 690 330 q 705 193 690 224 q 719 174 712 178 q 747 167 726 170 q 769 138 769 163 q 743 71 769 106 q 675 12 717 35 q 569 -18 625 -18 q 456 31 498 -18 q 430 48 442 48 q 394 31 416 48 q 240 -18 326 -18 q 96 20 151 -18 q 39 85 60 45 q 18 170 18 125 q 75 294 18 240 q 341 380 164 380 q 391 388 380 380 q 401 425 401 396 q 386 529 401 496 q 337 561 371 561 q 301 549 317 561 q 261 504 285 536 q 135 418 201 418 q 81 437 102 418 q 60 489 60 457 q 86 554 60 522 q 157 611 112 587 q 413 676 279 676 m 368 283 q 316 259 338 283 q 294 201 294 235 q 309 148 294 168 q 351 128 325 128 q 405 220 405 128 q 397 270 405 257 q 368 283 389 283 m 390 991 q 463 963 412 991 q 566 894 513 935 q 631 835 613 857 q 649 793 649 813 q 634 758 649 773 q 600 742 619 742 q 488 783 572 742 q 431 806 462 795 q 390 817 399 817 q 294 779 366 817 q 191 741 222 741 q 153 756 168 741 q 138 795 138 771 q 161 844 138 818 q 239 912 183 870 q 390 991 344 991 z "},"":{"ha":787,"x_min":18,"x_max":769,"o":"m 413 676 q 613 616 531 676 q 674 544 656 585 q 691 431 691 503 l 690 330 q 705 193 690 224 q 719 174 712 178 q 747 167 726 170 q 769 138 769 163 q 743 71 769 106 q 675 12 717 35 q 569 -18 625 -18 q 456 31 498 -18 q 430 48 442 48 q 394 31 416 48 q 240 -18 326 -18 q 96 20 151 -18 q 39 85 60 45 q 18 170 18 125 q 75 294 18 240 q 341 380 164 380 q 391 388 380 380 q 401 425 401 396 q 386 529 401 496 q 337 561 371 561 q 301 549 317 561 q 261 504 285 536 q 135 418 201 418 q 81 437 102 418 q 60 489 60 457 q 86 554 60 522 q 157 611 112 587 q 413 676 279 676 m 368 283 q 316 259 338 283 q 294 201 294 235 q 309 148 294 168 q 351 128 325 128 q 405 220 405 128 q 397 270 405 257 q 368 283 389 283 m 243 973 q 327 948 296 973 q 357 881 357 924 q 307 792 357 824 q 182 757 252 757 q 109 783 137 757 q 81 852 81 810 q 124 941 81 909 q 243 973 168 973 m 593 971 q 676 946 646 971 q 707 879 707 922 q 657 790 707 822 q 532 755 602 755 q 459 781 487 755 q 431 850 431 808 q 474 939 431 907 q 593 971 517 971 z "},"":{"ha":787,"x_min":18,"x_max":769,"o":"m 413 676 q 613 616 531 676 q 674 544 656 585 q 691 431 691 503 l 690 330 q 705 193 690 224 q 719 174 712 178 q 747 167 726 170 q 769 138 769 163 q 743 71 769 106 q 675 12 717 35 q 569 -18 625 -18 q 456 31 498 -18 q 430 48 442 48 q 394 31 416 48 q 240 -18 326 -18 q 96 20 151 -18 q 39 85 60 45 q 18 170 18 125 q 75 294 18 240 q 341 380 164 380 q 391 388 380 380 q 401 425 401 396 q 386 529 401 496 q 337 561 371 561 q 301 549 317 561 q 261 504 285 536 q 135 418 201 418 q 81 437 102 418 q 60 489 60 457 q 86 554 60 522 q 157 611 112 587 q 413 676 279 676 m 368 283 q 316 259 338 283 q 294 201 294 235 q 309 148 294 168 q 351 128 325 128 q 405 220 405 128 q 397 270 405 257 q 368 283 389 283 m 269 818 l 269 800 q 250 761 269 775 q 202 746 232 746 q 146 768 168 746 q 125 826 125 791 q 142 901 125 866 q 188 946 158 929 q 256 963 218 963 q 321 953 292 963 q 430 903 350 943 q 488 884 467 884 q 509 911 505 884 q 515 941 513 935 q 526 953 517 946 q 574 968 545 968 q 663 878 663 968 q 628 784 663 820 q 538 749 594 749 q 485 755 509 749 q 416 782 460 762 q 352 810 387 795 q 307 829 309 828 q 284 836 294 836 q 269 818 269 836 z "},"":{"ha":787,"x_min":18,"x_max":769,"o":"m 413 676 q 613 616 531 676 q 674 544 656 585 q 691 431 691 503 l 690 330 q 705 193 690 224 q 719 174 712 178 q 747 167 726 170 q 769 138 769 163 q 743 71 769 106 q 675 12 717 35 q 569 -18 625 -18 q 456 31 498 -18 q 430 48 442 48 q 394 31 416 48 q 240 -18 326 -18 q 96 20 151 -18 q 39 85 60 45 q 18 170 18 125 q 75 294 18 240 q 341 380 164 380 q 391 388 380 380 q 401 425 401 396 q 386 529 401 496 q 337 561 371 561 q 301 549 317 561 q 261 504 285 536 q 135 418 201 418 q 81 437 102 418 q 60 489 60 457 q 86 554 60 522 q 157 611 112 587 q 413 676 279 676 m 368 283 q 316 259 338 283 q 294 201 294 235 q 309 148 294 168 q 351 128 325 128 q 405 220 405 128 q 397 270 405 257 q 368 283 389 283 m 392 1016 q 540 983 484 1016 q 581 941 565 968 q 596 882 596 913 q 544 777 596 814 q 395 741 491 741 q 191 876 191 741 q 243 979 191 943 q 392 1016 296 1016 m 393 954 q 344 933 361 954 q 326 875 326 912 q 344 822 326 842 q 391 801 362 801 q 440 823 422 801 q 459 880 459 844 q 393 954 459 952 z "},"":{"ha":731,"x_min":23,"x_max":713,"o":"m 355 -78 l 319 -29 q 285 -8 307 -14 q 233 9 260 -3 q 100 109 158 43 q 23 322 23 198 q 140 577 23 475 q 413 675 253 675 q 628 613 534 675 q 713 469 713 556 q 672 376 713 412 q 581 342 632 342 q 513 364 537 342 q 472 443 490 387 q 402 505 453 505 q 338 472 364 505 q 312 390 312 439 q 370 248 312 309 q 493 197 418 197 q 545 202 525 197 q 606 227 566 208 q 627 231 616 231 q 669 210 652 231 q 687 159 687 189 q 595 35 687 93 q 440 -18 525 -9 q 431 -26 431 -18 q 439 -37 431 -30 l 499 -92 q 541 -159 541 -130 q 499 -217 541 -194 q 398 -240 458 -240 q 304 -215 338 -240 q 279 -172 279 -197 q 298 -139 279 -153 q 349 -121 317 -125 q 368 -106 368 -118 q 355 -78 368 -96 z "},"":{"ha":736,"x_min":23,"x_max":718,"o":"m 652 304 l 334 304 q 313 286 313 304 q 360 202 313 241 q 463 163 408 163 q 535 176 496 163 q 601 207 575 189 q 637 223 624 223 q 672 201 655 223 q 689 157 689 180 q 628 62 689 108 q 379 -18 520 -18 q 140 64 237 -18 q 63 163 94 105 q 23 324 23 239 q 92 529 23 438 q 244 646 152 608 q 394 675 313 675 q 613 602 523 675 q 686 515 659 566 q 718 404 718 458 q 700 332 718 360 q 652 304 682 304 m 351 431 l 420 431 q 463 471 463 431 q 442 530 463 507 q 387 553 421 553 q 328 524 349 553 q 307 467 307 496 q 317 439 307 447 q 351 431 327 431 m 456 970 q 566 951 518 970 q 605 926 590 943 q 619 894 620 910 q 562 820 618 863 q 335 741 459 741 q 265 791 265 741 q 272 818 265 809 q 313 853 279 827 q 351 883 344 876 q 357 899 357 890 q 349 920 357 905 q 347 930 347 924 q 377 958 347 947 q 456 970 408 969 z "},"":{"ha":736,"x_min":23,"x_max":718,"o":"m 652 304 l 334 304 q 313 286 313 304 q 360 202 313 241 q 463 163 408 163 q 535 176 496 163 q 601 207 575 189 q 637 223 624 223 q 672 201 655 223 q 689 157 689 180 q 628 62 689 108 q 379 -18 520 -18 q 140 64 237 -18 q 63 163 94 105 q 23 324 23 239 q 92 529 23 438 q 244 646 152 608 q 394 675 313 675 q 613 602 523 675 q 686 515 659 566 q 718 404 718 458 q 700 332 718 360 q 652 304 682 304 m 351 431 l 420 431 q 463 471 463 431 q 442 530 463 507 q 387 553 421 553 q 328 524 349 553 q 307 467 307 496 q 317 439 307 447 q 351 431 327 431 m 316 970 q 395 959 364 970 q 426 930 426 947 q 419 911 426 924 q 416 899 416 905 q 422 883 416 890 q 460 853 429 876 q 501 818 494 827 q 508 791 508 809 q 438 741 508 741 q 212 820 314 741 q 154 896 154 864 q 200 949 154 928 q 316 970 246 970 z "},"":{"ha":736,"x_min":23,"x_max":718,"o":"m 652 304 l 334 304 q 313 286 313 304 q 360 202 313 241 q 463 163 408 163 q 535 176 496 163 q 601 207 575 189 q 637 223 624 223 q 672 201 655 223 q 689 157 689 180 q 628 62 689 108 q 379 -18 520 -18 q 140 64 237 -18 q 63 163 94 105 q 23 324 23 239 q 92 529 23 438 q 244 646 152 608 q 394 675 313 675 q 613 602 523 675 q 686 515 659 566 q 718 404 718 458 q 700 332 718 360 q 652 304 682 304 m 351 431 l 420 431 q 463 471 463 431 q 442 530 463 507 q 387 553 421 553 q 328 524 349 553 q 307 467 307 496 q 317 439 307 447 q 351 431 327 431 m 401 991 q 474 963 424 991 q 577 894 524 935 q 643 835 625 857 q 661 793 661 813 q 646 758 661 773 q 611 742 631 742 q 499 783 583 742 q 442 806 473 795 q 401 817 411 817 q 305 779 378 817 q 202 741 234 741 q 164 756 179 741 q 150 795 150 771 q 172 844 150 818 q 250 912 195 870 q 401 991 355 991 z "},"":{"ha":736,"x_min":23,"x_max":723,"o":"m 652 304 l 334 304 q 313 286 313 304 q 360 202 313 241 q 463 163 408 163 q 535 176 496 163 q 601 207 575 189 q 637 223 624 223 q 672 201 655 223 q 689 157 689 180 q 628 62 689 108 q 379 -18 520 -18 q 140 64 237 -18 q 63 163 94 105 q 23 324 23 239 q 92 529 23 438 q 244 646 152 608 q 394 675 313 675 q 613 602 523 675 q 686 515 659 566 q 718 404 718 458 q 700 332 718 360 q 652 304 682 304 m 351 431 l 420 431 q 463 471 463 431 q 442 530 463 507 q 387 553 421 553 q 328 524 349 553 q 307 467 307 496 q 317 439 307 447 q 351 431 327 431 m 260 973 q 343 948 313 973 q 373 881 373 924 q 323 792 373 824 q 198 757 269 757 q 125 783 153 757 q 97 852 97 810 q 140 941 97 909 q 260 973 184 973 m 609 971 q 692 946 662 971 q 723 879 723 922 q 673 790 723 822 q 548 755 618 755 q 475 781 503 755 q 447 850 447 808 q 490 939 447 907 q 609 971 533 971 z "},"":{"ha":495,"x_min":14,"x_max":481,"o":"m 403 629 l 403 235 q 411 166 403 188 q 446 126 420 144 q 474 101 467 111 q 481 74 481 90 q 259 -14 481 -14 q 70 5 140 -14 q 32 29 46 12 q 17 68 17 46 q 24 96 17 86 q 62 129 32 106 q 92 180 83 144 q 101 285 101 215 q 98 369 101 307 q 94 440 95 430 q 56 483 90 468 q 14 537 14 501 q 68 601 14 580 q 231 650 144 630 q 366 671 318 671 q 403 629 403 671 m 303 970 q 413 951 365 970 q 452 926 437 943 q 466 894 467 910 q 408 820 465 863 q 182 741 306 741 q 112 791 112 741 q 119 818 112 809 q 160 853 126 827 q 197 883 191 876 q 204 899 204 890 q 196 920 204 905 q 193 930 193 924 q 224 958 193 947 q 303 970 254 969 z "},"":{"ha":495,"x_min":10,"x_max":481,"o":"m 403 629 l 403 235 q 411 166 403 188 q 446 126 420 144 q 474 101 467 111 q 481 74 481 90 q 259 -14 481 -14 q 70 5 140 -14 q 32 29 46 12 q 17 68 17 46 q 24 96 17 86 q 62 129 32 106 q 92 180 83 144 q 101 285 101 215 q 98 369 101 307 q 94 440 95 430 q 56 483 90 468 q 14 537 14 501 q 68 601 14 580 q 231 650 144 630 q 366 671 318 671 q 403 629 403 671 m 172 970 q 251 959 220 970 q 282 930 282 947 q 275 911 282 924 q 272 899 272 905 q 279 883 272 890 q 316 853 286 876 q 357 818 350 827 q 364 791 364 809 q 294 741 364 741 q 68 820 170 741 q 10 896 10 864 q 56 949 10 928 q 172 970 102 970 z "},"":{"ha":495,"x_min":-8,"x_max":503,"o":"m 403 629 l 403 235 q 411 166 403 188 q 446 126 420 144 q 474 101 467 111 q 481 74 481 90 q 259 -14 481 -14 q 70 5 140 -14 q 32 29 46 12 q 17 68 17 46 q 24 96 17 86 q 62 129 32 106 q 92 180 83 144 q 101 285 101 215 q 98 369 101 307 q 94 440 95 430 q 56 483 90 468 q 14 537 14 501 q 68 601 14 580 q 231 650 144 630 q 366 671 318 671 q 403 629 403 671 m 243 991 q 316 963 266 991 q 419 894 366 935 q 485 835 467 857 q 503 793 503 813 q 488 758 503 773 q 453 742 473 742 q 341 783 425 742 q 284 806 315 795 q 243 817 253 817 q 147 779 220 817 q 44 741 76 741 q 6 756 21 741 q -8 795 -8 771 q 14 844 -8 818 q 92 912 37 870 q 243 991 197 991 z "},"":{"ha":495,"x_min":-52,"x_max":547,"o":"m 403 629 l 403 235 q 411 166 403 188 q 446 126 420 144 q 474 101 467 111 q 481 74 481 90 q 259 -14 481 -14 q 70 5 140 -14 q 32 29 46 12 q 17 68 17 46 q 24 96 17 86 q 62 129 32 106 q 92 180 83 144 q 101 285 101 215 q 98 369 101 307 q 94 440 95 430 q 56 483 90 468 q 14 537 14 501 q 68 601 14 580 q 231 650 144 630 q 366 671 318 671 q 403 629 403 671 m 111 973 q 194 948 164 973 q 224 881 224 924 q 174 792 224 824 q 50 757 120 757 q -23 783 5 757 q -52 852 -52 810 q -8 941 -52 909 q 111 973 35 973 m 433 971 q 516 946 486 971 q 547 879 547 922 q 496 790 547 822 q 372 755 442 755 q 299 781 327 755 q 271 850 271 808 q 314 939 271 907 q 433 971 357 971 z "},"":{"ha":932,"x_min":14,"x_max":918,"o":"m 848 425 l 858 186 q 866 146 859 159 q 908 97 873 134 q 918 66 918 86 q 865 4 918 22 q 673 -14 811 -14 q 541 3 580 -14 q 501 58 501 20 q 505 78 501 71 q 532 109 509 84 q 559 299 559 138 q 538 437 559 393 q 473 473 520 473 q 410 444 427 473 q 393 338 393 415 l 393 204 q 398 149 393 164 q 432 92 404 134 q 439 64 439 79 q 384 5 439 24 q 210 -14 328 -14 q 22 64 22 -14 q 27 89 22 80 q 55 113 33 97 q 77 142 73 125 q 86 224 82 159 q 91 386 91 301 q 84 447 91 433 q 43 483 77 462 q 14 528 14 501 q 37 572 14 555 q 135 616 61 589 q 260 655 200 639 q 343 671 321 671 q 377 656 363 671 q 391 621 391 641 q 391 604 391 618 q 390 594 390 598 q 417 562 390 562 q 452 587 433 562 q 621 671 510 671 q 768 627 707 671 q 827 552 810 595 q 848 425 844 509 m 340 818 l 340 800 q 322 761 340 775 q 274 746 304 746 q 218 768 240 746 q 197 826 197 791 q 214 901 197 866 q 260 946 230 929 q 328 963 290 963 q 393 953 363 963 q 502 903 422 943 q 560 884 539 884 q 581 911 577 884 q 587 941 585 935 q 597 953 589 946 q 646 968 616 968 q 734 878 734 968 q 700 784 734 820 q 610 749 666 749 q 556 755 581 749 q 488 782 532 762 q 424 810 458 795 q 379 829 380 828 q 356 836 366 836 q 340 818 340 836 z "},"":{"ha":836,"x_min":23,"x_max":813,"o":"m 446 676 q 663 612 570 676 q 771 492 730 566 q 813 330 813 414 q 678 80 813 183 q 383 -18 549 -18 q 121 74 221 -18 q 23 307 23 163 q 142 569 23 467 q 446 676 267 676 m 391 519 q 343 497 361 519 q 326 439 326 475 q 341 328 326 398 q 377 203 356 258 q 446 148 398 148 q 506 224 506 148 q 491 354 506 281 q 454 472 475 427 q 391 519 431 518 m 497 970 q 607 951 559 970 q 646 926 631 943 q 660 894 661 910 q 602 820 659 863 q 376 741 500 741 q 306 791 306 741 q 313 818 306 809 q 354 853 320 827 q 391 883 385 876 q 398 899 398 890 q 390 920 398 905 q 387 930 387 924 q 418 958 387 947 q 497 970 448 969 z "},"":{"ha":836,"x_min":23,"x_max":813,"o":"m 446 676 q 663 612 570 676 q 771 492 730 566 q 813 330 813 414 q 678 80 813 183 q 383 -18 549 -18 q 121 74 221 -18 q 23 307 23 163 q 142 569 23 467 q 446 676 267 676 m 391 519 q 343 497 361 519 q 326 439 326 475 q 341 328 326 398 q 377 203 356 258 q 446 148 398 148 q 506 224 506 148 q 491 354 506 281 q 454 472 475 427 q 391 519 431 518 m 338 970 q 417 959 387 970 q 448 930 448 947 q 441 911 448 924 q 438 899 438 905 q 445 883 438 890 q 482 853 452 876 q 523 818 516 827 q 530 791 530 809 q 460 741 530 741 q 234 820 336 741 q 176 896 176 864 q 222 949 176 928 q 338 970 269 970 z "},"":{"ha":836,"x_min":23,"x_max":813,"o":"m 446 676 q 663 612 570 676 q 771 492 730 566 q 813 330 813 414 q 678 80 813 183 q 383 -18 549 -18 q 121 74 221 -18 q 23 307 23 163 q 142 569 23 467 q 446 676 267 676 m 391 519 q 343 497 361 519 q 326 439 326 475 q 341 328 326 398 q 377 203 356 258 q 446 148 398 148 q 506 224 506 148 q 491 354 506 281 q 454 472 475 427 q 391 519 431 518 m 414 991 q 487 963 437 991 q 590 894 537 935 q 655 835 637 857 q 673 793 673 813 q 659 758 673 773 q 624 742 644 742 q 512 783 596 742 q 455 806 486 795 q 414 817 424 817 q 318 779 391 817 q 215 741 247 741 q 177 756 192 741 q 163 795 163 771 q 185 844 163 818 q 263 912 208 870 q 414 991 368 991 z "},"":{"ha":836,"x_min":23,"x_max":813,"o":"m 446 676 q 663 612 570 676 q 771 492 730 566 q 813 330 813 414 q 678 80 813 183 q 383 -18 549 -18 q 121 74 221 -18 q 23 307 23 163 q 142 569 23 467 q 446 676 267 676 m 391 519 q 343 497 361 519 q 326 439 326 475 q 341 328 326 398 q 377 203 356 258 q 446 148 398 148 q 506 224 506 148 q 491 354 506 281 q 454 472 475 427 q 391 519 431 518 m 268 973 q 351 948 321 973 q 381 881 381 924 q 331 792 381 824 q 206 757 277 757 q 133 783 161 757 q 105 852 105 810 q 149 941 105 909 q 268 973 192 973 m 617 971 q 701 946 670 971 q 731 879 731 922 q 682 790 731 822 q 556 755 627 755 q 483 781 511 755 q 455 850 455 808 q 498 939 455 907 q 617 971 541 971 z "},"":{"ha":836,"x_min":23,"x_max":813,"o":"m 446 676 q 663 612 570 676 q 771 492 730 566 q 813 330 813 414 q 678 80 813 183 q 383 -18 549 -18 q 121 74 221 -18 q 23 307 23 163 q 142 569 23 467 q 446 676 267 676 m 391 519 q 343 497 361 519 q 326 439 326 475 q 341 328 326 398 q 377 203 356 258 q 446 148 398 148 q 506 224 506 148 q 491 354 506 281 q 454 472 475 427 q 391 519 431 518 m 293 818 l 293 800 q 275 761 293 775 q 227 746 256 746 q 171 768 193 746 q 149 826 149 791 q 167 901 149 866 q 213 946 182 929 q 280 963 243 963 q 345 953 316 963 q 454 903 374 943 q 513 884 492 884 q 534 911 530 884 q 539 941 537 935 q 550 953 541 946 q 599 968 569 968 q 687 878 687 968 q 653 784 687 820 q 562 749 618 749 q 509 755 533 749 q 441 782 485 762 q 376 810 411 795 q 332 829 333 828 q 309 836 318 836 q 293 818 293 836 z "},"":{"ha":941,"x_min":14,"x_max":928,"o":"m 397 637 l 397 269 q 475 151 397 151 q 514 162 495 151 q 541 190 533 174 q 555 335 555 222 q 548 487 555 446 q 538 512 545 504 q 513 530 532 519 q 474 581 474 550 q 541 640 474 623 q 789 671 667 671 q 858 598 858 671 q 857 568 858 591 q 855 488 856 535 l 855 189 q 895 147 855 166 q 928 100 928 131 q 783 5 928 39 q 619 -14 699 -14 q 575 -7 587 -14 q 561 22 563 1 q 535 64 557 64 q 520 61 527 64 q 479 33 513 57 q 332 -14 410 -14 q 148 62 201 -14 q 102 274 102 125 q 103 369 102 330 q 103 400 103 392 q 93 486 103 458 q 54 529 82 513 q 21 551 28 543 q 14 573 14 559 q 92 642 14 625 q 357 671 224 671 q 397 637 397 671 m 549 970 q 659 951 611 970 q 698 926 683 943 q 712 894 713 910 q 654 820 711 863 q 428 741 552 741 q 358 791 358 741 q 365 818 358 809 q 406 853 372 827 q 444 883 437 876 q 450 899 450 890 q 442 920 450 905 q 439 930 439 924 q 470 958 439 947 q 549 970 500 969 z "},"":{"ha":941,"x_min":14,"x_max":928,"o":"m 397 637 l 397 269 q 475 151 397 151 q 514 162 495 151 q 541 190 533 174 q 555 335 555 222 q 548 487 555 446 q 538 512 545 504 q 513 530 532 519 q 474 581 474 550 q 541 640 474 623 q 789 671 667 671 q 858 598 858 671 q 857 568 858 591 q 855 488 856 535 l 855 189 q 895 147 855 166 q 928 100 928 131 q 783 5 928 39 q 619 -14 699 -14 q 575 -7 587 -14 q 561 22 563 1 q 535 64 557 64 q 520 61 527 64 q 479 33 513 57 q 332 -14 410 -14 q 148 62 201 -14 q 102 274 102 125 q 103 369 102 330 q 103 400 103 392 q 93 486 103 458 q 54 529 82 513 q 21 551 28 543 q 14 573 14 559 q 92 642 14 625 q 357 671 224 671 q 397 637 397 671 m 391 970 q 470 959 439 970 q 500 930 500 947 q 494 911 500 924 q 490 899 490 905 q 497 883 490 890 q 534 853 504 876 q 575 818 568 827 q 583 791 583 809 q 513 741 583 741 q 286 820 389 741 q 229 896 229 864 q 275 949 229 928 q 391 970 321 970 z "},"":{"ha":941,"x_min":14,"x_max":928,"o":"m 397 637 l 397 269 q 475 151 397 151 q 514 162 495 151 q 541 190 533 174 q 555 335 555 222 q 548 487 555 446 q 538 512 545 504 q 513 530 532 519 q 474 581 474 550 q 541 640 474 623 q 789 671 667 671 q 858 598 858 671 q 857 568 858 591 q 855 488 856 535 l 855 189 q 895 147 855 166 q 928 100 928 131 q 783 5 928 39 q 619 -14 699 -14 q 575 -7 587 -14 q 561 22 563 1 q 535 64 557 64 q 520 61 527 64 q 479 33 513 57 q 332 -14 410 -14 q 148 62 201 -14 q 102 274 102 125 q 103 369 102 330 q 103 400 103 392 q 93 486 103 458 q 54 529 82 513 q 21 551 28 543 q 14 573 14 559 q 92 642 14 625 q 357 671 224 671 q 397 637 397 671 m 471 991 q 544 963 494 991 q 647 894 594 935 q 712 835 694 857 q 730 793 730 813 q 715 758 730 773 q 681 742 701 742 q 569 783 653 742 q 512 806 543 795 q 471 817 481 817 q 375 779 448 817 q 272 741 304 741 q 234 756 249 741 q 220 795 220 771 q 242 844 220 818 q 320 912 264 870 q 471 991 425 991 z "},"":{"ha":941,"x_min":14,"x_max":928,"o":"m 397 637 l 397 269 q 475 151 397 151 q 514 162 495 151 q 541 190 533 174 q 555 335 555 222 q 548 487 555 446 q 538 512 545 504 q 513 530 532 519 q 474 581 474 550 q 541 640 474 623 q 789 671 667 671 q 858 598 858 671 q 857 568 858 591 q 855 488 856 535 l 855 189 q 895 147 855 166 q 928 100 928 131 q 783 5 928 39 q 619 -14 699 -14 q 575 -7 587 -14 q 561 22 563 1 q 535 64 557 64 q 520 61 527 64 q 479 33 513 57 q 332 -14 410 -14 q 148 62 201 -14 q 102 274 102 125 q 103 369 102 330 q 103 400 103 392 q 93 486 103 458 q 54 529 82 513 q 21 551 28 543 q 14 573 14 559 q 92 642 14 625 q 357 671 224 671 q 397 637 397 671 m 320 973 q 403 948 373 973 q 433 881 433 924 q 383 792 433 824 q 258 757 329 757 q 185 783 214 757 q 157 852 157 810 q 201 941 157 909 q 320 973 244 973 m 669 971 q 753 946 722 971 q 783 879 783 922 q 734 790 783 822 q 608 755 679 755 q 535 781 564 755 q 507 850 507 808 q 550 939 507 907 q 669 971 593 971 z "},"":{"ha":1000,"x_min":50,"x_max":949,"o":"m 629 351 l 629 269 q 627 182 629 258 q 627 125 627 153 q 638 -44 627 3 q 684 -117 649 -91 q 726 -152 717 -140 q 734 -183 734 -164 q 717 -220 734 -205 q 659 -244 700 -234 q 500 -264 586 -264 q 340 -244 414 -264 q 282 -220 300 -234 q 264 -183 264 -205 q 273 -152 264 -164 q 315 -117 282 -140 q 362 -37 353 -88 q 374 126 374 25 l 372 269 l 372 351 q 357 374 372 375 l 327 372 q 238 360 254 368 q 208 317 223 353 q 183 278 195 288 q 146 268 170 268 q 72 332 94 268 q 50 493 50 401 q 71 638 50 572 q 144 705 92 705 q 176 695 163 705 q 200 657 188 684 q 228 617 215 625 q 283 606 241 609 l 335 603 q 354 602 349 602 q 367 625 367 603 l 367 714 q 358 758 367 743 q 328 782 350 772 q 281 807 291 798 q 272 833 272 816 q 292 880 272 857 q 341 913 311 902 q 500 939 410 939 q 658 913 590 939 q 708 879 688 901 q 727 833 727 857 q 718 807 727 816 q 671 782 708 798 q 641 758 649 772 q 632 714 632 743 l 632 625 q 645 602 632 603 q 664 603 650 602 l 717 606 q 771 617 758 609 q 799 657 784 625 q 824 695 812 685 q 856 705 836 705 q 928 638 907 705 q 949 493 949 572 q 927 332 949 401 q 852 268 905 268 q 816 278 828 268 q 791 317 804 288 q 761 360 776 353 q 672 372 745 368 l 642 374 q 629 351 629 374 z "},"":{"ha":575,"x_min":46,"x_max":528,"o":"m 304 940 q 437 901 380 940 q 504 825 479 871 q 528 728 528 779 q 446 575 528 638 q 266 515 368 515 q 106 572 167 515 q 46 714 46 627 q 119 875 46 812 q 304 940 195 940 m 268 868 q 226 851 241 868 q 210 806 210 835 q 223 726 210 778 q 252 635 236 673 q 309 593 270 593 q 363 654 363 593 q 350 745 363 690 q 319 833 336 800 q 268 868 302 867 z "},"":{"ha":833,"x_min":106,"x_max":727,"o":"m 354 717 l 354 735 q 363 772 354 763 q 400 781 372 781 l 440 781 q 477 772 468 781 q 486 735 486 763 q 491 709 486 715 q 511 701 495 703 q 664 638 600 692 q 727 519 727 585 q 692 435 727 467 q 604 402 658 402 q 548 420 568 402 q 513 484 528 437 q 445 549 492 549 q 388 519 411 549 q 366 441 366 488 q 414 322 366 373 q 526 271 462 271 q 630 296 572 271 q 652 302 644 302 q 688 281 672 302 q 704 234 704 260 q 651 147 704 192 q 591 108 621 121 q 503 81 562 95 q 489 74 492 79 q 486 51 486 68 l 486 30 q 477 -8 486 1 q 440 -17 468 -17 l 400 -17 q 364 -7 374 -17 q 354 30 354 3 l 354 56 q 350 81 354 76 q 324 90 345 86 q 239 133 285 98 q 161 212 193 168 q 106 385 106 289 q 185 590 106 505 q 332 684 252 663 q 350 693 347 688 q 354 717 354 699 z "},"":{"ha":833,"x_min":14,"x_max":826,"o":"m 556 385 q 488 377 501 385 q 462 332 475 370 q 437 281 455 315 q 431 262 431 270 q 466 230 431 244 q 581 200 536 200 q 682 262 640 200 q 720 306 703 294 q 758 319 736 319 q 807 297 788 319 q 826 242 826 276 q 804 148 826 199 q 747 58 782 96 q 564 -18 677 -18 q 462 3 512 -18 q 387 46 412 25 q 347 71 357 71 q 291 38 333 71 q 155 -18 220 -18 q 50 32 91 -18 q 14 145 14 77 q 46 249 14 211 q 132 288 78 288 q 185 279 155 288 q 210 275 201 275 q 228 290 228 275 q 226 303 228 295 q 220 330 224 311 q 204 368 215 361 q 142 374 193 374 l 105 372 q 66 388 77 372 q 54 440 54 404 q 66 485 54 472 q 81 493 74 492 q 122 494 87 494 q 152 510 152 495 q 147 530 152 515 q 134 611 134 575 q 203 772 134 707 q 494 863 300 863 q 617 848 567 863 q 708 801 667 833 q 784 655 784 740 q 754 576 784 606 q 673 547 724 547 q 604 571 629 547 q 578 633 578 594 q 578 656 578 643 q 578 673 578 665 q 563 719 578 705 q 511 733 547 733 q 438 644 438 733 q 446 567 438 606 q 464 514 454 528 q 477 505 470 507 q 524 503 485 504 l 564 503 q 605 488 593 503 q 617 437 617 473 q 602 391 617 402 q 556 385 595 385 z "},"":{"ha":1000,"x_min":91,"x_max":910,"o":"m 237 -1 q 283 -11 267 -1 q 330 -56 298 -20 q 484 -125 389 -125 q 557 -108 530 -125 q 584 -62 584 -91 q 488 6 584 -15 q 335 50 414 22 q 210 103 256 78 q 134 180 164 129 q 103 292 103 231 q 140 410 103 355 q 214 482 172 457 q 225 496 225 489 q 216 509 225 503 q 117 693 117 581 q 208 864 117 800 q 514 939 317 939 q 831 870 717 939 q 892 789 892 833 q 848 733 892 757 q 756 705 797 705 q 719 711 731 705 q 671 752 707 718 q 537 805 616 805 q 475 789 500 805 q 450 749 450 773 q 480 703 450 722 q 571 673 509 685 q 681 645 616 665 q 782 609 745 625 q 873 532 838 584 q 910 410 910 478 q 881 306 910 355 q 799 220 852 257 q 783 203 783 210 q 807 180 783 194 q 844 150 821 172 q 875 116 867 129 q 905 2 905 68 q 814 -180 905 -110 q 686 -244 758 -224 q 508 -264 614 -264 q 159 -172 283 -264 q 111 -122 130 -151 q 91 -70 91 -92 q 128 -24 91 -41 q 237 -1 182 -1 m 433 304 l 561 266 q 573 264 567 264 q 600 288 586 264 q 614 334 614 312 q 555 395 614 378 l 429 431 q 417 433 422 433 q 389 410 403 433 q 374 365 374 388 q 433 304 374 322 z "},"":{"ha":926,"x_min":272,"x_max":657,"o":"m 467 663 q 600 607 544 663 q 657 471 657 551 q 600 334 657 391 q 465 278 545 278 q 329 334 385 278 q 272 470 272 391 q 329 607 272 552 q 467 663 386 663 z "},"":{"ha":833,"x_min":18,"x_max":796,"o":"m 675 701 l 675 -48 q 682 -159 675 -100 q 683 -180 683 -172 q 646 -229 683 -210 q 591 -252 626 -239 q 548 -264 557 -264 q 523 -232 523 -264 q 524 -218 523 -227 q 527 -83 527 -163 l 527 745 q 520 775 527 769 q 490 782 514 782 l 468 782 q 437 776 443 782 q 431 745 431 770 l 431 -48 q 437 -159 431 -100 q 438 -180 438 -172 q 401 -229 438 -210 q 347 -251 381 -239 q 303 -264 312 -264 q 278 -232 278 -264 q 279 -218 278 -227 q 282 -113 282 -163 l 282 340 q 275 373 282 367 q 238 382 269 380 q 170 397 201 384 q 51 510 92 429 q 18 661 18 574 q 125 897 18 821 q 264 939 186 939 q 398 928 292 939 q 553 922 451 922 q 677 924 602 922 q 705 925 690 925 q 779 904 758 925 q 796 867 796 887 q 736 810 796 827 q 685 783 694 800 q 675 701 675 766 z "},"":{"ha":897,"x_min":14,"x_max":878,"o":"m 96 248 l 96 504 q 179 779 96 682 q 327 879 237 846 q 503 909 411 909 q 661 865 604 909 q 725 738 725 814 q 719 696 725 711 q 689 644 713 680 q 685 628 685 637 q 734 530 685 603 q 848 338 819 407 q 878 196 878 269 q 803 33 878 88 q 653 -14 739 -14 q 522 40 569 -14 q 499 74 509 54 q 489 104 489 94 q 516 129 489 118 q 568 203 568 149 q 555 261 568 231 q 511 344 543 292 q 442 464 454 437 q 429 524 429 491 q 454 607 429 570 q 533 684 470 631 q 559 728 559 705 q 544 761 559 749 q 502 774 528 774 q 408 711 441 774 q 380 624 389 672 q 372 492 372 575 q 382 238 372 417 q 393 175 385 197 q 419 135 401 153 q 450 103 445 110 q 454 81 454 96 q 390 11 454 35 q 206 -14 325 -14 q 14 68 14 -14 q 21 97 14 87 q 64 133 28 106 q 96 248 98 166 z "},"":{"ha":1081,"x_min":33,"x_max":1048,"o":"m 549 944 q 806 873 685 944 q 993 682 928 802 q 1048 463 1048 578 q 974 212 1048 327 q 773 35 899 96 q 542 -18 664 -18 q 279 52 400 -18 q 89 243 155 121 q 33 463 33 347 q 108 716 33 600 q 313 892 182 830 q 549 944 420 944 m 547 852 q 255 740 374 852 q 165 612 197 685 q 134 463 134 541 q 195 258 134 353 q 359 115 256 165 q 542 73 446 73 q 829 187 709 73 q 947 463 947 301 q 887 667 947 573 q 726 810 829 760 q 547 852 646 850 m 504 424 q 488 416 491 424 q 485 376 485 409 q 491 311 485 336 q 509 294 493 302 q 534 258 534 280 q 501 221 534 232 q 391 210 468 210 q 245 265 245 210 q 271 298 245 281 q 297 345 293 311 q 301 552 301 379 q 296 616 301 599 q 275 640 291 633 q 245 675 245 654 q 334 721 245 721 q 398 718 346 721 q 428 717 410 717 q 519 720 462 717 q 570 723 555 723 q 705 686 654 723 q 756 589 756 650 q 738 525 756 554 q 691 484 720 496 q 681 474 681 479 q 696 462 681 467 q 758 418 739 446 q 785 332 777 389 q 794 303 788 310 q 822 292 800 297 q 842 262 842 286 q 809 219 842 235 q 719 203 775 203 q 615 235 646 203 q 559 364 584 267 q 504 424 546 420 m 486 612 l 481 528 l 481 524 q 496 508 480 508 q 542 523 528 508 q 555 572 555 538 q 508 636 555 636 q 491 631 495 636 q 486 612 486 626 z "},"":{"ha":1081,"x_min":33,"x_max":1048,"o":"m 549 944 q 806 873 685 944 q 993 682 928 802 q 1048 463 1048 578 q 974 212 1048 327 q 773 35 899 96 q 542 -18 664 -18 q 279 52 400 -18 q 89 243 155 121 q 33 463 33 347 q 108 716 33 600 q 313 892 182 830 q 549 944 420 944 m 547 852 q 255 740 374 852 q 165 612 197 685 q 134 463 134 541 q 195 258 134 353 q 359 115 256 165 q 542 73 446 73 q 829 187 709 73 q 947 463 947 301 q 887 667 947 573 q 726 810 829 760 q 547 852 646 850 m 547 728 q 656 704 604 728 q 688 694 679 694 q 709 697 693 694 q 720 699 714 699 q 773 661 750 699 q 796 573 796 623 q 776 516 796 538 q 722 494 755 494 q 663 532 685 494 q 612 594 636 578 q 538 618 577 618 q 479 592 501 618 q 458 524 458 567 q 475 442 458 481 q 521 378 492 402 q 614 346 557 346 q 719 380 681 346 q 746 394 735 394 q 772 381 761 394 q 783 350 783 368 q 769 300 783 328 q 736 258 755 273 q 701 247 727 252 q 663 233 687 244 q 544 208 606 208 q 364 264 443 208 q 286 353 315 298 q 256 467 256 409 q 283 575 256 523 q 358 663 310 627 q 547 728 443 728 z "},"":{"ha":1321,"x_min":0,"x_max":1310,"o":"m 191 926 l 405 926 q 468 935 439 926 q 490 938 481 938 q 553 889 522 938 q 585 789 585 840 q 568 742 585 759 q 524 725 552 725 q 455 777 484 725 q 434 809 441 802 q 415 817 427 817 q 387 763 387 817 l 387 536 q 394 485 387 500 q 422 460 401 469 q 452 443 444 451 q 460 419 460 434 q 299 361 460 361 q 108 423 108 361 q 116 444 108 437 q 151 458 123 450 q 173 476 167 463 q 182 524 179 489 q 191 750 191 609 q 167 818 191 818 q 136 795 151 818 q 90 740 109 755 q 50 724 72 724 q 14 741 28 724 q 0 783 0 758 q 35 885 0 833 q 103 936 69 936 q 122 934 111 936 q 191 926 147 928 m 1003 538 l 954 429 q 918 382 933 382 q 893 404 907 382 q 854 481 879 425 l 800 602 q 777 627 789 627 q 763 606 766 627 q 760 517 760 585 q 765 457 760 469 q 797 432 770 446 q 810 408 810 425 q 694 362 810 362 q 595 406 595 362 q 600 423 595 418 q 626 438 605 428 q 644 455 640 445 q 652 496 649 465 q 663 729 663 583 q 656 811 663 791 q 626 842 650 831 q 597 878 597 856 q 637 921 597 909 q 735 934 682 934 q 808 926 790 934 q 844 886 827 918 l 928 730 q 947 700 941 706 q 962 694 952 694 q 991 722 977 694 l 1048 834 q 1063 862 1060 857 q 1108 921 1084 907 q 1192 934 1133 934 q 1308 882 1308 934 q 1285 846 1308 862 q 1261 804 1266 831 q 1252 668 1252 748 q 1262 486 1252 562 q 1269 459 1264 467 q 1295 439 1274 452 q 1310 413 1310 429 q 1276 374 1310 385 q 1164 362 1243 362 q 1025 409 1025 362 q 1055 448 1025 424 q 1069 481 1065 457 q 1073 564 1073 506 q 1070 607 1073 597 q 1057 617 1067 617 q 1035 602 1046 617 q 1003 538 1025 586 z "},"":{"ha":694,"x_min":235,"x_max":590,"o":"m 427 970 q 536 951 488 970 q 575 926 560 943 q 589 894 590 910 q 532 820 588 863 q 305 741 429 741 q 235 791 235 741 q 242 818 235 809 q 283 853 250 827 q 321 883 314 876 q 328 899 328 890 q 319 920 328 905 q 317 930 317 924 q 347 958 317 947 q 427 970 378 969 z "},"":{"ha":694,"x_min":35,"x_max":661,"o":"m 197 973 q 280 948 250 973 q 311 881 311 924 q 260 792 311 824 q 136 757 206 757 q 63 783 91 757 q 35 852 35 810 q 78 941 35 909 q 197 973 121 973 m 547 971 q 630 946 600 971 q 661 879 661 922 q 611 790 661 822 q 486 755 556 755 q 413 781 441 755 q 385 850 385 808 q 428 939 385 907 q 547 971 471 971 z "},"":{"ha":833,"x_min":83,"x_max":750,"o":"m 321 381 l 328 396 q 335 420 335 412 q 304 438 335 438 l 264 438 q 130 434 180 438 q 115 433 121 433 q 93 441 102 433 q 83 460 83 449 q 98 513 83 471 q 123 573 113 555 q 168 604 140 604 q 188 603 176 604 q 299 597 255 597 l 381 597 q 424 611 413 597 q 464 704 435 625 q 487 742 475 734 q 532 751 499 751 q 629 741 588 751 q 652 714 652 736 q 629 663 652 704 q 607 616 607 623 q 647 596 607 596 q 706 598 690 596 q 724 600 720 600 q 750 574 750 600 q 739 520 750 558 q 715 460 727 483 q 676 429 699 429 q 631 435 669 429 q 556 439 602 439 q 515 422 528 439 q 503 396 509 412 q 496 373 496 380 q 525 356 496 356 l 642 356 q 707 357 694 356 q 724 359 720 359 q 750 333 750 359 q 739 280 750 317 q 715 220 727 242 q 676 188 699 188 l 568 197 l 447 197 q 407 184 418 197 q 375 114 396 172 q 357 63 362 70 q 313 47 345 47 q 212 59 254 47 q 182 87 182 67 q 194 115 182 97 q 222 179 222 157 q 194 197 222 197 q 130 193 170 197 q 115 193 121 193 q 93 200 102 193 q 83 220 83 208 q 98 273 83 231 q 123 332 113 315 q 168 363 140 363 q 189 362 176 363 q 254 357 229 358 q 269 357 267 357 q 282 356 277 356 q 321 381 309 356 z "},"":{"ha":1437,"x_min":0,"x_max":1428,"o":"m 650 928 l 1101 928 q 1223 943 1184 928 q 1262 953 1252 953 q 1316 928 1292 953 q 1355 856 1339 904 q 1371 762 1371 808 q 1351 694 1371 722 q 1301 667 1331 667 q 1239 711 1268 667 q 1164 777 1203 764 q 1021 797 1107 797 q 923 781 944 797 q 902 704 902 764 l 902 597 q 906 561 902 570 q 922 547 909 551 q 994 541 941 541 q 1031 555 1020 541 q 1044 608 1042 570 q 1063 664 1046 644 q 1106 684 1080 684 q 1139 674 1124 684 q 1162 647 1155 663 q 1179 572 1172 623 q 1186 472 1186 520 q 1160 321 1186 382 q 1133 283 1151 298 q 1096 269 1115 269 q 1053 327 1060 269 q 1029 391 1048 373 q 967 410 1010 410 q 924 393 937 410 q 911 336 911 377 q 916 238 911 291 q 926 170 920 185 q 963 140 932 147 q 1084 134 993 134 q 1236 180 1178 134 q 1295 264 1267 206 q 1324 308 1309 295 q 1362 320 1339 320 q 1410 295 1391 320 q 1428 231 1428 270 q 1411 138 1428 193 q 1368 41 1393 83 q 1333 -3 1347 7 q 1295 -14 1320 -14 q 1256 -8 1278 -14 q 1182 -1 1229 -1 l 576 -5 q 498 53 498 -5 q 548 115 498 94 q 588 155 588 132 q 557 192 588 184 q 415 199 527 199 q 351 194 368 199 q 325 159 325 186 q 331 139 325 146 q 363 118 338 132 q 406 60 406 96 q 209 -14 406 -14 q 51 6 102 -14 q 14 32 28 14 q 0 68 0 50 q 13 105 0 92 q 60 130 26 118 q 91 146 80 137 q 118 180 102 156 q 302 481 218 328 l 445 743 q 471 812 471 789 l 469 850 q 513 914 469 894 q 553 926 533 924 q 650 928 572 928 m 608 465 l 608 561 q 604 606 608 595 q 580 625 597 625 q 557 615 567 625 q 530 574 548 605 l 466 456 q 446 401 446 420 q 466 369 446 378 q 541 360 486 360 q 595 381 582 360 q 608 465 608 401 z "},"":{"ha":1080,"x_min":33,"x_max":1048,"o":"m 890 827 l 969 895 q 989 901 977 901 q 1016 888 1004 901 l 1026 876 q 1036 850 1036 863 q 1023 826 1036 838 l 949 764 q 941 754 941 758 q 951 739 941 751 q 1022 603 996 679 q 1048 453 1048 528 q 943 162 1048 288 q 709 9 853 56 q 533 -19 622 -19 q 296 38 410 -19 q 203 98 235 68 q 191 106 195 106 q 182 100 189 106 l 110 40 q 89 29 96 29 q 64 40 75 29 l 50 56 q 41 77 41 65 q 56 102 41 91 l 123 161 q 130 170 130 168 q 121 185 130 174 q 56 316 79 243 q 33 463 33 389 q 127 755 33 629 q 344 911 206 863 q 534 944 439 944 q 776 890 667 944 q 868 829 836 860 q 879 822 874 822 q 890 827 884 822 m 435 432 l 610 583 q 633 615 633 604 q 602 675 633 632 q 481 750 547 750 q 401 710 434 750 q 369 612 369 670 q 385 491 369 555 q 393 454 393 456 q 412 417 399 417 q 435 432 418 417 m 644 498 l 469 348 q 446 318 446 328 q 479 252 446 300 q 593 182 526 182 q 676 219 646 182 q 706 322 706 257 q 686 477 706 383 q 667 513 677 513 q 644 498 661 513 z "},"":{"ha":926,"x_min":22,"x_max":903,"o":"m 468 345 q 412 296 436 315 q 252 242 340 242 q 79 315 146 242 q 22 471 22 376 q 103 649 22 585 q 250 700 166 700 q 418 634 347 700 q 458 598 452 603 l 465 604 q 568 679 521 657 q 672 700 614 700 q 775 678 726 700 q 856 617 825 656 q 903 472 903 559 q 830 299 903 363 q 675 242 765 242 q 492 321 572 242 q 468 345 474 340 m 559 471 q 641 417 601 417 q 684 433 667 417 q 702 471 702 449 q 684 510 702 494 q 641 526 666 526 q 580 496 608 526 q 559 471 557 473 m 367 471 q 284 524 324 524 q 241 509 258 524 q 223 471 223 493 q 241 433 223 449 q 284 417 259 417 q 346 446 317 417 q 367 471 368 469 z "},"":{"ha":833,"x_min":83,"x_max":750,"o":"m 298 441 l 264 441 q 130 437 179 441 q 115 436 121 436 q 93 444 102 436 q 83 463 83 452 q 98 515 83 474 q 123 576 113 557 q 168 607 140 607 q 188 606 175 607 q 281 600 263 599 l 298 600 l 299 600 q 335 636 336 600 l 335 643 q 327 736 334 685 q 326 751 326 743 q 368 794 326 775 q 427 815 393 805 q 475 825 461 825 q 503 798 503 825 q 501 781 503 795 q 500 717 500 772 l 500 636 q 537 600 500 600 l 642 600 q 706 601 694 600 q 724 603 720 603 q 750 576 750 603 q 739 523 750 561 q 715 463 727 486 q 676 431 699 431 l 568 441 l 537 441 q 499 408 499 441 q 500 390 499 402 q 502 370 500 386 q 507 319 503 349 q 508 298 508 306 q 467 248 508 268 q 406 226 444 238 q 358 214 368 214 q 338 223 346 214 q 330 245 330 232 q 331 260 330 252 q 335 395 335 313 l 335 404 q 298 441 337 442 m 299 173 l 642 173 q 707 174 695 173 q 724 176 720 176 q 750 149 750 176 q 739 97 750 134 q 715 36 727 59 q 676 5 699 5 l 568 14 l 264 14 q 130 11 183 14 q 115 10 121 10 q 93 18 102 10 q 83 37 83 26 q 98 90 83 48 q 123 149 113 131 q 168 180 140 180 q 188 179 176 180 q 299 173 255 173 z "},"":{"ha":694,"x_min":46,"x_max":648,"o":"m 648 961 l 648 678 l 376 623 l 646 568 l 648 286 l 46 498 l 46 750 l 648 961 m 648 252 l 648 -14 l 46 -14 l 46 252 l 648 252 z "},"":{"ha":694,"x_min":46,"x_max":648,"o":"m 46 286 l 47 568 l 317 623 l 46 678 l 46 961 l 648 750 l 648 498 l 46 286 m 46 -14 l 46 252 l 648 252 l 648 -14 l 46 -14 z "},"":{"ha":833,"x_min":-7,"x_max":841,"o":"m 689 486 l 619 486 q 574 479 578 483 q 563 443 570 473 q 557 393 557 414 q 574 371 557 371 l 593 371 l 654 371 l 697 372 q 751 361 736 372 q 766 319 766 349 q 711 278 766 276 q 675 277 687 279 l 602 277 q 567 273 576 277 q 559 256 559 269 q 564 189 559 228 q 576 155 567 167 q 608 130 585 142 q 652 71 652 106 q 407 -14 652 -14 q 218 6 306 -14 q 142 73 142 23 q 188 129 142 112 q 231 161 224 142 q 242 204 236 174 q 248 250 248 235 q 220 271 248 273 l 212 270 l 176 270 l 134 269 q 83 281 98 269 q 68 322 68 293 q 84 358 68 351 q 155 366 100 366 l 215 366 q 244 370 237 366 q 251 387 251 374 q 240 450 251 421 q 211 478 230 478 l 195 477 l 161 477 l 137 477 l 121 476 q 69 488 84 476 q 54 530 54 500 q 67 565 54 557 q 124 573 81 573 q 151 576 146 574 q 156 587 156 578 q 138 618 156 595 q 122 639 135 621 q 43 722 70 709 q 1 748 9 738 q -7 782 -7 759 q 44 845 -7 827 q 220 863 95 863 q 391 850 331 863 q 434 828 418 844 q 451 791 451 812 q 434 757 451 773 q 408 720 408 732 q 443 648 408 697 q 486 616 466 616 q 542 661 509 616 q 566 709 566 692 q 563 726 566 721 q 538 753 559 732 q 522 793 522 768 q 692 863 522 863 q 801 852 774 863 q 830 829 819 846 q 841 791 841 812 q 830 753 841 766 q 789 733 819 741 q 752 714 768 727 q 705 663 735 701 q 655 602 662 611 q 648 588 648 592 q 664 578 648 578 q 688 581 668 578 q 708 581 692 581 q 764 569 749 581 q 780 528 780 557 q 727 486 780 485 q 689 486 705 487 z "},"":{"ha":833,"x_min":-3,"x_max":821,"o":"m 331 -9 q 303 -153 327 -113 q 232 -213 282 -189 q 126 -237 181 -237 q 34 -214 71 -237 q -3 -156 -3 -191 q 5 -128 -3 -139 q 26 -117 14 -117 q 39 -119 31 -117 q 59 -121 52 -121 q 86 -111 75 -121 q 97 -87 97 -101 q 95 -71 97 -81 q 92 -30 92 -50 l 92 290 q 85 424 92 396 q 48 469 78 452 q 18 488 24 481 q 12 508 12 495 q 81 568 12 553 q 317 594 199 594 q 352 564 352 594 l 352 239 q 420 134 352 134 q 455 143 439 134 q 479 168 472 153 q 492 298 492 197 q 485 431 492 395 q 476 453 482 446 q 454 469 471 460 q 419 515 419 487 q 478 567 419 552 q 699 594 589 594 q 760 530 760 594 l 759 503 l 758 474 l 757 432 l 757 168 q 791 130 757 147 q 821 90 821 116 q 707 9 821 38 q 547 -12 627 -12 q 508 -5 519 -12 q 496 20 498 1 q 474 57 493 57 q 424 29 465 57 q 331 -9 376 -3 z "},"":{"ha":694,"x_min":5,"x_max":686,"o":"m 52 696 l 83 915 q 518 766 364 891 q 686 393 686 631 q 557 62 686 167 q 329 -11 469 -11 q 105 72 190 -11 q 32 184 58 117 q 5 323 5 252 q 34 446 5 388 q 114 543 62 504 q 292 597 186 597 q 370 592 342 597 q 417 572 397 586 q 377 624 399 608 q 293 659 355 640 q 182 686 233 678 q 52 696 131 694 m 342 387 q 283 362 307 387 q 260 301 260 338 q 284 240 260 265 q 344 216 309 216 q 402 241 378 216 q 427 300 427 266 q 402 361 427 336 q 342 387 378 387 z "},"":{"ha":926,"x_min":46,"x_max":906,"o":"m 894 1042 l 894 654 l 636 654 l 604 778 l 369 778 l 696 364 l 372 -83 l 616 -83 l 634 52 l 906 52 l 906 -347 l 46 -347 l 46 -44 l 356 363 l 46 736 l 46 1042 l 894 1042 z "},"":{"ha":926,"x_min":16,"x_max":910,"o":"m 16 1042 l 910 1042 l 910 813 l 812 813 l 812 -118 l 910 -118 l 910 -347 l 480 -347 l 480 -118 l 556 -118 l 556 813 l 369 813 l 369 -118 l 444 -118 l 444 -347 l 16 -347 l 16 -118 l 115 -118 l 115 813 l 16 813 l 16 1042 z "},"":{"ha":947,"x_min":28,"x_max":918,"o":"m 130 0 l 130 456 l 28 456 l 28 667 l 918 667 l 918 456 l 817 456 l 817 0 l 549 0 l 549 456 l 398 456 l 398 0 l 130 0 z "},"":{"ha":694,"x_min":-1,"x_max":696,"o":"m -1 -334 l 43 -61 q 107 -75 82 -75 q 156 -62 134 -75 q 186 -27 177 -49 q 192 8 191 -14 q 193 145 193 29 l 193 494 l 193 581 q 198 752 193 704 q 248 900 209 842 q 550 1042 342 1042 q 696 1028 607 1042 l 652 755 q 586 770 612 770 q 510 722 530 770 q 503 647 503 705 l 503 208 q 502 -13 503 24 q 494 -85 500 -50 q 369 -288 470 -215 q 144 -349 284 -349 q 33 -338 84 -349 q -1 -334 10 -334 z "},"":{"ha":527,"x_min":19,"x_max":509,"o":"m 277 779 q 425 728 373 779 q 458 629 458 695 l 458 572 q 464 497 458 514 q 491 478 469 481 q 509 456 509 475 q 467 390 509 420 q 376 359 425 359 q 300 390 328 359 q 287 399 293 399 q 267 390 280 399 q 165 359 222 359 q 71 382 107 359 q 19 475 19 416 q 77 568 19 532 q 230 604 136 604 q 258 608 252 604 q 263 625 263 611 q 227 701 263 701 q 182 669 207 701 q 98 617 142 617 q 60 630 75 617 q 45 665 45 644 q 87 726 45 696 q 173 764 119 749 q 277 779 227 779 m 247 538 q 217 525 230 538 q 204 494 204 511 q 236 455 204 455 q 267 508 267 455 q 247 538 267 538 z "},"":{"ha":558,"x_min":22,"x_max":536,"o":"m 296 779 q 438 740 378 779 q 509 667 482 712 q 536 570 536 621 q 448 418 536 480 q 257 359 364 359 q 86 415 153 359 q 22 556 22 469 q 100 714 22 653 q 296 779 182 779 m 262 677 q 224 634 224 677 q 239 550 224 603 q 267 481 254 496 q 295 467 278 467 q 330 505 330 467 q 317 596 330 547 q 289 664 304 645 q 262 677 278 677 z "},"":{"ha":926,"x_min":31,"x_max":895,"o":"m 38 0 l 38 249 l 176 249 q 89 325 117 288 q 31 518 31 400 q 87 732 31 630 q 252 897 146 839 q 463 949 347 949 q 782 812 659 949 q 867 672 836 753 q 895 517 895 595 q 831 316 895 394 q 751 249 806 286 l 888 249 l 888 0 l 503 0 l 503 229 q 582 311 559 256 q 597 382 590 330 q 604 476 604 434 q 581 615 604 560 q 532 674 566 650 q 464 697 498 697 q 395 674 429 697 q 347 614 362 650 q 323 474 323 560 q 347 311 323 369 q 424 229 371 254 l 424 0 l 38 0 z "},"":{"ha":1110,"x_min":18,"x_max":1092,"o":"m 1015 317 l 711 317 q 693 314 697 317 q 688 298 688 310 q 721 226 688 262 q 839 172 770 172 q 915 185 873 172 q 984 218 958 199 q 1019 236 1008 236 q 1053 211 1034 236 q 1071 162 1071 185 q 1048 106 1071 136 q 986 51 1025 77 q 755 -18 879 -18 q 637 1 697 -18 q 538 51 578 20 q 518 62 525 62 q 496 53 513 62 q 363 2 438 23 q 237 -18 288 -18 q 84 25 141 -18 q 18 162 18 75 q 143 345 18 285 q 231 374 189 366 q 358 386 273 382 q 387 396 381 387 q 393 439 393 406 q 376 532 393 498 q 329 566 359 566 q 291 551 309 566 q 248 500 273 536 q 189 436 217 456 q 129 417 161 417 q 74 437 96 417 q 52 487 52 457 q 92 569 52 530 q 206 637 132 608 q 402 676 304 676 q 487 667 441 676 q 560 646 532 659 q 579 640 574 640 q 600 646 584 640 q 678 667 629 659 q 770 675 727 675 q 969 618 884 675 q 1061 522 1027 579 q 1092 409 1092 469 q 1073 338 1092 363 q 1052 321 1063 326 q 1015 317 1040 317 m 720 443 l 805 443 q 831 450 824 443 q 838 477 838 457 q 817 537 838 514 q 763 561 796 561 q 705 536 727 561 q 681 475 681 508 q 689 449 681 456 q 720 443 696 443 m 366 289 q 314 265 335 289 q 292 206 292 241 q 309 154 292 176 q 349 132 325 132 q 402 218 402 132 q 395 275 402 261 q 366 289 388 288 z "},"":{"ha":836,"x_min":-1,"x_max":819,"o":"m 803 567 l 762 536 q 753 523 753 529 q 759 509 753 518 q 813 334 813 429 q 675 77 813 178 q 384 -18 548 -18 q 140 56 243 -18 q 122 64 128 64 q 100 52 116 64 l 60 22 q 40 16 51 16 q 13 32 26 16 q -1 63 -1 47 q 13 87 -1 76 l 50 114 q 65 134 65 126 q 58 152 65 138 q 23 311 23 216 q 144 573 23 469 q 440 675 262 675 q 675 602 586 675 q 696 591 689 591 q 709 597 701 591 l 757 632 q 778 641 768 641 q 806 625 792 641 q 819 593 819 609 q 803 567 819 579 m 469 321 l 380 255 q 367 237 367 246 q 389 186 367 219 q 448 149 414 149 q 491 169 475 149 q 507 226 507 190 q 499 309 507 262 q 488 332 496 332 q 469 321 483 332 m 366 346 l 456 411 q 468 429 468 420 q 458 460 468 436 q 388 519 435 519 q 344 499 361 519 q 327 446 327 479 q 334 376 327 430 q 335 363 335 367 q 350 337 338 337 q 366 346 355 337 z "},"":{"ha":669,"x_min":14,"x_max":660,"o":"m 358 675 q 459 635 416 675 q 505 528 505 592 q 465 429 505 470 q 354 382 420 382 q 253 426 295 382 q 211 528 211 470 q 254 632 211 589 q 358 675 297 675 m 349 315 q 413 292 389 315 q 437 227 437 268 q 418 147 437 189 q 366 66 414 137 q 322 -59 322 -1 q 335 -107 322 -88 q 369 -125 349 -125 q 399 -112 390 -125 q 412 -62 408 -99 q 457 43 418 7 q 558 79 496 79 q 629 55 602 79 q 660 -16 660 27 q 600 -163 660 -92 q 489 -240 558 -212 q 340 -268 420 -268 q 185 -235 263 -268 q 58 -140 104 -201 q 14 -14 14 -82 q 78 118 14 64 q 178 173 95 132 q 222 202 207 188 q 248 239 237 216 q 288 301 269 288 q 349 315 307 315 z "},"":{"ha":428,"x_min":56,"x_max":373,"o":"m 214 675 q 315 635 273 675 q 361 528 361 592 q 321 429 361 470 q 210 382 277 382 q 109 426 151 382 q 67 528 67 470 q 110 632 67 589 q 214 675 153 675 m 217 307 q 294 217 245 307 q 373 -64 373 71 q 338 -194 373 -141 q 214 -259 296 -259 q 111 -216 154 -259 q 56 -54 56 -158 q 80 95 56 14 q 144 237 104 176 q 217 307 189 307 z "},"":{"ha":694,"x_min":46,"x_max":648,"o":"m 351 0 l 351 155 l 46 155 l 46 421 l 648 421 l 648 0 l 351 0 z "},"":{"ha":926,"x_min":0,"x_max":926,"o":"m 926 1148 l 926 911 l 723 911 l 527 0 l 186 0 l 134 307 l 0 307 l 0 544 l 295 544 l 315 437 q 325 351 320 413 q 330 258 330 290 q 330 233 330 251 l 347 233 q 395 623 345 355 l 513 1148 l 926 1148 z "},"":{"ha":833,"x_min":-60,"x_max":804,"o":"m 557 456 q 519 382 524 449 q 484 92 513 297 q 448 -48 472 5 q 378 -145 425 -101 q 164 -231 287 -231 q -22 -163 49 -231 q -60 -81 -60 -127 q -35 -12 -60 -39 q 31 16 -9 16 q 86 -4 65 16 q 105 -41 105 -22 l 104 -74 q 115 -98 104 -88 q 140 -107 125 -107 q 189 -74 172 -107 q 222 58 205 -41 q 249 257 236 135 q 261 431 261 378 q 255 452 261 446 q 231 457 248 457 q 224 457 228 457 q 200 455 205 455 q 185 473 185 455 q 189 511 185 482 q 195 548 193 539 q 205 569 198 560 q 219 577 213 577 l 262 575 q 291 605 286 574 q 314 709 300 676 q 359 777 327 742 q 582 876 448 876 q 748 823 682 876 q 804 714 804 779 q 775 653 804 679 q 708 628 747 628 q 655 647 677 628 q 633 693 633 666 q 633 704 633 698 q 634 714 634 712 q 624 744 634 732 q 598 755 614 755 q 551 718 568 755 q 538 628 538 692 q 548 585 538 595 q 588 575 558 575 q 603 575 596 575 q 624 576 614 576 q 653 543 653 576 q 642 482 653 510 q 616 454 630 454 l 557 456 z "},"":{"ha":694,"x_min":9,"x_max":686,"o":"m 152 484 l 9 585 q 67 706 39 663 q 233 806 134 806 q 277 801 258 806 q 386 766 296 796 q 472 742 456 742 q 543 791 511 742 l 686 689 q 639 585 659 619 q 591 522 619 551 q 463 465 536 465 q 311 507 427 465 q 221 532 241 532 q 152 484 186 532 m 152 122 l 9 224 q 67 345 39 302 q 233 445 134 445 q 277 440 258 445 q 386 405 296 435 q 472 380 456 380 q 543 429 512 380 l 686 328 q 639 224 659 258 q 591 160 619 190 q 463 104 536 104 q 311 145 432 104 q 220 170 240 170 q 152 122 185 170 z "},"":{"ha":935,"x_min":14,"x_max":920,"o":"m 14 0 l 316 926 l 614 926 l 920 0 l 14 0 m 378 249 l 550 249 l 467 625 l 378 249 z "},"":{"ha":742,"x_min":18,"x_max":723,"o":"m 299 659 q 345 642 325 659 q 364 602 364 625 q 354 565 364 585 q 289 465 343 546 q 243 361 243 397 q 262 307 243 340 q 355 158 280 274 q 368 117 368 139 q 350 76 368 95 q 309 58 331 58 q 228 99 282 58 q 107 210 174 140 q 18 361 18 306 q 43 428 18 391 q 131 532 67 465 q 235 631 198 603 q 299 659 272 659 m 654 660 q 699 643 680 660 q 719 603 719 625 q 709 567 719 585 q 644 465 699 548 q 598 362 598 397 q 616 307 598 340 q 710 159 635 274 q 723 118 723 139 q 705 77 723 96 q 664 58 686 58 q 583 99 637 58 q 462 212 528 140 q 373 362 373 307 q 397 429 373 392 q 485 533 422 467 q 590 632 553 604 q 654 660 627 660 z "},"":{"ha":742,"x_min":18,"x_max":723,"o":"m 444 659 q 515 624 471 659 q 634 507 558 589 q 704 420 685 451 q 723 361 723 389 q 612 188 723 300 q 432 58 484 58 q 391 76 410 58 q 373 117 373 95 q 382 150 373 134 q 444 246 391 165 q 498 361 498 329 q 452 465 498 397 q 387 565 397 547 q 377 602 377 584 q 397 642 377 625 q 444 659 416 659 m 89 660 q 160 625 117 660 q 279 507 203 591 q 349 421 330 452 q 368 362 368 390 q 258 189 368 301 q 77 58 129 58 q 37 77 55 58 q 18 118 18 96 q 27 150 18 134 q 89 248 36 166 q 143 363 143 330 q 98 465 143 397 q 33 567 43 548 q 22 603 22 585 q 42 643 22 626 q 89 660 62 660 z "},"":{"ha":1250,"x_min":49,"x_max":1202,"o":"m 209 302 q 321 257 273 302 q 369 140 369 212 q 321 26 369 73 q 209 -18 273 -18 q 97 26 144 -18 q 49 142 49 73 q 97 257 49 212 q 209 302 144 301 m 625 302 q 737 257 690 302 q 785 140 785 212 q 737 26 785 73 q 625 -18 690 -18 q 513 26 561 -18 q 465 142 465 73 q 513 257 465 212 q 625 302 561 301 m 1042 302 q 1154 257 1107 302 q 1202 140 1202 212 q 1154 26 1202 72 q 1042 -18 1107 -18 q 930 26 978 -18 q 882 142 882 73 q 930 257 882 212 q 1042 302 978 300 z "},"":{"ha":1148,"x_min":0,"x_max":1148,"o":"m 903 469 l 1031 194 q 1062 144 1050 156 q 1099 128 1074 132 q 1148 79 1148 121 q 1088 7 1148 29 q 893 -14 1029 -14 q 666 -1 740 -14 q 612 23 632 5 q 592 68 592 42 q 603 100 592 89 q 642 121 613 111 q 673 157 673 132 q 618 211 673 203 q 452 219 559 219 q 345 208 362 219 q 326 184 334 201 q 317 150 317 166 q 323 131 317 135 q 361 116 329 126 q 402 67 402 104 q 209 -14 402 -14 q 47 1 99 -14 q 0 64 0 16 q 11 96 0 85 q 48 117 21 108 q 115 161 92 133 q 180 281 138 189 l 275 491 q 346 664 328 606 q 365 776 364 721 q 372 857 366 834 q 401 901 378 880 q 520 949 448 949 q 651 895 589 949 q 903 469 738 822 m 431 383 l 564 383 q 601 399 601 383 q 550 509 601 422 q 515 563 527 549 q 489 576 503 576 q 448 531 465 576 q 429 483 446 525 q 400 400 400 414 q 431 383 400 383 m 475 1229 q 554 1218 524 1229 q 585 1189 585 1206 q 578 1171 585 1183 q 575 1159 575 1164 q 582 1142 575 1149 q 619 1113 589 1135 l 633 1102 q 667 1050 667 1076 q 597 1000 667 1000 q 371 1079 474 1000 q 313 1155 313 1124 q 359 1207 313 1187 q 475 1229 405 1228 z "},"":{"ha":1148,"x_min":0,"x_max":1148,"o":"m 903 469 l 1031 194 q 1062 144 1050 156 q 1099 128 1074 132 q 1148 79 1148 121 q 1088 7 1148 29 q 893 -14 1029 -14 q 666 -1 740 -14 q 612 23 632 5 q 592 68 592 42 q 603 100 592 89 q 642 121 613 111 q 673 157 673 132 q 618 211 673 203 q 452 219 559 219 q 345 208 362 219 q 326 184 334 201 q 317 150 317 166 q 323 131 317 135 q 361 116 329 126 q 402 67 402 104 q 209 -14 402 -14 q 47 1 99 -14 q 0 64 0 16 q 11 96 0 85 q 48 117 21 108 q 115 161 92 133 q 180 281 138 189 l 275 491 q 346 664 328 606 q 365 776 364 721 q 372 857 366 834 q 401 901 378 880 q 520 949 448 949 q 651 895 589 949 q 903 469 738 822 m 431 383 l 564 383 q 601 399 601 383 q 550 509 601 422 q 515 563 527 549 q 489 576 503 576 q 448 531 465 576 q 429 483 446 525 q 400 400 400 414 q 431 383 400 383 m 391 1236 q 440 1230 416 1237 q 520 1199 464 1223 q 590 1170 578 1174 q 618 1160 616 1160 q 640 1154 632 1154 q 659 1171 656 1154 q 659 1194 659 1172 q 678 1224 659 1211 q 724 1238 697 1238 q 788 1212 764 1238 q 812 1143 812 1186 q 775 1047 812 1088 q 688 1006 738 1006 q 604 1024 659 1006 q 500 1069 549 1042 q 435 1093 455 1093 q 419 1088 427 1093 q 412 1079 412 1084 l 413 1044 q 393 1022 413 1032 q 350 1011 374 1011 q 298 1034 325 1011 q 271 1115 271 1057 q 302 1201 271 1169 q 391 1236 334 1233 z "},"":{"ha":1081,"x_min":33,"x_max":1049,"o":"m 548 945 q 852 845 722 945 q 996 667 941 777 q 1049 450 1049 559 q 943 164 1049 290 q 709 10 854 57 q 531 -18 621 -18 q 307 31 414 -18 q 104 209 177 90 q 33 463 33 324 q 124 748 33 625 q 343 909 205 858 q 548 945 435 945 m 484 750 q 393 699 427 750 q 368 609 368 661 q 399 432 368 532 q 477 253 430 331 q 529 200 498 220 q 592 180 560 180 q 675 219 644 180 q 707 321 707 258 q 680 498 707 403 q 612 660 654 593 q 552 725 586 701 q 484 750 518 749 m 399 1236 q 448 1230 424 1237 q 528 1199 472 1223 q 598 1170 586 1174 q 627 1160 625 1160 q 648 1154 640 1154 q 667 1171 665 1154 q 667 1194 667 1172 q 686 1224 667 1211 q 732 1238 705 1238 q 796 1212 772 1238 q 820 1143 820 1186 q 783 1047 820 1088 q 696 1006 746 1006 q 612 1024 667 1006 q 508 1069 557 1042 q 444 1093 463 1093 q 427 1088 435 1093 q 420 1079 420 1084 l 421 1044 q 401 1022 421 1032 q 358 1011 382 1011 q 306 1034 333 1011 q 279 1115 279 1057 q 311 1201 279 1169 q 399 1236 342 1233 z "},"":{"ha":1504,"x_min":33,"x_max":1495,"o":"m 1253 0 l 671 0 q 591 -6 639 0 q 515 -11 551 -11 q 214 91 340 -11 q 100 229 146 145 q 33 475 33 349 q 115 738 33 617 q 324 903 192 850 q 515 940 418 940 q 632 932 538 940 q 732 928 696 928 l 1178 928 q 1268 932 1238 928 q 1332 949 1298 936 q 1356 953 1343 953 q 1419 916 1395 953 q 1454 838 1440 885 q 1468 753 1468 791 q 1448 690 1468 715 q 1395 666 1427 666 q 1326 712 1357 666 q 1291 758 1305 745 q 1254 779 1278 770 q 1112 795 1206 795 q 1027 780 1048 795 q 1011 757 1015 771 q 1008 703 1008 743 l 1008 594 q 1011 559 1008 568 q 1028 547 1015 551 q 1089 540 1049 540 q 1142 569 1131 540 q 1151 618 1145 576 q 1172 667 1156 649 q 1211 684 1187 684 q 1291 485 1291 684 q 1255 307 1291 370 q 1201 269 1234 269 q 1168 283 1179 269 q 1155 333 1158 298 q 1072 410 1148 410 q 1024 391 1036 410 q 1013 315 1013 372 q 1031 163 1013 206 q 1066 140 1038 146 q 1173 134 1093 134 q 1241 141 1219 134 q 1290 169 1264 148 q 1353 254 1320 193 q 1431 311 1385 311 q 1478 290 1460 311 q 1495 234 1495 269 q 1477 140 1495 192 q 1430 43 1459 88 q 1352 -18 1390 -18 q 1301 -6 1341 -18 q 1253 0 1279 1 m 470 753 q 389 713 420 753 q 358 609 358 673 q 406 371 358 505 q 485 230 439 279 q 581 181 530 181 q 663 220 631 181 q 695 323 695 260 q 668 497 695 401 q 601 662 642 593 q 470 753 548 751 z "},"":{"ha":1228,"x_min":23,"x_max":1210,"o":"m 1146 304 l 828 304 q 805 289 805 304 q 842 214 805 253 q 958 164 887 164 q 1101 210 1033 164 q 1130 222 1120 222 q 1165 197 1147 222 q 1183 150 1183 173 q 1162 101 1183 128 q 1107 52 1141 74 q 873 -18 1000 -18 q 755 -2 817 -18 q 661 39 693 15 q 644 47 650 47 q 627 41 638 47 q 517 -2 587 15 q 385 -18 448 -18 q 146 54 242 -18 q 23 305 23 149 q 170 595 23 488 q 446 675 281 675 q 654 618 558 675 q 663 614 660 614 q 677 620 668 614 q 895 676 767 676 q 1099 606 1009 676 q 1210 406 1210 519 q 1192 330 1210 363 q 1146 304 1178 304 m 859 433 l 913 433 q 947 441 937 433 q 957 466 957 448 q 937 531 957 506 q 884 555 917 555 q 826 531 849 555 q 803 471 803 507 q 812 440 803 446 q 859 433 821 433 m 390 522 q 344 500 361 522 q 328 444 328 479 q 341 334 328 403 q 372 214 354 265 q 402 165 382 183 q 447 148 422 148 q 505 233 505 148 q 486 375 505 294 q 446 488 468 455 q 390 522 425 520 z "},"":{"ha":833,"x_min":31,"x_max":804,"o":"m 346 481 l 646 481 q 740 484 723 481 q 765 487 760 487 q 792 476 781 487 q 804 448 804 465 q 787 370 804 425 q 753 281 770 315 q 695 235 728 235 l 538 249 l 295 249 q 98 243 172 249 q 77 242 85 242 q 44 253 57 242 q 31 281 31 264 q 52 358 31 298 q 88 448 73 419 q 154 493 113 493 q 184 491 165 493 q 346 481 279 481 z "},"":{"ha":1186,"x_min":0,"x_max":1186,"o":"m 315 481 l 1028 481 q 1122 484 1105 481 q 1147 487 1143 487 q 1175 476 1164 487 q 1186 448 1186 465 q 1169 370 1186 425 q 1135 281 1152 314 q 1078 235 1111 235 l 920 249 l 264 249 q 68 243 142 249 q 46 242 55 242 q 13 253 26 242 q 0 281 0 264 q 21 358 0 298 q 58 448 42 419 q 123 493 83 493 q 153 491 135 493 q 315 481 248 481 z "},"":{"ha":777,"x_min":58,"x_max":726,"o":"m 294 945 q 337 931 318 945 q 357 901 357 918 q 344 878 357 891 q 282 804 300 833 q 265 744 265 774 q 288 705 265 722 q 349 640 332 671 q 367 566 367 608 q 324 455 367 499 q 217 410 281 410 q 99 467 145 410 q 58 585 58 517 q 216 905 58 749 q 294 945 255 944 m 653 945 q 697 931 677 945 q 716 901 716 918 q 703 878 716 891 q 642 804 659 833 q 625 744 625 774 q 647 705 625 722 q 709 640 691 671 q 726 566 726 608 q 684 455 726 499 q 576 410 641 410 q 458 467 505 410 q 418 585 418 517 q 576 905 418 749 q 653 945 614 944 z "},"":{"ha":777,"x_min":50,"x_max":718,"o":"m 559 944 q 677 888 631 944 q 718 770 718 838 q 676 604 718 688 q 560 449 635 519 q 483 410 519 410 q 439 424 458 410 q 420 454 420 437 q 433 477 420 464 q 494 551 477 522 q 511 611 511 581 q 488 650 511 633 q 427 714 445 683 q 409 789 409 746 q 451 900 409 856 q 559 944 493 943 m 199 944 q 317 888 271 944 q 358 769 358 838 q 316 604 358 688 q 200 449 275 519 q 123 410 159 410 q 79 424 98 410 q 60 454 60 437 q 73 477 60 464 q 134 551 117 522 q 151 611 151 581 q 128 650 151 633 q 67 715 85 684 q 50 789 50 746 q 92 900 50 856 q 199 944 134 943 z "},"":{"ha":416,"x_min":58,"x_max":367,"o":"m 294 945 q 337 931 318 945 q 357 901 357 918 q 344 878 357 891 q 282 804 300 833 q 265 744 265 774 q 288 705 265 722 q 349 640 332 671 q 367 566 367 608 q 324 455 367 499 q 217 410 281 410 q 99 467 145 410 q 58 585 58 517 q 216 905 58 749 q 294 945 255 944 z "},"":{"ha":417,"x_min":50,"x_max":358,"o":"m 199 944 q 317 888 271 944 q 358 770 358 838 q 316 604 358 688 q 200 449 275 519 q 123 410 159 410 q 79 424 98 410 q 60 454 60 437 q 73 477 60 464 q 134 551 117 522 q 151 611 151 581 q 128 650 151 633 q 67 715 85 684 q 50 789 50 746 q 92 900 50 856 q 199 944 134 943 z "},"":{"ha":833,"x_min":83,"x_max":750,"o":"m 419 741 q 491 711 461 741 q 520 640 520 682 q 490 565 520 594 q 416 536 459 536 q 345 566 375 536 q 315 637 315 596 q 345 711 315 681 q 419 741 375 741 m 419 258 q 491 228 461 258 q 520 156 520 198 q 490 81 520 110 q 416 52 459 52 q 345 82 375 52 q 315 154 315 113 q 345 228 315 197 q 419 258 375 258 m 299 477 l 642 477 q 707 478 695 477 q 724 480 720 480 q 750 453 750 480 q 739 400 750 438 q 715 340 727 363 q 676 309 699 309 l 568 318 l 264 318 q 130 314 183 318 q 115 313 121 313 q 93 321 102 313 q 83 340 83 329 q 98 393 83 351 q 123 453 113 435 q 168 484 140 484 q 188 483 176 484 q 299 477 254 477 z "},"":{"ha":926,"x_min":102,"x_max":824,"o":"m 463 962 l 824 463 l 463 -36 l 102 463 l 463 962 m 463 839 l 189 463 l 463 87 l 736 463 l 463 839 z "},"":{"ha":860,"x_min":0,"x_max":860,"o":"m 672 342 l 583 96 q 516 -54 549 4 q 439 -153 482 -112 q 227 -237 351 -237 q 64 -184 127 -237 q 16 -80 16 -143 q 50 8 16 -28 q 132 43 83 43 q 211 11 181 43 q 230 -16 225 -4 q 244 -66 235 -27 q 278 -96 252 -96 q 313 -78 299 -96 q 328 -33 328 -60 q 292 74 328 -1 l 129 422 q 90 490 103 476 q 33 523 77 503 q 10 544 20 528 q 0 575 0 560 q 120 657 0 635 q 302 671 200 671 q 416 656 374 671 q 471 589 471 637 q 456 549 471 572 q 441 511 441 528 q 448 477 441 494 q 478 417 455 459 q 524 370 504 370 q 567 411 545 370 q 589 492 589 453 q 572 543 589 523 q 547 595 547 573 q 593 650 547 629 q 716 671 639 671 q 860 602 860 671 q 845 561 860 576 q 792 532 831 546 q 741 492 760 520 q 672 342 711 446 m 307 973 q 390 948 360 973 q 420 881 420 924 q 370 792 420 824 q 245 757 316 757 q 173 783 201 757 q 144 852 144 810 q 188 941 144 909 q 307 973 231 973 m 656 971 q 740 946 709 971 q 770 879 770 922 q 721 790 770 822 q 595 755 666 755 q 523 781 551 755 q 494 850 494 808 q 537 939 494 907 q 656 971 581 971 z "},"":{"ha":1083,"x_min":0,"x_max":1083,"o":"m 298 940 q 500 926 431 940 q 552 902 532 920 q 571 861 571 884 q 556 825 571 843 q 534 785 534 797 q 573 707 534 760 q 621 672 598 672 q 648 683 635 672 q 684 720 662 693 q 710 773 710 753 q 707 791 710 785 q 685 821 704 798 q 671 863 671 836 q 879 939 671 939 q 1031 928 996 939 q 1068 903 1054 922 q 1083 862 1083 884 q 1066 820 1083 834 q 1007 798 1049 806 q 940 769 968 791 q 836 665 911 747 q 721 518 743 566 q 698 378 698 471 q 704 232 698 299 q 717 175 707 191 q 756 143 726 159 q 806 79 806 117 q 533 -14 806 -14 q 321 8 421 -14 q 237 81 237 26 q 289 141 237 123 q 337 176 328 155 q 359 397 359 222 q 348 481 359 451 q 300 559 337 511 q 142 739 224 659 q 75 786 107 774 q 19 811 28 803 q 0 854 0 827 q 68 920 0 900 q 298 940 137 940 m 427 1238 q 507 1213 478 1238 q 536 1147 536 1189 q 488 1059 536 1090 q 335 1014 418 1014 q 260 1039 289 1014 q 232 1104 232 1063 q 275 1188 232 1156 q 347 1224 304 1211 q 427 1238 390 1238 m 816 1247 q 896 1223 867 1247 q 925 1156 925 1199 q 876 1068 925 1099 q 724 1023 806 1023 q 649 1048 677 1023 q 621 1114 621 1073 q 663 1198 621 1165 q 735 1234 692 1220 q 816 1247 779 1248 z "},"":{"ha":185,"x_min":-235,"x_max":410,"o":"m -50 250 l 156 597 q 267 798 237 739 q 299 845 283 833 q 346 857 315 857 q 410 823 410 857 q 357 724 410 802 q 245 545 321 673 l 35 191 q -36 63 16 157 q -87 -31 -80 -16 q -119 -81 -105 -68 q -155 -94 -133 -94 q -235 -56 -235 -94 q -220 -24 -235 -45 q -50 250 -128 117 z "},"":{"ha":833,"x_min":14,"x_max":833,"o":"m 456 256 q 624 138 509 138 q 707 148 677 138 q 768 186 736 158 q 798 203 787 203 q 824 188 814 203 q 833 151 833 174 q 810 78 833 113 q 753 33 787 43 q 739 29 744 31 q 633 -7 679 4 q 511 -18 587 -18 q 288 53 384 -18 q 151 249 192 123 l 75 249 q 14 301 14 249 q 33 340 14 335 q 132 346 53 346 q 129 390 129 375 l 129 401 l 75 401 q 14 454 14 401 q 37 494 14 490 q 140 498 60 498 q 263 709 170 635 q 497 782 355 782 q 623 757 560 782 q 650 749 644 749 q 677 755 661 749 q 703 762 692 762 q 779 705 739 762 q 818 600 818 648 q 801 546 818 568 q 755 524 783 524 q 665 579 721 524 q 555 628 614 628 q 451 595 479 628 q 419 503 423 562 q 587 504 466 504 q 636 491 623 504 q 650 452 650 479 q 638 420 650 431 q 590 410 627 410 q 421 408 469 410 q 428 350 422 389 q 587 351 473 351 q 636 339 623 351 q 650 298 650 326 q 639 269 650 280 q 590 258 629 258 q 456 256 536 258 z "},"":{"ha":387,"x_min":18,"x_max":368,"o":"m 299 660 q 345 643 325 660 q 364 603 364 625 q 354 566 364 585 q 289 465 343 547 q 243 362 243 398 q 262 308 243 340 q 355 159 280 275 q 368 118 368 139 q 350 77 368 96 q 309 58 331 58 q 228 99 282 58 q 107 211 174 140 q 18 362 18 307 q 43 429 18 392 q 131 533 67 466 q 235 632 198 604 q 299 660 272 660 z "},"":{"ha":387,"x_min":18,"x_max":368,"o":"m 89 660 q 160 625 117 660 q 279 507 203 591 q 349 421 330 452 q 368 362 368 390 q 258 189 368 301 q 77 58 129 58 q 37 77 55 58 q 18 118 18 96 q 27 150 18 134 q 89 248 36 166 q 143 362 143 330 q 98 465 143 397 q 33 566 43 547 q 22 603 22 585 q 42 643 22 626 q 89 660 62 660 z "},"":{"ha":983,"x_min":9,"x_max":971,"o":"m 425 549 l 435 549 q 465 543 456 549 q 473 522 474 536 l 468 441 q 463 413 467 418 q 447 404 460 408 q 422 380 429 399 q 416 318 416 362 l 416 204 q 421 149 416 164 q 456 92 427 134 q 464 64 464 79 q 243 -14 464 -14 q 14 79 14 -14 q 23 113 14 102 q 66 139 33 124 q 110 199 102 155 q 121 341 121 265 q 110 389 121 376 q 66 401 98 402 q 19 405 29 401 q 10 423 9 409 l 16 509 q 22 535 16 530 q 54 541 28 540 q 80 566 80 543 q 62 609 80 575 q 31 721 31 665 q 105 869 31 813 q 210 918 151 903 q 361 933 270 933 q 604 909 484 933 q 802 846 724 886 q 886 753 886 803 q 874 712 886 733 q 845 679 863 691 q 750 638 809 654 q 630 623 690 623 q 522 669 547 623 q 511 707 518 677 q 484 755 503 742 q 420 777 463 768 q 336 786 378 786 q 241 732 241 786 q 341 618 241 679 q 384 588 372 600 q 404 557 395 577 q 425 549 408 549 m 893 555 l 893 235 q 902 166 893 188 q 936 126 910 144 q 971 74 971 100 q 912 6 971 27 q 720 -14 854 -14 q 593 -5 627 -14 q 530 57 530 11 q 534 78 530 71 q 562 109 538 84 q 588 323 588 137 q 579 380 588 363 q 546 409 570 398 q 504 463 504 428 q 559 528 504 506 q 721 577 634 556 q 856 597 808 597 q 893 555 893 597 z "},"":{"ha":977,"x_min":9,"x_max":964,"o":"m 884 538 l 884 321 q 889 152 884 176 q 922 115 893 128 q 956 96 947 105 q 964 68 964 86 q 948 28 964 46 q 906 1 932 9 q 728 -14 858 -14 q 625 -10 656 -14 q 571 3 594 -7 q 531 58 531 20 q 535 78 531 71 q 562 109 539 84 q 584 193 578 125 q 591 400 591 260 q 583 627 591 583 q 556 675 578 654 q 481 726 534 696 q 309 783 377 783 q 259 769 277 783 q 240 730 240 755 q 341 618 240 680 q 384 588 373 599 q 404 557 395 578 q 425 549 408 549 l 490 549 q 529 524 529 549 q 529 522 529 523 l 524 441 q 516 410 522 417 q 488 404 509 404 q 475 404 483 404 q 458 405 465 405 q 425 386 435 405 q 416 318 416 366 l 416 204 q 421 149 416 164 q 456 92 427 134 q 464 64 464 80 q 243 -14 464 -14 q 14 79 14 -14 q 23 113 14 102 q 66 139 33 124 q 110 199 102 155 q 121 341 121 265 q 110 389 121 376 q 66 401 98 402 q 19 405 29 401 q 10 423 9 409 l 16 509 q 22 535 16 530 q 54 541 28 540 q 80 566 80 543 q 62 609 80 575 q 31 720 31 666 q 98 863 31 802 q 188 914 134 895 q 298 933 242 933 q 465 896 368 933 l 488 887 q 551 866 536 866 q 622 883 565 866 q 848 926 766 926 q 901 860 901 926 q 895 760 901 840 q 884 538 888 648 z "},"":{"ha":1000,"x_min":45,"x_max":955,"o":"m 375 335 l 375 397 l 376 410 l 376 418 q 367 438 376 435 q 246 442 357 442 q 218 438 227 442 q 196 419 208 433 q 163 388 176 395 q 134 380 151 380 q 70 421 94 380 q 45 530 45 463 q 72 656 45 612 q 130 694 95 694 q 159 684 148 694 q 205 625 170 674 q 258 590 228 593 q 347 587 291 587 q 371 606 371 587 l 370 653 l 371 683 q 362 747 371 726 q 329 781 353 767 q 287 810 295 802 q 279 838 279 819 q 351 911 279 882 q 500 939 420 939 q 660 907 588 939 q 721 838 721 878 q 713 810 721 819 q 672 781 705 801 q 631 717 633 759 q 629 608 629 689 q 650 587 629 587 q 693 588 675 588 q 766 596 752 587 q 823 663 781 604 q 871 694 846 694 q 932 649 909 694 q 955 530 955 605 q 916 401 955 438 q 866 380 892 380 q 837 388 849 380 q 804 419 825 395 q 783 438 792 433 q 755 442 773 442 q 641 439 658 442 q 625 419 625 436 l 625 359 l 625 292 q 625 258 625 264 q 633 238 625 241 q 754 234 642 234 q 783 238 773 234 q 804 256 792 242 q 837 288 825 280 q 866 296 849 296 q 930 255 906 296 q 955 146 955 214 q 928 20 955 64 q 871 -18 905 -18 q 842 -8 852 -18 q 795 52 831 1 q 754 82 777 77 q 652 88 732 88 q 629 70 629 88 l 630 22 l 629 -9 q 638 -71 629 -51 q 672 -106 647 -92 q 713 -135 705 -126 q 721 -162 721 -144 q 650 -235 721 -206 q 500 -264 581 -264 q 346 -233 412 -264 q 279 -162 279 -203 q 287 -135 279 -144 q 328 -106 295 -125 q 365 -63 359 -88 q 371 67 371 -37 q 351 88 371 88 q 239 81 258 88 q 219 68 227 77 q 177 14 211 60 q 130 -18 155 -18 q 68 27 91 -18 q 45 146 45 72 q 85 274 45 237 q 134 296 108 296 q 163 288 151 296 q 196 256 175 280 q 218 238 208 243 q 245 234 227 234 q 345 236 321 234 q 372 243 368 237 q 375 279 375 246 l 375 335 z "},"":{"ha":416,"x_min":49,"x_max":369,"o":"m 211 503 q 322 456 276 503 q 369 345 369 410 q 321 227 369 273 q 209 182 273 182 q 97 227 144 182 q 49 345 49 273 q 90 450 49 407 q 211 503 138 503 z "},"":{"ha":416,"x_min":38,"x_max":369,"o":"m 197 311 q 263 295 231 311 q 317 252 296 279 q 369 89 369 187 q 349 -33 369 35 q 296 -155 329 -100 q 184 -245 243 -245 q 138 -229 159 -245 q 117 -193 117 -214 q 143 -141 117 -182 q 171 -86 159 -117 q 182 -40 182 -56 q 159 -7 182 -16 q 95 26 114 10 q 38 152 38 75 q 78 256 38 213 q 197 311 127 311 z "},"":{"ha":777,"x_min":50,"x_max":718,"o":"m 559 290 q 677 233 631 290 q 718 115 718 184 q 676 -51 718 33 q 560 -206 635 -136 q 483 -245 519 -245 q 439 -232 458 -245 q 420 -201 420 -218 q 433 -178 420 -191 q 494 -104 477 -133 q 511 -44 511 -75 q 488 -5 511 -22 q 427 60 445 28 q 409 134 409 92 q 451 245 409 201 q 559 290 493 289 m 199 290 q 317 233 271 290 q 358 115 358 184 q 316 -51 358 33 q 200 -206 275 -136 q 123 -245 159 -245 q 79 -232 98 -245 q 60 -201 60 -218 q 73 -178 60 -191 q 134 -104 117 -134 q 151 -44 151 -75 q 128 -5 151 -22 q 67 60 85 29 q 50 134 50 92 q 92 245 50 201 q 199 290 134 289 z "},"":{"ha":1735,"x_min":18,"x_max":1716,"o":"m 306 939 q 463 885 393 939 q 553 713 553 816 q 529 616 553 664 q 460 534 504 569 q 266 469 378 469 q 82 536 153 469 q 18 689 18 596 q 96 866 18 799 q 192 919 135 899 q 306 939 249 939 m 262 834 q 233 820 244 834 q 221 784 221 806 q 250 646 221 717 q 274 600 262 612 q 305 587 286 587 q 343 639 343 587 q 313 787 343 718 q 262 834 294 833 m 897 465 q 1054 410 984 465 q 1144 239 1144 341 q 1119 141 1144 189 q 1051 59 1095 94 q 857 -6 968 -6 q 673 60 743 -6 q 609 214 609 121 q 687 391 609 323 q 783 445 726 425 q 897 465 840 465 m 852 359 q 823 346 835 359 q 812 309 812 332 q 840 170 812 242 q 865 124 853 137 q 896 112 877 112 q 934 164 934 112 q 904 313 934 242 q 852 359 884 358 m 1469 465 q 1626 410 1556 465 q 1716 239 1716 341 q 1692 141 1716 189 q 1624 59 1667 94 q 1429 -6 1541 -6 q 1245 60 1316 -6 q 1181 214 1181 121 q 1259 391 1181 323 q 1355 445 1298 425 q 1469 465 1412 465 m 1425 359 q 1396 346 1407 359 q 1384 309 1384 332 q 1413 170 1384 242 q 1437 124 1426 137 q 1468 112 1449 112 q 1506 164 1506 112 q 1476 313 1506 242 q 1425 359 1457 358 m 444 338 l 650 685 q 761 886 733 829 q 794 933 778 921 q 840 945 810 945 q 904 913 904 945 q 851 812 904 890 q 739 633 810 753 l 530 279 q 408 58 468 165 q 376 7 390 20 q 338 -6 361 -6 q 282 4 304 -6 q 260 30 260 14 q 274 64 260 43 q 386 239 294 92 l 444 338 z "},"":{"ha":1148,"x_min":0,"x_max":1148,"o":"m 903 469 l 1031 194 q 1062 144 1050 156 q 1099 128 1074 132 q 1148 79 1148 121 q 1088 7 1148 29 q 893 -14 1029 -14 q 666 -1 740 -14 q 612 23 632 5 q 592 68 592 42 q 603 100 592 89 q 642 121 613 111 q 673 157 673 132 q 618 211 673 203 q 452 219 559 219 q 345 208 362 219 q 326 184 334 201 q 317 150 317 166 q 323 131 317 135 q 361 116 329 126 q 402 67 402 104 q 209 -14 402 -14 q 47 1 99 -14 q 0 64 0 16 q 11 96 0 85 q 48 117 21 108 q 115 161 92 133 q 180 281 138 189 l 275 491 q 346 664 328 606 q 365 776 364 721 q 372 857 366 834 q 401 901 378 880 q 520 949 448 949 q 651 895 589 949 q 903 469 738 822 m 431 383 l 564 383 q 601 399 601 383 q 550 509 601 422 q 515 563 527 549 q 489 576 503 576 q 448 531 465 576 q 429 483 446 525 q 400 400 400 414 q 431 383 400 383 m 538 1248 q 610 1220 560 1248 q 713 1150 661 1192 q 779 1091 761 1113 q 797 1050 797 1069 q 782 1014 797 1029 q 747 998 767 998 q 635 1039 721 998 q 536 1071 568 1071 q 504 1066 517 1071 q 441 1035 490 1061 q 338 997 370 997 q 301 1012 315 997 q 286 1052 286 1027 q 309 1100 286 1074 q 387 1168 331 1126 q 538 1248 492 1248 z "},"":{"ha":960,"x_min":18,"x_max":950,"o":"m 168 926 l 516 926 q 670 930 622 926 q 765 948 719 935 q 787 952 779 952 q 850 914 823 952 q 895 765 895 852 q 876 695 895 721 q 825 670 857 670 q 790 679 802 670 q 756 720 777 688 q 681 781 726 766 q 530 796 635 796 q 435 768 452 796 q 425 728 427 753 q 423 600 423 703 q 437 550 423 559 q 508 540 450 540 q 549 552 536 540 q 566 594 562 564 q 575 648 570 633 q 594 673 581 663 q 627 686 608 686 q 675 659 655 686 q 699 590 689 640 q 709 486 709 540 q 675 310 709 378 q 620 273 657 273 q 588 284 597 273 q 574 334 579 296 q 485 410 564 410 q 443 391 454 410 q 432 319 432 372 q 436 237 432 288 q 446 170 441 186 q 479 142 451 150 q 573 134 507 134 q 726 160 675 134 q 810 255 778 186 q 845 308 829 294 q 884 321 860 321 q 931 297 913 321 q 950 235 950 272 q 929 133 950 194 q 878 24 908 72 q 852 -6 862 1 q 826 -14 842 -14 q 789 -10 813 -14 q 673 0 745 -2 l 98 0 q 44 15 63 0 q 25 58 25 31 q 33 87 25 78 q 71 109 41 96 q 101 131 91 118 q 116 169 111 144 q 138 445 138 271 q 106 775 138 707 q 91 794 99 789 q 57 807 83 800 q 18 859 18 819 q 31 897 18 880 q 65 920 44 914 q 168 926 92 926 m 476 1248 q 549 1220 498 1248 q 652 1150 599 1192 q 717 1091 699 1113 q 735 1050 735 1069 q 720 1014 735 1029 q 686 998 705 998 q 574 1039 659 998 q 475 1071 507 1071 q 442 1066 456 1071 q 380 1035 429 1061 q 277 997 308 997 q 239 1012 254 997 q 224 1052 224 1027 q 247 1100 224 1074 q 325 1168 269 1126 q 476 1248 430 1248 z "},"":{"ha":1148,"x_min":0,"x_max":1148,"o":"m 903 469 l 1031 194 q 1062 144 1050 156 q 1099 128 1074 132 q 1148 79 1148 121 q 1088 7 1148 29 q 893 -14 1029 -14 q 666 -1 740 -14 q 612 23 632 5 q 592 68 592 42 q 603 100 592 89 q 642 121 613 111 q 673 157 673 132 q 618 211 673 203 q 452 219 559 219 q 345 208 362 219 q 326 184 334 201 q 317 150 317 166 q 323 131 317 135 q 361 116 329 126 q 402 67 402 104 q 209 -14 402 -14 q 47 1 99 -14 q 0 64 0 16 q 11 96 0 85 q 48 117 21 108 q 115 161 92 133 q 180 281 138 189 l 275 491 q 346 664 328 606 q 365 776 364 721 q 372 857 366 834 q 401 901 378 880 q 520 949 448 949 q 651 895 589 949 q 903 469 738 822 m 431 383 l 564 383 q 601 399 601 383 q 550 509 601 422 q 515 563 527 549 q 489 576 503 576 q 448 531 465 576 q 429 483 446 525 q 400 400 400 414 q 431 383 400 383 m 607 1229 q 717 1211 669 1229 q 755 1185 741 1202 q 770 1153 770 1169 q 712 1079 768 1122 q 486 1000 610 1000 q 416 1050 416 1000 q 423 1077 416 1068 q 464 1113 430 1086 q 501 1142 494 1135 q 508 1159 508 1149 q 500 1179 508 1164 q 497 1189 497 1183 q 528 1217 497 1206 q 607 1229 558 1228 z "},"":{"ha":960,"x_min":18,"x_max":950,"o":"m 168 926 l 516 926 q 670 930 622 926 q 765 948 719 935 q 787 952 779 952 q 850 914 823 952 q 895 765 895 852 q 876 695 895 721 q 825 670 857 670 q 790 679 802 670 q 756 720 777 688 q 681 781 726 766 q 530 796 635 796 q 435 768 452 796 q 425 728 427 753 q 423 600 423 703 q 437 550 423 559 q 508 540 450 540 q 549 552 536 540 q 566 594 562 564 q 575 648 570 633 q 594 673 581 663 q 627 686 608 686 q 675 659 655 686 q 699 590 689 640 q 709 486 709 540 q 675 310 709 378 q 620 273 657 273 q 588 284 597 273 q 574 334 579 296 q 485 410 564 410 q 443 391 454 410 q 432 319 432 372 q 436 237 432 288 q 446 170 441 186 q 479 142 451 150 q 573 134 507 134 q 726 160 675 134 q 810 255 778 186 q 845 308 829 294 q 884 321 860 321 q 931 297 913 321 q 950 235 950 272 q 929 133 950 194 q 878 24 908 72 q 852 -6 862 1 q 826 -14 842 -14 q 789 -10 813 -14 q 673 0 745 -2 l 98 0 q 44 15 63 0 q 25 58 25 31 q 33 87 25 78 q 71 109 41 96 q 101 131 91 118 q 116 169 111 144 q 138 445 138 271 q 106 775 138 707 q 91 794 99 789 q 57 807 83 800 q 18 859 18 819 q 31 897 18 880 q 65 920 44 914 q 168 926 92 926 m 328 1238 q 408 1213 379 1238 q 437 1147 437 1189 q 389 1059 437 1090 q 236 1014 319 1014 q 161 1039 190 1014 q 133 1104 133 1063 q 176 1188 133 1156 q 248 1224 205 1211 q 328 1238 291 1238 m 717 1247 q 797 1223 768 1247 q 826 1156 826 1199 q 777 1068 826 1099 q 625 1023 707 1023 q 550 1048 578 1023 q 522 1114 522 1073 q 564 1198 522 1165 q 636 1234 593 1220 q 717 1247 680 1248 z "},"":{"ha":960,"x_min":18,"x_max":950,"o":"m 168 926 l 516 926 q 670 930 622 926 q 765 948 719 935 q 787 952 779 952 q 850 914 823 952 q 895 765 895 852 q 876 695 895 721 q 825 670 857 670 q 790 679 802 670 q 756 720 777 688 q 681 781 726 766 q 530 796 635 796 q 435 768 452 796 q 425 728 427 753 q 423 600 423 703 q 437 550 423 559 q 508 540 450 540 q 549 552 536 540 q 566 594 562 564 q 575 648 570 633 q 594 673 581 663 q 627 686 608 686 q 675 659 655 686 q 699 590 689 640 q 709 486 709 540 q 675 310 709 378 q 620 273 657 273 q 588 284 597 273 q 574 334 579 296 q 485 410 564 410 q 443 391 454 410 q 432 319 432 372 q 436 237 432 288 q 446 170 441 186 q 479 142 451 150 q 573 134 507 134 q 726 160 675 134 q 810 255 778 186 q 845 308 829 294 q 884 321 860 321 q 931 297 913 321 q 950 235 950 272 q 929 133 950 194 q 878 24 908 72 q 852 -6 862 1 q 826 -14 842 -14 q 789 -10 813 -14 q 673 0 745 -2 l 98 0 q 44 15 63 0 q 25 58 25 31 q 33 87 25 78 q 71 109 41 96 q 101 131 91 118 q 116 169 111 144 q 138 445 138 271 q 106 775 138 707 q 91 794 99 789 q 57 807 83 800 q 18 859 18 819 q 31 897 18 880 q 65 920 44 914 q 168 926 92 926 m 409 1229 q 488 1218 457 1229 q 519 1189 519 1206 q 512 1171 519 1183 q 509 1159 509 1164 q 515 1142 509 1149 q 553 1113 522 1135 l 566 1102 q 601 1050 601 1076 q 531 1000 601 1000 q 304 1079 408 1000 q 247 1155 247 1124 q 293 1207 247 1187 q 409 1229 338 1228 z "},"":{"ha":574,"x_min":18,"x_max":555,"o":"m 317 940 q 463 926 395 940 q 555 848 555 908 q 546 819 555 829 q 500 790 537 809 q 459 722 469 774 q 449 515 449 669 q 462 195 449 256 q 476 164 467 175 q 511 142 486 154 q 555 83 555 121 q 473 8 555 28 q 254 -14 383 -14 q 33 71 33 -14 q 76 127 33 101 q 115 183 109 148 q 128 511 128 260 q 111 734 128 685 q 65 784 101 762 q 28 814 37 802 q 18 846 18 827 q 46 892 18 875 q 146 923 75 909 q 317 940 231 940 m 361 1229 q 471 1211 423 1229 q 510 1185 495 1202 q 524 1153 525 1169 q 467 1079 523 1122 q 240 1000 364 1000 q 170 1050 170 1000 q 177 1077 170 1068 q 218 1113 184 1086 q 256 1142 249 1135 q 262 1159 262 1149 q 254 1179 262 1164 q 252 1189 252 1183 q 282 1217 252 1206 q 361 1229 313 1228 z "},"":{"ha":574,"x_min":18,"x_max":555,"o":"m 317 940 q 463 926 395 940 q 555 848 555 908 q 546 819 555 829 q 500 790 537 809 q 459 722 469 774 q 449 515 449 669 q 462 195 449 256 q 476 164 467 175 q 511 142 486 154 q 555 83 555 121 q 473 8 555 28 q 254 -14 383 -14 q 33 71 33 -14 q 76 127 33 101 q 115 183 109 148 q 128 511 128 260 q 111 734 128 685 q 65 784 101 762 q 28 814 37 802 q 18 846 18 827 q 46 892 18 875 q 146 923 75 909 q 317 940 231 940 m 283 1248 q 356 1220 306 1248 q 459 1150 406 1192 q 525 1091 507 1113 q 543 1050 543 1069 q 528 1014 543 1029 q 493 998 513 998 q 381 1039 467 998 q 282 1071 314 1071 q 250 1066 263 1071 q 187 1035 236 1061 q 84 997 115 997 q 46 1012 61 997 q 32 1052 32 1027 q 54 1100 32 1074 q 132 1168 77 1126 q 283 1248 237 1248 z "},"":{"ha":574,"x_min":-41,"x_max":615,"o":"m 318 940 q 464 926 395 940 q 556 848 556 908 q 547 819 556 829 q 500 790 538 809 q 459 722 469 774 q 450 515 450 669 q 463 195 450 256 q 477 164 467 175 q 511 142 487 154 q 556 83 556 121 q 473 8 556 28 q 254 -14 384 -14 q 33 71 33 -14 q 77 127 33 101 q 116 183 110 148 q 129 511 129 260 q 111 734 129 685 q 66 784 102 762 q 28 814 38 802 q 19 846 19 827 q 47 892 19 875 q 146 923 75 909 q 318 940 231 940 m 154 1238 q 235 1213 205 1238 q 264 1147 264 1189 q 215 1059 264 1090 q 62 1014 146 1014 q -12 1039 16 1014 q -41 1104 -41 1063 q 2 1188 -41 1156 q 74 1224 31 1211 q 154 1238 117 1238 m 506 1247 q 586 1223 557 1247 q 615 1156 615 1198 q 566 1068 615 1100 q 414 1023 496 1023 q 339 1048 368 1023 q 311 1114 311 1073 q 353 1198 311 1165 q 426 1234 382 1220 q 506 1247 469 1248 z "},"":{"ha":574,"x_min":18,"x_max":555,"o":"m 317 940 q 463 926 395 940 q 555 848 555 908 q 546 819 555 829 q 500 790 537 809 q 459 722 469 774 q 449 515 449 669 q 462 195 449 256 q 476 164 467 175 q 511 142 486 154 q 555 83 555 121 q 473 8 555 28 q 254 -14 383 -14 q 33 71 33 -14 q 76 127 33 101 q 115 183 109 148 q 128 511 128 260 q 111 734 128 685 q 65 784 101 762 q 28 814 37 802 q 18 846 18 827 q 46 892 18 875 q 146 923 75 909 q 317 940 231 940 m 226 1229 q 305 1218 274 1229 q 336 1189 336 1206 q 329 1171 336 1183 q 326 1159 326 1164 q 332 1142 326 1149 q 370 1113 339 1135 l 383 1102 q 418 1050 418 1076 q 348 1000 418 1000 q 121 1079 224 1000 q 64 1155 64 1124 q 110 1207 64 1187 q 226 1229 155 1228 z "},"":{"ha":1081,"x_min":33,"x_max":1049,"o":"m 548 945 q 852 845 722 945 q 996 667 941 777 q 1049 450 1049 559 q 943 164 1049 290 q 709 10 854 57 q 531 -18 621 -18 q 307 31 414 -18 q 104 209 177 90 q 33 463 33 324 q 124 748 33 625 q 343 909 205 858 q 548 945 435 945 m 484 750 q 393 699 427 750 q 368 609 368 661 q 399 432 368 532 q 477 253 430 331 q 529 200 498 220 q 592 180 560 180 q 675 219 644 180 q 707 321 707 258 q 680 498 707 403 q 612 660 654 593 q 552 725 586 701 q 484 750 518 749 m 602 1229 q 711 1211 663 1229 q 750 1185 735 1202 q 764 1153 765 1169 q 707 1079 763 1122 q 480 1000 604 1000 q 410 1050 410 1000 q 417 1077 410 1068 q 458 1113 425 1086 q 496 1142 489 1135 q 503 1159 503 1149 q 494 1179 503 1164 q 492 1189 492 1183 q 522 1217 492 1206 q 602 1229 553 1228 z "},"":{"ha":1081,"x_min":33,"x_max":1049,"o":"m 548 945 q 852 845 722 945 q 996 667 941 777 q 1049 450 1049 559 q 943 164 1049 290 q 709 10 854 57 q 531 -18 621 -18 q 307 31 414 -18 q 104 209 177 90 q 33 463 33 324 q 124 748 33 625 q 343 909 205 858 q 548 945 435 945 m 484 750 q 393 699 427 750 q 368 609 368 661 q 399 432 368 532 q 477 253 430 331 q 529 200 498 220 q 592 180 560 180 q 675 219 644 180 q 707 321 707 258 q 680 498 707 403 q 612 660 654 593 q 552 725 586 701 q 484 750 518 749 m 537 1248 q 610 1220 559 1248 q 713 1150 660 1192 q 778 1091 760 1113 q 796 1050 796 1069 q 781 1014 796 1029 q 747 998 766 998 q 635 1039 720 998 q 536 1071 568 1071 q 503 1066 517 1071 q 441 1035 490 1061 q 338 997 369 997 q 300 1012 315 997 q 286 1052 286 1027 q 308 1100 286 1074 q 386 1168 330 1126 q 537 1248 491 1248 z "},"":{"ha":1081,"x_min":33,"x_max":1049,"o":"m 548 945 q 852 845 722 945 q 996 667 941 777 q 1049 450 1049 559 q 943 164 1049 290 q 709 10 854 57 q 531 -18 621 -18 q 307 31 414 -18 q 104 209 177 90 q 33 463 33 324 q 124 748 33 625 q 343 909 205 858 q 548 945 435 945 m 484 750 q 393 699 427 750 q 368 609 368 661 q 399 432 368 532 q 477 253 430 331 q 529 200 498 220 q 592 180 560 180 q 675 219 644 180 q 707 321 707 258 q 680 498 707 403 q 612 660 654 593 q 552 725 586 701 q 484 750 518 749 m 456 1229 q 535 1218 505 1229 q 566 1189 566 1206 q 559 1171 566 1183 q 556 1159 556 1164 q 563 1142 556 1149 q 600 1113 570 1135 l 614 1102 q 648 1050 648 1076 q 578 1000 648 1000 q 352 1079 455 1000 q 294 1155 294 1124 q 340 1207 294 1187 q 456 1229 386 1228 z "},"":{"ha":1139,"x_min":18,"x_max":1120,"o":"m 1021 587 l 1021 421 q 999 209 1021 271 q 787 18 951 77 q 564 -18 688 -18 q 215 85 346 -18 q 127 203 151 136 q 102 397 102 271 q 106 560 102 447 q 108 666 108 640 q 99 744 108 722 q 62 785 91 766 q 18 850 18 814 q 40 897 18 876 q 100 924 63 917 q 277 939 175 939 q 463 922 389 939 q 535 848 535 906 q 514 803 535 820 q 473 782 509 799 q 444 747 452 772 q 436 665 436 722 q 431 410 436 606 q 494 232 427 293 q 633 182 548 182 q 732 202 688 182 q 799 256 776 222 q 824 315 817 283 q 831 404 831 348 l 831 553 q 821 754 827 725 q 777 801 814 784 q 729 829 742 817 q 716 861 716 842 q 765 921 716 902 q 920 939 813 939 q 1073 921 1025 939 q 1120 863 1120 903 q 1112 833 1120 843 q 1069 804 1103 824 q 1028 761 1033 784 q 1021 587 1023 737 m 657 1229 q 767 1211 719 1229 q 806 1185 791 1202 q 820 1153 821 1169 q 762 1079 819 1122 q 536 1000 660 1000 q 466 1050 466 1000 q 473 1077 466 1068 q 514 1113 480 1086 q 551 1142 545 1135 q 558 1159 558 1149 q 550 1179 558 1164 q 547 1189 547 1183 q 578 1217 547 1206 q 657 1229 608 1228 z "},"":{"ha":1139,"x_min":18,"x_max":1120,"o":"m 1021 587 l 1021 421 q 999 209 1021 271 q 787 18 951 77 q 564 -18 688 -18 q 215 85 346 -18 q 127 203 151 136 q 102 397 102 271 q 106 560 102 447 q 108 666 108 640 q 99 744 108 722 q 62 785 91 766 q 18 850 18 814 q 40 897 18 876 q 100 924 63 917 q 277 939 175 939 q 463 922 389 939 q 535 848 535 906 q 514 803 535 820 q 473 782 509 799 q 444 747 452 772 q 436 665 436 722 q 431 410 436 606 q 494 232 427 293 q 633 182 548 182 q 732 202 688 182 q 799 256 776 222 q 824 315 817 283 q 831 404 831 348 l 831 553 q 821 754 827 725 q 777 801 814 784 q 729 829 742 817 q 716 861 716 842 q 765 921 716 902 q 920 939 813 939 q 1073 921 1025 939 q 1120 863 1120 903 q 1112 833 1120 843 q 1069 804 1103 824 q 1028 761 1033 784 q 1021 587 1023 737 m 593 1248 q 666 1220 616 1248 q 769 1150 716 1192 q 834 1091 817 1113 q 852 1050 852 1069 q 838 1014 852 1029 q 803 998 823 998 q 691 1039 777 998 q 592 1071 624 1071 q 559 1066 573 1071 q 497 1035 546 1061 q 394 997 425 997 q 356 1012 371 997 q 342 1052 342 1027 q 364 1100 342 1074 q 442 1168 387 1126 q 593 1248 547 1248 z "},"":{"ha":1139,"x_min":18,"x_max":1120,"o":"m 1021 587 l 1021 421 q 999 209 1021 271 q 787 18 951 77 q 564 -18 688 -18 q 215 85 346 -18 q 127 203 151 136 q 102 397 102 271 q 106 560 102 447 q 108 666 108 640 q 99 744 108 722 q 62 785 91 766 q 18 850 18 814 q 40 897 18 876 q 100 924 63 917 q 277 939 175 939 q 463 922 389 939 q 535 848 535 906 q 514 803 535 820 q 473 782 509 799 q 444 747 452 772 q 436 665 436 722 q 431 410 436 606 q 494 232 427 293 q 633 182 548 182 q 732 202 688 182 q 799 256 776 222 q 824 315 817 283 q 831 404 831 348 l 831 553 q 821 754 827 725 q 777 801 814 784 q 729 829 742 817 q 716 861 716 842 q 765 921 716 902 q 920 939 813 939 q 1073 921 1025 939 q 1120 863 1120 903 q 1112 833 1120 843 q 1069 804 1103 824 q 1028 761 1033 784 q 1021 587 1023 737 m 517 1229 q 596 1218 565 1229 q 627 1189 627 1206 q 620 1171 627 1183 q 616 1159 616 1164 q 623 1142 616 1149 q 661 1113 630 1135 l 674 1102 q 709 1050 709 1076 q 639 1000 709 1000 q 412 1079 515 1000 q 355 1155 355 1124 q 400 1207 355 1187 q 517 1229 446 1228 z "},"":{"ha":495,"x_min":14,"x_max":481,"o":"m 403 629 l 403 235 q 411 166 403 188 q 446 126 420 144 q 474 101 467 111 q 481 74 481 90 q 259 -14 481 -14 q 70 5 140 -14 q 32 29 46 12 q 17 68 17 46 q 24 96 17 86 q 62 129 32 106 q 92 180 83 144 q 101 285 101 215 q 98 369 101 307 q 94 440 95 430 q 56 483 90 468 q 14 537 14 501 q 68 601 14 580 q 231 650 144 630 q 366 671 318 671 q 403 629 403 671 z "},"":{"ha":694,"x_min":92,"x_max":602,"o":"m 343 991 q 416 963 366 991 q 519 894 466 935 q 584 835 566 857 q 602 793 602 813 q 587 758 602 773 q 553 742 572 742 q 441 783 525 742 q 384 806 415 795 q 343 817 353 817 q 247 779 319 817 q 144 741 176 741 q 106 756 121 741 q 92 795 92 771 q 114 844 92 818 q 192 912 136 870 q 343 991 297 991 z "},"":{"ha":694,"x_min":79,"x_max":616,"o":"m 222 818 l 222 800 q 204 761 222 775 q 156 746 186 746 q 100 768 122 746 q 79 826 79 791 q 96 901 79 866 q 142 946 112 929 q 210 963 172 963 q 275 953 245 963 q 384 903 304 943 q 442 884 421 884 q 463 911 459 884 q 469 941 467 935 q 479 953 471 946 q 528 968 498 968 q 616 878 616 968 q 582 784 616 820 q 492 749 548 749 q 438 755 463 749 q 370 782 414 762 q 306 810 340 795 q 261 829 262 828 q 238 836 248 836 q 222 818 222 836 z "},"":{"ha":694,"x_min":68,"x_max":625,"o":"m 295 914 l 512 914 q 579 916 568 914 q 597 918 594 918 q 625 890 625 918 q 588 796 625 863 q 548 766 572 766 l 435 775 l 258 775 q 117 772 174 775 q 102 771 108 771 q 68 797 68 771 q 82 837 68 806 q 111 892 96 868 q 157 921 127 921 q 178 920 165 921 q 295 914 249 914 z "},"":{"ha":694,"x_min":75,"x_max":620,"o":"m 111 997 q 131 992 123 997 q 174 957 139 987 q 248 916 204 931 q 337 901 292 901 q 492 936 420 901 q 525 954 515 947 q 567 992 534 961 q 584 998 573 998 q 609 989 598 998 q 620 970 620 981 q 578 876 620 939 q 487 785 542 819 q 342 745 420 745 q 112 884 205 745 q 76 965 77 936 q 85 987 75 979 q 111 997 96 996 z "},"":{"ha":694,"x_min":175,"x_max":520,"o":"m 378 951 q 482 928 444 951 q 520 867 520 906 q 458 786 520 815 q 302 754 389 754 q 221 772 254 754 q 175 840 175 797 q 229 921 175 892 q 378 951 283 951 z "},"":{"ha":694,"x_min":163,"x_max":568,"o":"m 364 1016 q 512 983 456 1016 q 553 941 537 968 q 568 882 568 913 q 516 777 568 814 q 367 741 463 741 q 163 876 163 741 q 216 979 163 943 q 364 1016 269 1016 m 365 954 q 316 933 334 954 q 298 875 298 912 q 316 822 298 842 q 363 801 334 801 q 413 823 394 801 q 431 880 431 844 q 365 954 431 952 z "},"":{"ha":694,"x_min":216,"x_max":478,"o":"m 342 0 l 437 -92 q 471 -130 463 -118 q 478 -159 478 -142 q 437 -217 478 -194 q 336 -240 396 -240 q 241 -215 275 -240 q 216 -172 216 -197 q 235 -139 216 -153 q 287 -121 254 -125 q 306 -105 306 -117 q 292 -78 306 -97 l 239 0 l 342 0 z "},"":{"ha":694,"x_min":5,"x_max":689,"o":"m 174 970 q 290 948 246 970 q 334 889 334 926 q 227 785 334 836 q 140 755 192 769 q 58 742 87 742 q 20 756 35 742 q 5 793 5 771 q 11 816 5 808 q 46 848 17 824 q 80 876 75 869 q 85 895 85 882 q 75 922 85 907 q 72 934 72 928 q 100 960 72 949 q 174 970 128 970 m 529 970 q 645 948 602 970 q 689 889 689 926 q 583 785 689 836 q 495 755 547 769 q 414 742 443 742 q 376 756 391 742 q 361 793 361 771 q 367 816 361 808 q 401 848 372 824 q 435 876 430 869 q 440 895 440 882 q 431 922 440 907 q 427 934 427 927 q 455 960 427 949 q 529 970 484 970 z "},"":{"ha":694,"x_min":184,"x_max":511,"o":"m 418 1 q 371 -33 385 -15 q 347 -88 347 -62 q 365 -125 347 -110 q 406 -141 382 -141 q 429 -138 421 -141 q 471 -119 437 -136 q 487 -115 479 -115 q 511 -153 511 -115 q 487 -211 511 -191 q 357 -239 453 -239 q 226 -203 269 -239 q 184 -127 184 -169 q 204 -75 184 -97 q 297 1 224 -52 l 418 1 z "},"":{"ha":694,"x_min":92,"x_max":602,"o":"m 144 991 q 247 954 176 991 q 343 915 319 915 q 384 926 353 915 q 441 949 415 937 q 553 990 525 990 q 587 975 572 990 q 602 939 602 959 q 577 890 602 917 q 494 820 553 863 q 342 741 386 741 q 272 767 319 741 q 171 837 226 793 q 108 895 124 874 q 92 937 92 916 q 106 976 92 961 q 144 991 121 991 z "},"":{"ha":896,"x_min":28,"x_max":868,"o":"m 437 945 q 620 910 507 945 q 642 906 633 906 q 682 918 648 906 q 705 922 693 922 q 801 850 751 922 q 852 713 852 779 q 829 649 852 675 q 774 623 806 623 q 730 634 747 623 q 655 699 713 645 q 495 774 574 774 q 434 756 457 774 q 412 708 412 738 q 515 619 412 649 q 695 559 656 578 q 868 311 868 475 q 750 75 868 167 q 435 -18 629 -18 q 252 2 348 -18 q 113 51 155 23 q 54 145 80 73 q 28 288 28 218 q 41 338 28 321 q 84 359 58 359 q 134 333 110 359 q 201 237 148 318 q 280 174 226 199 q 393 149 335 149 q 475 168 444 149 q 506 216 506 186 q 481 262 506 243 q 402 299 457 282 q 254 355 305 330 q 159 419 203 380 q 52 635 52 514 q 80 751 52 694 q 159 849 108 808 q 437 945 273 945 m 268 1248 q 414 1187 299 1248 q 466 1174 439 1174 q 565 1206 498 1174 q 677 1246 650 1246 q 711 1231 696 1246 q 726 1195 726 1216 q 702 1146 726 1173 q 618 1076 677 1120 q 466 997 510 997 q 396 1023 443 997 q 295 1093 350 1049 q 232 1151 248 1131 q 216 1194 216 1172 q 230 1232 216 1217 q 268 1248 245 1247 z "},"":{"ha":662,"x_min":28,"x_max":629,"o":"m 297 675 q 408 661 331 675 q 433 658 423 658 q 478 670 445 658 q 505 676 494 676 q 568 636 536 676 q 610 566 593 604 q 626 500 626 528 q 607 455 626 473 q 559 437 588 437 q 517 449 536 437 q 457 500 498 460 q 385 542 414 542 q 352 528 366 542 q 338 495 338 514 q 402 433 338 462 q 578 320 517 381 q 629 194 629 269 q 547 37 629 100 q 372 -18 475 -18 q 276 -9 346 -18 q 202 -2 210 -2 q 182 -4 193 -2 q 153 -7 162 -7 q 103 9 121 -7 q 52 89 75 35 q 28 181 28 142 q 77 243 28 243 q 112 231 96 243 q 178 164 127 218 q 224 123 206 134 q 264 112 243 112 q 300 124 286 112 q 313 155 313 136 q 261 211 313 186 q 103 321 152 264 q 55 453 55 378 q 104 592 55 534 q 297 675 175 675 m 144 991 q 247 954 176 991 q 343 915 319 915 q 384 926 353 915 q 441 949 415 937 q 553 990 525 990 q 587 975 572 990 q 602 939 602 959 q 577 890 602 917 q 494 820 553 863 q 342 741 386 741 q 272 767 319 741 q 171 837 226 793 q 108 895 124 874 q 92 937 92 916 q 106 976 92 961 q 144 991 121 991 z "},"":{"ha":694,"x_min":194,"x_max":500,"o":"m 194 926 l 500 926 l 500 414 l 194 414 l 194 926 m 194 213 l 500 213 l 500 -231 l 194 -231 l 194 213 z "},"":{"ha":1114,"x_min":18,"x_max":1082,"o":"m 66 519 l 112 519 q 132 523 127 519 q 136 538 136 526 l 135 552 q 136 603 134 564 q 138 700 138 636 q 129 775 138 756 q 87 806 120 794 q 41 866 41 823 q 73 918 41 899 q 163 937 105 937 q 208 936 182 937 q 290 934 264 934 q 509 940 387 934 q 570 941 535 941 q 819 906 729 941 q 1021 728 954 853 q 1082 474 1082 618 q 999 180 1082 301 q 782 20 920 66 q 608 -7 701 -7 l 526 -5 l 456 -3 q 311 0 374 0 l 262 0 q 166 -4 220 0 q 121 -7 133 -7 q 46 14 75 -7 q 18 69 18 35 q 30 106 18 93 q 72 127 43 120 q 109 150 99 134 q 123 209 118 165 q 129 301 125 225 q 133 394 133 376 q 128 412 133 408 q 109 416 123 416 l 64 416 q 28 427 38 416 q 18 465 18 438 q 29 507 18 495 q 66 519 40 519 m 454 735 l 454 548 q 458 525 454 530 q 480 519 463 519 l 566 519 q 601 508 591 519 q 612 469 612 496 q 568 418 612 419 l 486 416 l 472 418 q 454 378 454 418 l 454 210 q 472 150 454 168 q 533 132 490 132 q 731 433 731 132 q 685 690 731 600 q 513 791 634 791 q 467 779 480 791 q 454 735 454 766 z "},"":{"ha":836,"x_min":23,"x_max":813,"o":"m 283 730 l 253 706 q 203 680 214 680 q 171 695 184 680 q 157 728 157 709 q 169 757 157 742 q 211 793 182 772 l 229 805 q 239 819 239 812 q 193 859 238 826 q 150 917 150 891 q 164 943 150 932 q 199 954 178 954 q 335 911 254 954 q 350 906 345 906 q 386 928 359 906 l 397 936 l 423 957 q 479 985 460 985 q 511 968 496 985 q 526 932 526 951 q 523 918 526 922 q 509 905 521 914 q 485 886 503 900 l 465 873 q 450 850 450 863 q 466 829 450 840 q 608 712 530 788 q 813 328 813 513 q 678 80 813 182 q 383 -18 549 -18 q 121 74 221 -18 q 23 308 23 163 q 98 524 23 432 q 315 659 182 626 q 349 671 342 665 q 357 688 357 676 q 338 724 357 702 q 309 745 319 745 q 283 730 303 745 m 391 519 q 343 497 361 519 q 326 439 326 475 q 341 328 326 398 q 377 203 356 258 q 446 148 398 148 q 506 224 506 148 q 491 354 506 281 q 454 472 475 427 q 391 519 431 518 z "},"":{"ha":1083,"x_min":0,"x_max":1083,"o":"m 298 940 q 500 926 431 940 q 552 902 532 920 q 571 861 571 884 q 556 825 571 843 q 534 785 534 797 q 573 707 534 760 q 621 672 598 672 q 648 683 635 672 q 684 720 662 693 q 710 773 710 753 q 707 791 710 785 q 685 821 704 798 q 671 863 671 836 q 879 939 671 939 q 1031 928 996 939 q 1068 903 1054 922 q 1083 862 1083 884 q 1066 820 1083 834 q 1007 798 1049 806 q 940 769 968 791 q 836 665 911 747 q 721 518 743 566 q 698 378 698 471 q 704 232 698 299 q 717 175 707 191 q 756 143 726 159 q 806 79 806 117 q 533 -14 806 -14 q 321 8 421 -14 q 237 81 237 26 q 289 141 237 123 q 337 176 328 155 q 359 397 359 222 q 348 481 359 451 q 300 559 337 511 q 142 739 224 659 q 75 786 107 774 q 19 811 28 803 q 0 854 0 827 q 68 920 0 900 q 298 940 137 940 m 634 1229 q 744 1211 696 1229 q 783 1185 768 1202 q 797 1153 798 1169 q 739 1079 795 1122 q 513 1000 637 1000 q 443 1050 443 1000 q 450 1077 443 1068 q 491 1113 457 1086 q 528 1142 522 1135 q 535 1159 535 1149 q 527 1179 535 1164 q 524 1189 524 1183 q 555 1217 524 1206 q 634 1229 585 1228 z "},"":{"ha":860,"x_min":0,"x_max":860,"o":"m 672 342 l 583 96 q 516 -54 549 4 q 439 -153 482 -112 q 227 -237 351 -237 q 64 -184 127 -237 q 16 -80 16 -143 q 50 8 16 -28 q 132 43 83 43 q 211 11 181 43 q 230 -16 225 -4 q 244 -66 235 -27 q 278 -96 252 -96 q 313 -78 299 -96 q 328 -33 328 -60 q 292 74 328 -1 l 129 422 q 90 490 103 476 q 33 523 77 503 q 10 544 20 528 q 0 575 0 560 q 120 657 0 635 q 302 671 200 671 q 416 656 374 671 q 471 589 471 637 q 456 549 471 572 q 441 511 441 528 q 448 477 441 494 q 478 417 455 459 q 524 370 504 370 q 567 411 545 370 q 589 492 589 453 q 572 543 589 523 q 547 595 547 573 q 593 650 547 629 q 716 671 639 671 q 860 602 860 671 q 845 561 860 576 q 792 532 831 546 q 741 492 760 520 q 672 342 711 446 m 509 970 q 618 951 570 970 q 657 926 642 943 q 671 894 672 910 q 614 820 670 863 q 387 741 511 741 q 317 791 317 741 q 325 818 317 809 q 366 853 332 827 q 403 883 396 876 q 410 899 410 890 q 401 920 410 905 q 399 930 399 924 q 429 958 399 947 q 509 970 460 969 z "},"":{"ha":950,"x_min":18,"x_max":931,"o":"m 140 319 l 140 676 q 131 764 140 745 q 79 794 121 783 q 18 855 18 812 q 44 902 18 885 q 117 918 70 918 q 199 916 135 918 q 298 916 224 916 q 400 919 337 916 q 415 919 408 919 q 442 913 435 919 q 449 890 449 907 q 446 844 449 881 q 445 800 445 822 q 460 758 445 758 q 503 766 466 758 q 585 777 547 777 q 780 733 692 777 q 931 495 931 659 q 825 284 931 363 q 585 210 725 210 q 496 214 548 210 q 461 216 468 216 q 441 195 441 216 q 450 159 441 170 q 502 127 459 149 q 545 75 545 103 q 480 9 545 33 q 296 -14 416 -14 q 45 73 45 -14 q 56 104 45 93 q 106 135 66 115 q 135 171 131 148 q 140 319 139 194 m 446 605 l 446 402 q 448 380 446 385 q 458 370 450 374 q 508 361 477 361 q 583 384 553 361 q 627 492 627 417 q 575 609 627 572 q 497 631 543 631 q 446 605 446 631 z "},"":{"ha":924,"x_min":14,"x_max":901,"o":"m 420 884 l 420 629 q 435 604 420 604 q 481 630 443 604 q 556 663 511 650 q 637 676 601 676 q 791 616 724 676 q 871 502 843 571 q 901 349 901 429 q 846 143 901 237 q 697 6 789 48 q 585 -18 643 -18 q 466 9 527 -18 q 446 14 454 14 q 426 -26 426 14 q 461 -104 426 -80 q 501 -134 495 -126 q 507 -160 507 -142 q 462 -223 507 -201 q 334 -245 416 -245 q 76 -186 186 -245 q 20 -112 20 -156 q 28 -81 20 -92 q 62 -59 37 -71 q 105 0 97 -43 q 117 245 113 43 l 117 264 l 117 519 q 104 688 111 669 q 96 696 101 694 q 63 703 91 699 q 27 724 41 707 q 14 762 14 740 q 46 822 14 795 q 163 880 79 848 q 374 926 281 926 q 411 918 402 926 q 420 884 420 910 m 425 416 l 415 229 q 414 207 414 218 q 433 173 414 186 q 481 160 451 160 q 575 315 575 160 q 536 455 575 414 q 477 480 511 480 q 425 416 429 480 z "},"":{"ha":833,"x_min":134,"x_max":701,"o":"m 633 499 l 557 422 q 545 396 545 410 q 557 370 545 382 l 633 294 q 680 250 669 258 q 701 220 701 233 q 663 180 701 200 q 563 140 589 140 q 532 157 546 140 q 513 182 531 159 q 469 233 495 207 l 444 258 q 418 270 432 270 q 392 258 404 270 l 384 250 q 317 173 355 220 q 273 144 294 144 q 215 161 258 144 q 149 195 172 179 q 134 219 134 203 q 156 251 134 233 q 254 344 191 281 l 279 370 q 292 396 292 382 q 279 422 292 410 l 254 448 q 156 541 192 509 q 134 573 134 559 q 152 600 134 589 q 219 633 180 617 q 273 648 258 648 q 317 619 294 648 q 384 543 355 572 l 392 534 q 418 522 404 522 q 444 534 432 522 l 469 559 q 529 631 498 589 q 563 652 545 652 q 663 612 589 652 q 701 572 701 592 q 680 543 701 559 q 633 499 669 535 z "},"":{"ha":557,"x_min":42,"x_max":509,"o":"m 84 458 q 113 455 91 458 q 130 454 123 454 q 161 477 151 454 q 170 675 170 498 q 161 702 170 694 q 130 709 153 709 q 113 708 125 709 q 98 707 103 707 q 71 716 81 707 q 60 739 60 725 q 95 781 60 760 q 220 821 136 804 q 380 838 304 838 q 455 799 455 838 q 424 766 455 779 q 395 738 400 756 q 391 633 391 719 q 400 479 391 504 q 463 452 410 455 q 509 417 509 451 q 456 374 509 385 q 281 359 384 359 q 115 376 194 359 q 42 422 42 391 q 54 447 42 437 q 84 458 66 457 z "},"":{"ha":557,"x_min":15,"x_max":530,"o":"m 354 370 l 58 370 q 15 396 15 370 q 24 417 15 407 q 78 467 33 427 q 183 574 144 524 q 222 653 222 625 q 180 692 222 692 q 151 688 161 692 q 106 656 142 683 q 79 648 96 648 q 38 664 56 648 q 19 699 19 680 q 78 775 19 736 q 289 838 174 838 q 382 827 338 838 q 450 796 427 815 q 494 710 494 762 q 387 555 494 637 q 351 515 351 528 q 361 500 351 507 q 385 493 371 493 q 450 519 420 493 q 486 540 474 540 q 530 477 530 540 q 499 377 530 422 q 430 332 468 332 q 394 355 410 332 q 380 368 387 365 q 354 370 373 370 z "},"":{"ha":556,"x_min":5,"x_max":528,"o":"m 241 839 q 392 809 334 839 q 449 730 449 779 q 398 646 449 680 q 387 633 387 639 q 407 623 387 625 q 496 582 465 614 q 528 498 528 549 q 479 379 528 433 q 367 312 439 336 q 203 288 294 288 q 60 307 114 288 q 5 357 5 326 q 20 390 5 376 q 57 403 35 403 q 116 392 68 403 q 160 389 131 389 q 256 424 224 389 q 271 459 271 441 q 247 504 271 486 q 185 521 223 521 q 142 515 163 521 q 124 512 130 512 q 98 534 111 512 q 85 579 85 557 q 90 594 85 591 q 130 609 96 598 q 178 637 158 618 q 198 675 198 656 q 180 712 198 696 q 136 727 162 727 q 68 705 113 727 q 51 701 57 701 q 27 716 39 701 q 16 749 16 732 q 86 811 16 783 q 241 839 156 839 z "},"":{"ha":1298,"x_min":42,"x_max":1272,"o":"m 84 458 q 113 455 90 458 q 130 454 123 454 q 161 477 151 454 q 170 675 170 498 q 161 702 170 694 q 130 709 153 709 q 113 708 125 709 q 98 707 103 707 q 71 716 81 707 q 60 739 60 725 q 95 781 60 761 q 221 821 136 804 q 380 838 305 838 q 455 799 455 838 q 424 766 455 779 q 395 738 400 756 q 391 633 391 719 q 400 479 391 504 q 463 452 410 455 q 509 417 509 451 q 456 374 509 385 q 281 359 384 359 q 115 376 194 359 q 42 422 42 391 q 54 447 42 437 q 84 458 66 457 m 507 250 l 713 597 q 823 798 795 741 q 856 845 840 833 q 901 857 871 857 q 966 825 966 857 q 913 724 966 802 q 802 545 874 668 l 592 191 q 520 63 572 157 q 470 -30 476 -18 q 438 -81 452 -68 q 401 -94 424 -94 q 344 -84 366 -94 q 322 -58 322 -74 q 336 -24 322 -45 q 448 152 355 3 l 507 250 m 1095 0 l 800 0 q 756 26 756 0 q 765 47 756 37 q 819 96 774 57 q 924 204 886 154 q 963 283 963 254 q 922 322 963 322 q 892 317 902 322 q 848 286 883 313 q 821 277 837 277 q 779 293 798 277 q 760 328 760 309 q 819 405 760 366 q 1030 468 915 468 q 1123 456 1079 468 q 1192 426 1168 445 q 1235 340 1235 391 q 1128 184 1235 267 q 1092 145 1092 157 q 1102 130 1092 136 q 1126 123 1112 123 q 1192 149 1162 123 q 1227 170 1215 170 q 1272 106 1272 170 q 1240 7 1272 52 q 1171 -38 1209 -38 q 1135 -16 1151 -38 q 1121 -3 1128 -5 q 1095 0 1114 0 z "},"":{"ha":1298,"x_min":42,"x_max":1268,"o":"m 84 458 q 113 455 90 458 q 130 454 123 454 q 161 477 151 454 q 170 675 170 498 q 161 702 170 694 q 130 709 153 709 q 113 708 125 709 q 98 707 103 707 q 71 716 81 707 q 60 739 60 725 q 95 781 60 761 q 221 821 136 804 q 380 838 305 838 q 455 799 455 838 q 424 766 455 779 q 395 738 400 756 q 391 633 391 719 q 400 479 391 504 q 463 452 410 455 q 509 417 509 451 q 456 374 509 385 q 281 359 384 359 q 115 376 194 359 q 42 422 42 391 q 54 447 42 437 q 84 458 66 457 m 507 250 l 713 597 q 823 798 795 741 q 856 845 840 833 q 901 857 871 857 q 966 825 966 857 q 913 724 966 802 q 802 545 874 668 l 592 191 q 520 63 572 157 q 470 -30 476 -18 q 438 -81 452 -68 q 401 -94 424 -94 q 344 -84 366 -94 q 322 -58 322 -74 q 336 -24 322 -45 q 448 152 355 3 l 507 250 m 1212 452 l 1212 175 q 1224 158 1212 158 l 1242 158 q 1268 130 1267 159 l 1268 49 q 1241 20 1268 24 q 1225 16 1227 19 q 1222 3 1222 14 l 1222 -45 q 1192 -76 1224 -75 l 1044 -76 q 1014 -45 1012 -75 l 1014 -3 q 1008 17 1014 12 q 987 22 1003 22 l 818 22 q 772 35 785 22 q 758 79 758 48 q 773 148 758 120 q 839 233 788 176 l 949 355 q 1071 470 1027 441 q 1166 499 1115 499 q 1212 452 1212 499 m 1021 244 l 1021 264 q 1002 295 1021 295 q 975 280 989 295 l 909 204 q 881 163 881 173 q 891 150 881 153 q 949 146 901 148 l 978 146 q 1008 149 1002 146 q 1018 164 1015 153 q 1021 244 1021 182 z "},"":{"ha":1298,"x_min":5,"x_max":1269,"o":"m 241 839 q 392 809 334 839 q 449 730 449 779 q 398 646 449 680 q 387 633 387 639 q 407 623 387 625 q 496 582 465 614 q 528 498 528 549 q 479 379 528 433 q 367 312 439 336 q 203 288 294 288 q 60 307 114 288 q 5 357 5 326 q 20 390 5 376 q 57 403 35 403 q 116 392 68 403 q 160 389 131 389 q 256 424 224 389 q 271 459 271 441 q 247 504 271 487 q 185 521 223 521 q 142 515 163 521 q 124 512 130 512 q 98 534 111 512 q 85 579 85 557 q 90 594 85 591 q 130 609 96 598 q 178 637 158 618 q 198 675 198 656 q 180 712 198 696 q 136 727 162 727 q 68 705 114 727 q 51 701 58 701 q 27 716 39 701 q 16 749 16 732 q 86 811 16 783 q 241 839 156 839 m 507 250 l 713 597 q 823 798 795 739 q 856 845 840 833 q 902 857 872 857 q 966 825 966 857 q 913 724 966 802 q 802 545 873 666 l 592 191 q 521 63 572 157 q 470 -30 477 -17 q 438 -81 452 -68 q 401 -94 424 -94 q 344 -84 366 -94 q 322 -58 322 -74 q 336 -24 322 -45 q 448 152 356 5 l 507 250 m 1212 452 l 1212 175 q 1224 158 1212 158 l 1242 158 q 1269 130 1268 159 l 1269 49 q 1241 20 1269 23 q 1225 16 1227 19 q 1222 3 1222 14 l 1222 -45 q 1192 -76 1224 -75 l 1044 -76 q 1014 -45 1012 -75 l 1014 -3 q 1008 17 1014 12 q 987 22 1003 22 l 818 22 q 772 35 785 22 q 758 79 758 48 q 773 149 758 120 q 839 233 788 177 l 949 355 q 1071 470 1027 441 q 1166 499 1115 499 q 1212 452 1212 499 m 1021 244 l 1021 264 q 1002 295 1021 295 q 975 280 989 295 l 909 204 q 881 163 881 173 q 891 150 881 153 q 949 146 901 148 l 978 146 q 1008 149 1002 146 q 1017 164 1015 153 q 1021 244 1021 181 z "},"":{"ha":694,"x_min":0,"x_max":694,"o":"m 0 1175 l 694 1175 l 694 1000 l 0 1000 l 0 1175 z "},"":{"ha":833,"x_min":36,"x_max":798,"o":"m 168 747 q 191 741 183 747 q 227 701 199 734 q 261 677 246 677 q 287 684 271 677 q 437 710 358 710 q 559 692 505 710 q 583 686 576 686 q 603 694 594 686 q 631 729 611 701 q 665 749 646 749 q 760 711 689 749 q 798 673 798 692 q 777 644 798 660 q 737 607 753 626 q 722 578 722 589 q 737 541 722 567 q 774 399 774 479 q 726 245 774 316 q 715 220 715 229 q 734 189 715 212 q 777 149 753 167 q 798 120 798 132 q 773 89 798 104 q 712 58 747 72 q 663 43 677 43 q 644 50 650 43 q 613 88 637 56 q 590 114 596 109 q 572 118 585 118 q 543 110 564 118 q 386 82 471 82 q 265 100 320 82 q 250 102 256 102 q 212 73 237 102 q 169 45 189 45 q 113 62 155 45 q 50 94 72 79 q 36 117 36 102 q 56 149 36 131 q 96 184 87 174 q 104 203 104 194 q 95 233 104 215 q 60 377 60 298 q 106 543 60 472 q 117 571 117 559 q 109 595 117 586 q 56 644 102 604 q 36 675 36 663 q 60 705 36 693 q 168 747 146 747 m 397 585 q 331 563 356 585 q 307 502 307 540 q 323 394 307 464 q 361 271 340 324 q 437 216 385 216 q 501 237 478 216 q 524 296 524 258 q 507 418 524 346 q 467 538 490 491 q 397 585 444 584 z "}}}
